<?xml version="1.0" standalone="no"?>
<!DOCTYPE svg PUBLIC "-//W3C//DTD SVG 1.1//EN" "http://www.w3.org/Graphics/SVG/1.1/DTD/svg11.dtd" >
<svg xmlns="http://www.w3.org/2000/svg" xmlns:xlink="http://www.w3.org/1999/xlink" version="1.1">
<metadata>
Created by FontForge 20170731 at Mon Jul 11 20:17:47 2016
 By Aleksey,,,
Copyright (c) 2016 by Radomir Tinkov. All rights reserved.
</metadata>
<defs>
<font id="Gilroy-Light" horiz-adv-x="1155" >
  <font-face 
    font-family="Gilroy Light"
    font-weight="300"
    font-stretch="normal"
    units-per-em="2048"
    panose-1="0 0 4 0 0 0 0 0 0 0"
    ascent="1638"
    descent="-410"
    x-height="1024"
    cap-height="1434"
    bbox="-604 -492 2091 1966"
    underline-thickness="102"
    underline-position="-306"
    unicode-range="U+0020-FB02"
  />
<missing-glyph horiz-adv-x="1024" 
d="M840 1638v-2048h-650v2048h650zM682 1501h-338v-67h133v-76h-135v-68h340v68h-135v76h135v67zM547 1237h-205v-213h340v70h-135v143zM477 1167v-73h-67v73h67zM682 969h-340v-68h135v-76h-135v-67h205v143h135v68zM682 846h-68v-135h-272v-70h340v205zM682 596h-205v-115
h70v47h67v-96h-204v164h-68v-231h340v231zM682 242h-340v-232h340v232zM614 174v-96h-204v96h204zM682 -37h-340v-67h143l-143 -97v-67h340v67h-209l143 97h66v67z" />
    <glyph glyph-name="fi" unicode="fi" horiz-adv-x="1044" 
d="M889 1024v-1024h-105v924h-448v-924h-105v924h-176v100h176v55q0 377 410 377q92 0 199 -22v-95q-100 18 -199 19q-158 0 -231.5 -65.5t-73.5 -213.5v-55h553z" />
    <glyph glyph-name="fl" unicode="fl" horiz-adv-x="1044" 
d="M641 1456q113 0 248 -22v-1434h-105v1354q-63 8 -143 8q-158 0 -231.5 -67.5t-73.5 -215.5v-55h244v-100h-244v-924h-105v924h-176v100h176v55q0 377 410 377z" />
    <glyph glyph-name="f_f" unicode="ff" horiz-adv-x="1193" 
d="M1194 1378q-305 25 -305 -278v-76h305v-100h-305v-924h-105v924h-448v-924h-105v924h-176v100h176v55q0 193 105.5 292t304.5 85v-98q-305 25 -305 -279v-55h448v76q0 193 105.5 292t304.5 85v-99z" />
    <glyph glyph-name="f_f_i" unicode="ffi" horiz-adv-x="1597" 
d="M1440 1024v-1024h-103v924h-448v-924h-105v924h-448v-924h-105v924h-176v100h176v55q0 193 105.5 292t304.5 85v-98q-305 25 -305 -279v-55h448v76q0 377 410 377q90 0 199 -23v-94q-102 18 -199 18q-160 0 -232.5 -65.5t-72.5 -212.5v-76h551z" />
    <glyph glyph-name="f_f_l" unicode="ffl" horiz-adv-x="1597" 
d="M1194 1477q115 0 246 -23v-1454h-103v1374q-63 8 -143 8q-160 0 -232.5 -67.5t-72.5 -214.5v-76h244v-100h-244v-924h-105v924h-448v-924h-105v924h-176v100h176v55q0 193 105.5 292t304.5 85v-98q-305 25 -305 -279v-55h448v76q0 377 410 377z" />
    <glyph glyph-name=".notdef" horiz-adv-x="1024" 
d="M840 1638v-2048h-650v2048h650zM682 1501h-338v-67h133v-76h-135v-68h340v68h-135v76h135v67zM547 1237h-205v-213h340v70h-135v143zM477 1167v-73h-67v73h67zM682 969h-340v-68h135v-76h-135v-67h205v143h135v68zM682 846h-68v-135h-272v-70h340v205zM682 596h-205v-115
h70v47h67v-96h-204v164h-68v-231h340v231zM682 242h-340v-232h340v232zM614 174v-96h-204v96h204zM682 -37h-340v-67h143l-143 -97v-67h340v67h-209l143 97h66v67z" />
    <glyph glyph-name=".null" horiz-adv-x="0" 
 />
    <glyph glyph-name="nonmarkingreturn" horiz-adv-x="682" 
 />
    <glyph glyph-name="space" unicode=" " horiz-adv-x="546" 
 />
    <glyph glyph-name="exclam" unicode="!" horiz-adv-x="450" 
d="M184 369l-20 655v410h123v-410l-21 -655h-82zM225 -20q-39 0 -65.5 26.5t-26.5 65.5t26.5 65.5t65.5 26.5t65.5 -26.5t26.5 -65.5t-26.5 -65.5t-65.5 -26.5z" />
    <glyph glyph-name="quotedbl" unicode="&#x22;" horiz-adv-x="600" 
d="M123 1051l-14 383h110l-14 -383h-82zM395 1051l-12 383h109l-15 -383h-82z" />
    <glyph glyph-name="numbersign" unicode="#" horiz-adv-x="1234" 
d="M1145 854h-244l-45 -274h246l-17 -95h-245l-64 -383h-102l63 383h-315l-64 -383h-102l63 383h-243l14 95h246l45 274h-246l15 94h247l64 383h102l-63 -383h315l64 383h102l-63 -383h243zM754 580l45 274h-316l-45 -274h316z" />
    <glyph glyph-name="dollar" unicode="$" horiz-adv-x="1126" 
d="M1038 367q0 -160 -109.5 -265.5t-287.5 -121.5v-185h-96v182q-170 8 -290 84t-167 207l94 54q74 -223 363 -240v608q-96 33 -152.5 59.5t-118 71.5t-90 109.5t-28.5 152.5q0 156 110.5 258.5t278.5 112.5v184h96v-184q125 -14 220 -79.5t143 -178.5l-93 -51
q-72 178 -270 203v-582q74 -27 123 -47.5t106.5 -55t90 -72.5t55 -95t22.5 -129zM264 1083q0 -111 69.5 -171t211.5 -111v549q-125 -10 -203 -84t-78 -183zM641 86q135 14 211 91t76 189.5t-72 176t-215 114.5v-571z" />
    <glyph glyph-name="percent" unicode="%" horiz-adv-x="1466" 
d="M442 846q-135 0 -224 88t-89 217t89 217t224.5 88t224.5 -88t89 -217t-88.5 -217t-225.5 -88zM442.5 940q92.5 0 152.5 60.5t60 150.5t-60 150.5t-152.5 60.5t-152 -60.5t-59.5 -150.5t59.5 -150.5t152 -60.5zM207 184l973 1094l69 -39l-975 -1094zM1022 -23
q-135 0 -224 88.5t-89 217.5t89 217t224 88t224 -88t89 -217t-89 -217.5t-224 -88.5zM1022 72q92 0 152.5 60.5t60.5 150.5t-60.5 150.5t-152.5 60.5t-151.5 -60.5t-59.5 -150.5t59.5 -150.5t151.5 -60.5z" />
    <glyph glyph-name="ampersand" unicode="&#x26;" horiz-adv-x="1341" 
d="M1286 39l-96 -55l-166 174q-158 -180 -428 -181q-213 0 -340 110t-127 294q0 135 73.5 246.5t211.5 171.5q-115 133 -115 280q0 170 119 273.5t287 103.5q137 0 245.5 -71.5t153.5 -198.5l-90 -53q-33 100 -116 159.5t-191 59.5q-129 0 -213 -76t-84 -193
q0 -80 38.5 -144.5t116.5 -143.5l449 -469q66 121 86 284l96 -55q-29 -178 -106 -309zM592 82q223 0 358 154l-461 483q-127 -47 -188 -138.5t-61 -197.5q0 -141 95 -221t257 -80z" />
    <glyph glyph-name="quotesingle" unicode="'" horiz-adv-x="321" 
d="M123 1051l-14 383h110l-14 -383h-82z" />
    <glyph glyph-name="parenleft" unicode="(" horiz-adv-x="534" 
d="M348 -205q-225 451 -225 922t225 921h105q-225 -451 -225.5 -921.5t225.5 -921.5h-105z" />
    <glyph glyph-name="parenright" unicode=")" horiz-adv-x="534" 
d="M186 -205h-104q225 451 225 922t-225 921h104q225 -451 225 -921.5t-225 -921.5z" />
    <glyph glyph-name="asterisk" unicode="*" horiz-adv-x="792" 
d="M662 1251v-88l-195 4l108 -161l-79 -48l-101 172l-98 -172l-82 48l109 161l-195 -4v88l195 -4l-109 162l82 47l98 -170l101 170l79 -47l-108 -162z" />
    <glyph glyph-name="plus" unicode="+" horiz-adv-x="1091" 
d="M963 766v-98h-367v-367h-100v367h-367v98h367v367h100v-367h367z" />
    <glyph glyph-name="comma" unicode="," horiz-adv-x="456" 
d="M332 139l-111 -426h-94l78 426h127z" />
    <glyph glyph-name="hyphen" unicode="-" horiz-adv-x="1091" 
d="M178 584v98h737v-98h-737z" />
    <glyph glyph-name="period" unicode="." horiz-adv-x="436" 
d="M219 -20q-39 0 -65.5 26.5t-26.5 65.5t26.5 65.5t65.5 26.5t65.5 -26.5t26.5 -65.5t-26.5 -65.5t-65.5 -26.5z" />
    <glyph glyph-name="slash" unicode="/" horiz-adv-x="1079" 
d="M170 -205h-82l819 1843h82z" />
    <glyph glyph-name="zero" unicode="0" horiz-adv-x="1290" 
d="M645 -23q-254 0 -395 201t-141 539t141 538.5t395 200.5t395.5 -200.5t141.5 -538.5t-141.5 -539t-395.5 -201zM645 82q201 0 313.5 167t112.5 468t-112.5 468t-313.5 167t-313.5 -167t-112.5 -468t112.5 -468t313.5 -167z" />
    <glyph glyph-name="one" unicode="1" horiz-adv-x="679" 
d="M410 1434h92v-1434h-109v1315l-332 -105l-26 95z" />
    <glyph glyph-name="two" unicode="2" horiz-adv-x="1079" 
d="M88 0v98l526 541q231 240 232 405q0 143 -90 225.5t-226 82.5q-240 0 -342 -217l-92 55q63 129 177 197.5t257 68.5q174 0 300 -110.5t126 -301.5q0 -123 -70.5 -238.5t-197.5 -244.5l-444 -457h745v-104h-901z" />
    <glyph glyph-name="three" unicode="3" horiz-adv-x="1103" 
d="M594 838q180 -18 297 -129t117 -295q0 -201 -137.5 -319t-335.5 -118q-160 0 -283 72t-174 201l90 53q39 -106 135 -163.5t232 -57.5q160 0 262 90t102 241.5t-103.5 241.5t-265.5 90v3l-2 -3h-28l-47 72l362 514h-700v103h825v-103z" />
    <glyph glyph-name="four" unicode="4" horiz-adv-x="1173" 
d="M1122 403v-102h-184v-301h-109v301h-772v102l545 1031h119l-543 -1031h651v451h109v-451h184z" />
    <glyph glyph-name="five" unicode="5" horiz-adv-x="1107" 
d="M545 850q201 0 339 -118t138 -318.5t-138.5 -318.5t-338.5 -118q-158 0 -282 76t-171 213l92 53q35 -115 131.5 -176t229.5 -61q162 0 265 90t103 241.5t-103 241.5t-265 90h-383l49 689h758v-103h-662l-33 -481h271z" />
    <glyph glyph-name="six" unicode="6" horiz-adv-x="1099" 
d="M549 922q211 0 346 -132.5t135 -340.5q0 -207 -135 -339.5t-346 -132.5t-346 132.5t-135 339.5q0 162 88 286l481 699h123l-367 -535q78 23 156 23zM549 82q168 0 270.5 102.5t102.5 264.5q0 164 -102.5 266t-270.5 102t-269.5 -102.5t-101.5 -265.5q0 -162 101.5 -264.5
t269.5 -102.5z" />
    <glyph glyph-name="seven" unicode="7" horiz-adv-x="1003" 
d="M47 1434h868v-103l-557 -1331h-112l557 1331h-756v103z" />
    <glyph glyph-name="eight" unicode="8" horiz-adv-x="1126" 
d="M782 741q119 -47 187.5 -141t68.5 -217q0 -190 -133 -298t-342 -108t-342 108t-133 298q0 123 68.5 217t187.5 141q-96 47 -152.5 132t-56.5 196q0 182 124 284.5t304 102.5t304 -102.5t124 -284.5q0 -111 -56.5 -196t-152.5 -132zM244 1069q0 -129 90 -205t229 -76
t229.5 76t90.5 205q0 133 -89 208t-230.5 75t-230.5 -75t-89 -208zM563 82q168 0 266.5 80t98.5 221t-98.5 220t-266.5 79t-266 -79t-98 -220t98 -221t266 -80z" />
    <glyph glyph-name="nine" unicode="9" horiz-adv-x="1099" 
d="M1030 985q0 -162 -88 -287l-479 -698h-123l367 535q-78 -23 -158 -23q-211 0 -346 132t-135 341q0 207 135 339t346 132t346 -132t135 -339zM178 985q0 -164 101.5 -266.5t269.5 -102.5t270.5 102.5t102.5 266.5q0 162 -102.5 264.5t-270.5 102.5t-269.5 -102.5
t-101.5 -264.5z" />
    <glyph glyph-name="colon" unicode=":" horiz-adv-x="436" 
d="M219 840q-39 0 -65.5 26.5t-26.5 65.5t26.5 65.5t65.5 26.5t65.5 -26.5t26.5 -65.5t-26.5 -65.5t-65.5 -26.5zM219 -20q-39 0 -65.5 26.5t-26.5 65.5t26.5 65.5t65.5 26.5t65.5 -26.5t26.5 -65.5t-26.5 -65.5t-65.5 -26.5z" />
    <glyph glyph-name="semicolon" unicode=";" horiz-adv-x="471" 
d="M254 840q-39 0 -65.5 26.5t-26.5 65.5t26.5 65.5t65.5 26.5t65.5 -26.5t26.5 -65.5t-26.5 -65.5t-65.5 -26.5zM332 139l-111 -426h-94l78 426h127z" />
    <glyph glyph-name="less" unicode="&#x3c;" horiz-adv-x="1079" 
d="M950 1135v-115l-702 -303l702 -303v-115l-819 365v106z" />
    <glyph glyph-name="equal" unicode="=" horiz-adv-x="1099" 
d="M129 872v99h840v-99h-840zM129 463v98h840v-98h-840z" />
    <glyph glyph-name="greater" unicode="&#x3e;" horiz-adv-x="1079" 
d="M129 1135l819 -365v-106l-819 -365v115l702 303l-702 303v115z" />
    <glyph glyph-name="question" unicode="?" horiz-adv-x="1085" 
d="M451 369q0 100 40.5 185t98 146.5t116 119t99.5 126t41 141.5q0 127 -84 196t-227 69q-123 0 -212.5 -56.5t-121.5 -160.5l-92 51q45 131 161.5 200.5t264.5 69.5q180 0 300.5 -97t120.5 -272q0 -86 -41 -161.5t-99 -136t-116.5 -120t-99.5 -137t-41 -163.5h-108z
M506 -20q-39 0 -65.5 26.5t-26.5 65.5t26.5 65.5t65.5 26.5t65.5 -26.5t26.5 -65.5t-26.5 -65.5t-65.5 -26.5z" />
    <glyph glyph-name="at" unicode="@" horiz-adv-x="1652" 
d="M842 1253q217 0 385 -105.5t250 -263t82 -331.5q0 -217 -85 -322.5t-202 -105.5q-86 0 -143.5 49t-71.5 139q-88 -129 -246 -129q-141 0 -236.5 94.5t-95.5 233.5t95.5 233.5t236.5 94.5q156 0 242 -123v108h98v-456q0 -186 135 -187q96 0 156.5 93.5t60.5 277.5
q0 276 -190.5 462.5t-470.5 186.5q-289 0 -490.5 -198.5t-201.5 -491.5q0 -299 206.5 -494.5t522.5 -195.5q205 0 350 57l6 -53q-154 -55 -356 -55q-336 0 -559.5 209.5t-223.5 531.5q0 309 214.5 525t531.5 216zM815 279q100 0 169 65.5t69 167.5t-69 167.5t-169 65.5
t-168.5 -65.5t-68.5 -167.5t68.5 -167.5t168.5 -65.5z" />
    <glyph glyph-name="A" unicode="A" horiz-adv-x="1288" 
d="M1143 0l-139 365h-719l-140 -365h-114l557 1434h114l555 -1434h-114zM326 467h639l-320 833z" />
    <glyph glyph-name="B" unicode="B" horiz-adv-x="1275" 
d="M942 743q111 -43 178.5 -137t67.5 -215q0 -162 -115 -276.5t-276 -114.5h-619v1434h572q156 0 266 -111t110 -266q0 -102 -50 -185.5t-134 -128.5zM750 1331h-463v-549h463q111 0 189.5 81t78.5 193.5t-78.5 193.5t-189.5 81zM797 102q117 0 199.5 85t82.5 204t-83 204
t-199 85h-510v-578h510z" />
    <glyph glyph-name="C" unicode="C" horiz-adv-x="1538" 
d="M842 -23q-324 0 -535 214.5t-211 525.5t211 525t535 214q197 0 360.5 -93t253.5 -251l-96 -55q-72 133 -211 214t-307 81q-279 0 -458 -183.5t-179 -451.5t179 -451.5t458 -183.5q168 0 309 82t213 219l96 -55q-88 -160 -253.5 -255.5t-364.5 -95.5z" />
    <glyph glyph-name="D" unicode="D" horiz-adv-x="1488" 
d="M717 1434q293 0 484.5 -208t191.5 -509t-191.5 -509t-484.5 -208h-539v1434h539zM717 102q250 0 409.5 177.5t159.5 437.5t-159.5 437t-409.5 177h-430v-1229h430z" />
    <glyph glyph-name="E" unicode="E" horiz-adv-x="1091" 
d="M287 102h717v-102h-826v1434h815v-103h-706v-557h655v-102h-655v-570z" />
    <glyph glyph-name="F" unicode="F" horiz-adv-x="1060" 
d="M973 1331h-686v-573h661v-103h-661v-655h-109v1434h795v-103z" />
    <glyph glyph-name="G" unicode="G" horiz-adv-x="1636" 
d="M1542 668v-56q0 -268 -190.5 -451.5t-501.5 -183.5q-328 0 -541 214.5t-213 525.5t211 525t535 214q197 0 361.5 -94t254.5 -252l-96 -57q-72 135 -212 217t-308 82q-279 0 -458 -183.5t-179 -451.5t180 -451.5t465 -183.5q252 0 407.5 137t174.5 346h-609v103h719z" />
    <glyph glyph-name="H" unicode="H" horiz-adv-x="1406" 
d="M1120 1434h109v-1434h-109v686h-833v-686h-109v1434h109v-646h833v646z" />
    <glyph glyph-name="I" unicode="I" horiz-adv-x="464" 
d="M178 1434h109v-1434h-109v1434z" />
    <glyph glyph-name="J" unicode="J" horiz-adv-x="1132" 
d="M516 -23q-150 0 -263.5 61.5t-164.5 178.5l92 55q76 -190 336 -190q160 0 255 81t95 230v1041h111v-1041q0 -199 -130 -307.5t-331 -108.5z" />
    <glyph glyph-name="K" unicode="K" horiz-adv-x="1171" 
d="M1151 0h-145l-719 707v-707h-109v1434h109v-668l698 668h145l-724 -697z" />
    <glyph glyph-name="L" unicode="L" horiz-adv-x="1009" 
d="M287 102h676v-102h-785v1434h109v-1332z" />
    <glyph glyph-name="M" unicode="M" horiz-adv-x="1652" 
d="M1475 1434v-1434h-109v1274l-530 -881h-19l-530 881v-1274h-109v1434h135l512 -848l512 848h138z" />
    <glyph glyph-name="N" unicode="N" horiz-adv-x="1406" 
d="M1120 1434h109v-1434h-96l-846 1233v-1233h-109v1434h94l848 -1233v1233z" />
    <glyph glyph-name="O" unicode="O" horiz-adv-x="1671" 
d="M835.5 -23q-309.5 0 -524.5 216.5t-215 523.5t215 523t524.5 216t524.5 -216t215 -523t-215 -523.5t-524.5 -216.5zM835.5 82q264.5 0 447.5 185.5t183 449.5t-183 449.5t-447.5 185.5t-447.5 -185.5t-183 -449.5t183 -449.5t447.5 -185.5z" />
    <glyph glyph-name="P" unicode="P" horiz-adv-x="1202" 
d="M666 1434q193 0 319.5 -127t126.5 -317.5t-127 -316.5t-319 -126h-379v-547h-109v1434h488zM666 649q147 0 242.5 96.5t95.5 243.5q0 150 -95.5 246t-242.5 96h-379v-682h379z" />
    <glyph glyph-name="Q" unicode="Q" horiz-adv-x="1681" 
d="M1575 717q0 -313 -225 -533l168 -166l-74 -67l-172 168q-195 -141 -436 -142q-307 0 -523.5 216.5t-216.5 523.5t216 523t523.5 216t523.5 -216t216 -523zM836 82q199 0 360 113l-317 313l73 67l322 -317q193 188 192 459q0 264 -184 449.5t-446.5 185.5t-446.5 -185.5
t-184 -449.5t184.5 -449.5t446.5 -185.5z" />
    <glyph glyph-name="R" unicode="R" horiz-adv-x="1255" 
d="M1083 0l-344 588h-452v-588h-109v1434h565q174 0 299 -125t125 -299q0 -145 -89 -258t-226 -150l356 -602h-125zM287 1331v-641h456q131 0 223.5 93.5t92.5 226.5t-92.5 227t-223.5 94h-456z" />
    <glyph glyph-name="S" unicode="S" horiz-adv-x="1175" 
d="M616 -23q-199 0 -337 91.5t-187 246.5l94 56q39 -133 148.5 -211t281.5 -78q174 0 267.5 80t93.5 207q0 119 -90 182t-281 125q-70 23 -101.5 34t-91 34.5t-88 42t-68.5 49t-58.5 62.5t-32.5 76t-14 97q0 174 123.5 279.5t310.5 105.5q168 0 286.5 -84t174.5 -217
l-93 -51q-102 248 -368 248q-147 0 -235.5 -78t-88.5 -199q0 -117 82 -174t268 -119q119 -39 185.5 -66.5t143.5 -75.5t111.5 -114.5t34.5 -154.5q0 -178 -129 -286t-342 -108z" />
    <glyph glyph-name="T" unicode="T" horiz-adv-x="1105" 
d="M1059 1434v-103h-451v-1331h-110v1331h-451v103h1012z" />
    <glyph glyph-name="U" unicode="U" horiz-adv-x="1366" 
d="M682 -23q-238 0 -381 137.5t-143 364.5v955h108v-955q0 -180 108.5 -288.5t307.5 -108.5t308.5 108.5t109.5 288.5v955h108v-955q0 -227 -144 -364.5t-382 -137.5z" />
    <glyph glyph-name="V" unicode="V" horiz-adv-x="1239" 
d="M561 0l-534 1434h118l473 -1293l476 1293h116l-534 -1434h-115z" />
    <glyph glyph-name="W" unicode="W" horiz-adv-x="2033" 
d="M483 0l-415 1434h114l371 -1289l399 1289h129l402 -1289l368 1289h115l-416 -1434h-131l-401 1292l-404 -1292h-131z" />
    <glyph glyph-name="X" unicode="X" horiz-adv-x="1173" 
d="M1126 0h-125l-413 639l-414 -639h-127l477 737l-450 697h125l389 -600l387 600h125l-451 -697z" />
    <glyph glyph-name="Y" unicode="Y" horiz-adv-x="1193" 
d="M1174 1434l-523 -844v-590h-108v590l-523 844h123l455 -740l453 740h123z" />
    <glyph glyph-name="Z" unicode="Z" horiz-adv-x="1071" 
d="M209 102h795v-102h-916v102l774 1229h-753v103h874v-103z" />
    <glyph glyph-name="bracketleft" unicode="[" horiz-adv-x="567" 
d="M526 1538h-293v-1642h293v-101h-397v1843h397v-100z" />
    <glyph glyph-name="backslash" unicode="\" horiz-adv-x="1079" 
d="M907 -205l-819 1843h82l819 -1843h-82z" />
    <glyph glyph-name="bracketright" unicode="]" horiz-adv-x="567" 
d="M438 1638v-1843h-397v101h293v1642h-293v100h397z" />
    <glyph glyph-name="asciicircum" unicode="^" horiz-adv-x="1028" 
d="M565 1434l361 -615h-121l-291 498l-291 -498h-121l361 615h102z" />
    <glyph glyph-name="underscore" unicode="_" horiz-adv-x="1038" 
d="M82 -272v98h874v-98h-874z" />
    <glyph glyph-name="grave" unicode="`" horiz-adv-x="368" 
d="M328 1167l-164 260h-123l188 -260h99z" />
    <glyph glyph-name="a" unicode="a" horiz-adv-x="1320" 
d="M1059 1024h104v-1024h-104v231q-66 -119 -180.5 -186.5t-260.5 -67.5q-219 0 -374.5 155t-155.5 380t155.5 380t374.5 155q145 0 260 -68t181 -186v231zM626.5 76q182.5 0 307.5 127t125 309t-125 309t-307.5 127t-308 -127t-125.5 -309t125.5 -309t308 -127z" />
    <glyph glyph-name="b" unicode="b" horiz-adv-x="1320" 
d="M700 1047q221 0 376 -155t155 -380t-154.5 -380t-376.5 -155q-145 0 -260.5 70t-179.5 191v-238h-102v1434h102v-648q63 121 179 191t261 70zM694.5 76q182.5 0 308 127t125.5 309t-125.5 309t-308 127t-308.5 -127t-126 -309t126 -309t308.5 -127z" />
    <glyph glyph-name="c" unicode="c" horiz-adv-x="1148" 
d="M627 -23q-231 0 -385 154t-154 381t153.5 381t385.5 154q150 0 270.5 -71t175.5 -192l-84 -49q-45 98 -142 155.5t-220 57.5q-184 0 -309 -126t-125 -310t124.5 -310t309.5 -126q123 0 220 57t148 156l86 -51q-61 -119 -182.5 -190t-271.5 -71z" />
    <glyph glyph-name="d" unicode="d" horiz-adv-x="1320" 
d="M1061 1434h102v-1434h-102v238q-63 -121 -179 -191t-261 -70q-221 0 -376 155t-155 380t154.5 380t376.5 155q145 0 260.5 -70t179.5 -191v648zM626.5 76q182.5 0 308.5 127t126 309t-126 309t-308.5 127t-308 -127t-125.5 -309t125.5 -309t308 -127z" />
    <glyph glyph-name="e" unicode="e" horiz-adv-x="1206" 
d="M618 1047q225 0 365.5 -160t140.5 -379q0 -8 -1 -24.5t-1 -24.5h-927q18 -172 138 -277.5t296 -105.5q123 0 215 51t139 135l90 -53q-63 -106 -180 -169t-266 -63q-236 0 -387.5 151t-151.5 384q0 229 148.5 382t381.5 153zM618 948q-174 0 -290.5 -108.5t-132.5 -280.5
h823q-16 182 -130 285.5t-270 103.5z" />
    <glyph glyph-name="f" unicode="f" horiz-adv-x="641" 
d="M641 1358q-305 25 -305 -279v-55h305v-100h-305v-924h-105v924h-176v100h176v55q0 193 105.5 292t304.5 85v-98z" />
    <glyph glyph-name="g" unicode="g" horiz-adv-x="1327" 
d="M1067 1024h102v-975q0 -223 -145 -352t-365 -129q-176 0 -301 65.5t-182 180.5l90 51q98 -199 393 -199q190 0 299 103.5t109 279.5v189q-63 -121 -179 -191t-261 -70q-221 0 -376 155t-155 380t155 380t376 155q145 0 261 -70t179 -191v238zM633 76q182 0 308 127
t126 309t-126 309t-308 127t-308 -127t-126 -309t126 -309t308 -127z" />
    <glyph glyph-name="h" unicode="h" 
d="M627 1047q182 0 289.5 -112t107.5 -298v-637h-104v637q0 143 -79 227t-223 84q-158 0 -258 -104.5t-100 -302.5v-541h-102v1434h102v-605q111 218 367 218z" />
    <glyph glyph-name="i" unicode="i" horiz-adv-x="417" 
d="M209 1272q-33 0 -57.5 23.5t-24.5 58.5q0 33 24.5 56.5t57.5 23.5t57.5 -24t24.5 -56q0 -35 -24.5 -58.5t-57.5 -23.5zM158 0v1024h102v-1024h-102z" />
    <glyph glyph-name="j" unicode="j" horiz-adv-x="456" 
d="M248 1434q33 0 57.5 -24t24.5 -56q0 -35 -23.5 -58.5t-58.5 -23.5t-58.5 23.5t-23.5 58.5q0 33 24.5 56.5t57.5 23.5zM197 -117v1141h102v-1141q0 -164 -88 -246.5t-252 -68.5v98q238 -25 238 217z" />
    <glyph glyph-name="k" unicode="k" horiz-adv-x="989" 
d="M942 0h-139l-543 504v-504h-102v1434h102v-875l518 465h144l-551 -492z" />
    <glyph glyph-name="l" unicode="l" horiz-adv-x="417" 
d="M158 0v1495h102v-1495h-102z" />
    <glyph glyph-name="m" unicode="m" horiz-adv-x="1755" 
d="M1251 1047q168 0 270.5 -104.5t102.5 -293.5v-649h-102v649q0 143 -75 221t-198 78q-137 0 -222 -94t-85 -283v-571h-102v649q0 143 -71 221t-191 78q-135 0 -226.5 -95t-91.5 -282v-571h-102v1024h102v-176q106 199 330 199q113 0 196.5 -54.5t122.5 -154.5
q53 104 144.5 156.5t197.5 52.5z" />
    <glyph glyph-name="n" unicode="n" 
d="M627 1047q182 0 289.5 -112t107.5 -298v-637h-104v637q0 143 -79 227t-223 84q-158 0 -258 -104.5t-100 -302.5v-541h-102v1024h102v-195q111 218 367 218z" />
    <glyph glyph-name="o" unicode="o" horiz-adv-x="1251" 
d="M627 -23q-225 0 -382 155t-157 380t156.5 380t382.5 155q223 0 379.5 -155t156.5 -380t-156.5 -380t-379.5 -155zM626.5 76q182.5 0 307.5 127t125 309t-125 309t-307.5 127t-308 -127t-125.5 -309t125.5 -309t308 -127z" />
    <glyph glyph-name="p" unicode="p" horiz-adv-x="1320" 
d="M700 1047q221 0 376 -155t155 -380t-154.5 -380t-376.5 -155q-145 0 -260.5 70t-179.5 191v-648h-102v1434h102v-238q63 121 179 191t261 70zM694.5 76q182.5 0 308 127t125.5 309t-125.5 309t-308 127t-308.5 -127t-126 -309t126 -309t308.5 -127z" />
    <glyph glyph-name="q" unicode="q" horiz-adv-x="1320" 
d="M1061 1024h102v-1434h-102v648q-63 -121 -179 -191t-261 -70q-221 0 -376 155t-155 380t154.5 380t376.5 155q145 0 260.5 -70t179.5 -191v238zM626.5 76q182.5 0 308.5 127t126 309t-126 309t-308.5 127t-308 -127t-125.5 -309t125.5 -309t308 -127z" />
    <glyph glyph-name="r" unicode="r" horiz-adv-x="651" 
d="M260 823q92 215 342 215v-98q-145 0 -243.5 -93t-98.5 -278v-569h-102v1024h102v-201z" />
    <glyph glyph-name="s" unicode="s" horiz-adv-x="937" 
d="M227 756q0 -76 63.5 -119t155 -64.5t183.5 -48t155.5 -89t63.5 -167.5q0 -127 -101.5 -209t-265.5 -82q-147 0 -248.5 62.5t-140.5 165.5l88 51q29 -84 108 -132t193.5 -48t189 50t74.5 142q0 76 -63.5 121t-155.5 66.5t-183 48t-154.5 88t-63.5 164.5q0 123 97 207
t251 84q123 0 214 -55.5t134 -149.5l-86 -49q-31 76 -102.5 115.5t-159.5 39.5q-104 0 -175 -52t-71 -140z" />
    <glyph glyph-name="t" unicode="t" horiz-adv-x="770" 
d="M682 924h-305v-666q0 -88 32.5 -127t100.5 -44t172 5v-92q-207 -31 -308.5 28.5t-101.5 229.5v666h-225v100h225v256l105 31v-287h305v-100z" />
    <glyph glyph-name="u" unicode="u" 
d="M895 1024h102v-1024h-102v195q-111 -217 -367 -218q-182 0 -289.5 112t-107.5 298v637h105v-637q0 -143 78.5 -227t222.5 -84q158 0 258 104.5t100 302.5v541z" />
    <glyph glyph-name="v" unicode="v" horiz-adv-x="1046" 
d="M909 1024h109l-432 -1024h-125l-434 1024h110l385 -918z" />
    <glyph glyph-name="w" unicode="w" horiz-adv-x="1576" 
d="M1401 1024h108l-323 -1024h-113l-285 872l-284 -872h-113l-323 1024h108l273 -891l286 891h107l286 -891z" />
    <glyph glyph-name="x" unicode="x" horiz-adv-x="1038" 
d="M989 0h-125l-346 446l-346 -446h-125l410 526l-385 498h125l321 -416l324 416h123l-383 -496z" />
    <glyph glyph-name="y" unicode="y" horiz-adv-x="1044" 
d="M907 1024h111l-443 -1118q-59 -152 -167.5 -239t-237.5 -77v97q98 -8 177 56t128 183l23 56l-471 1042h110l414 -911z" />
    <glyph glyph-name="z" unicode="z" horiz-adv-x="976" 
d="M254 100h633v-100h-778v68l614 856h-594v100h737v-68z" />
    <glyph glyph-name="braceleft" unicode="{" horiz-adv-x="714" 
d="M674 -221q-166 -16 -254 61.5t-88 241.5v383q0 119 -52.5 162t-170.5 43v98q119 0 171 43t52 162v383q0 164 88 241.5t254 61.5v-100q-123 14 -180.5 -33t-57.5 -170v-383q0 -213 -164 -254q164 -41 164 -254v-383q0 -123 57.5 -170t180.5 -35v-98z" />
    <glyph glyph-name="bar" unicode="|" horiz-adv-x="458" 
d="M178 -410v1885h103v-1885h-103z" />
    <glyph glyph-name="braceright" unicode="}" horiz-adv-x="714" 
d="M41 -221v98q123 -12 180.5 35t57.5 170v383q0 213 163 254q-164 41 -163 254v383q0 123 -57.5 170t-180.5 33v100q166 16 254 -61.5t88 -241.5v-383q0 -119 52 -162t171 -43v-98q-119 0 -171 -43t-52 -162v-383q0 -164 -88 -241.5t-254 -61.5z" />
    <glyph glyph-name="asciitilde" unicode="~" horiz-adv-x="1202" 
d="M977 842l94 -45q-20 -70 -59 -120t-97.5 -79t-146.5 -10.5t-190 86.5q-283 186 -355 -82l-94 45q20 70 60 120t99.5 77.5t146.5 10t190 -84.5q284 -186 352 82z" />
    <glyph glyph-name="exclamdown" unicode="&#xa1;" horiz-adv-x="450" 
d="M225 1044q39 0 65.5 -26.5t26.5 -65.5t-26.5 -65.5t-65.5 -26.5t-65.5 26.5t-26.5 65.5t26.5 65.5t65.5 26.5zM184 655h82l21 -655v-410h-123v410z" />
    <glyph glyph-name="cent" unicode="&#xa2;" horiz-adv-x="1148" 
d="M995 494l86 -52q-61 -119 -183 -189.5t-271 -70.5q-82 0 -152 21l-65 -203h-82l73 227q-143 61 -228 192.5t-85 297.5q0 227 153.5 380.5t385.5 153.5q51 0 108 -10l64 193h82l-70 -213q186 -66 262 -232l-84 -49q-59 131 -209 186l-272 -829q59 -16 119 -16
q123 0 220 57.5t148 155.5zM193 717q0 -129 65.5 -234.5t175.5 -158.5l271 823q-37 6 -78 6q-184 0 -309 -126t-125 -310z" />
    <glyph glyph-name="sterling" unicode="&#xa3;" horiz-adv-x="1208" 
d="M401 104h773v-104h-1086v104h205v496h-164v96h164v348q0 193 121 302.5t291 109.5q279 0 382 -266l-88 -51q-76 213 -294 213q-131 0 -217.5 -81t-86.5 -227v-348h494v-96h-494v-496z" />
    <glyph glyph-name="currency" unicode="&#xa4;" horiz-adv-x="1132" 
d="M1001 716.5q0 -157.5 -100 -280.5l141 -143l-53 -53l-143 143q-121 -98 -281 -98q-158 0 -278 98l-146 -143l-53 53l145 143q-102 119 -102 281t102 280l-145 144l53 53l146 -143q121 98 278 98q160 0 281 -98l143 143l53 -53l-141 -144q100 -123 100 -280.5zM236 717
q0 -139 95 -236.5t234.5 -97.5t235.5 97.5t96 236.5t-96 236.5t-235.5 97.5t-234.5 -97.5t-95 -236.5z" />
    <glyph glyph-name="yen" unicode="&#xa5;" horiz-adv-x="1167" 
d="M1174 1434l-453 -729h297v-93h-352l-15 -22v-135h367v-90h-367v-365h-108v365h-391v90h391v135l-15 22h-376v93h321l-453 729h123l449 -729h10l449 729h123z" />
    <glyph glyph-name="brokenbar" unicode="&#xa6;" horiz-adv-x="458" 
d="M178 717v758h103v-758h-103zM178 -410v758h103v-758h-103z" />
    <glyph glyph-name="section" unicode="&#xa7;" horiz-adv-x="1040" 
d="M817 281q94 -88 94 -211q0 -129 -100 -214t-264 -85q-315 0 -414 266l88 51q68 -217 326 -217q115 0 187.5 53t72.5 146q0 51 -25.5 93t-86 80t-101.5 57t-131 58q-74 33 -123 58.5t-103.5 67.5t-81 96.5t-26.5 121.5q0 150 143 246q-88 88 -88 207q0 127 97.5 214
t250.5 87q131 0 225.5 -62.5t139.5 -176.5l-84 -48q-76 188 -281 189q-102 0 -172.5 -55.5t-70.5 -147.5q0 -63 50 -117.5t95 -78t158 -73.5q21 -9 31 -14q74 -33 122 -59.5t101 -68.5t79.5 -96t26.5 -122q0 -149 -135 -245zM233 702q0 -92 71 -149t200 -107
q162 -61 233 -104q111 70 111 184q0 92 -68.5 147.5t-201.5 110.5q-152 59 -228 105q-117 -70 -117 -187z" />
    <glyph glyph-name="dieresis" unicode="&#xa8;" horiz-adv-x="600" 
d="M117 1182q-33 0 -54.5 21.5t-21.5 51.5q0 33 21.5 54.5t54.5 21.5q31 0 52 -21.5t21 -54.5q0 -31 -21 -52t-52 -21zM485 1182q-33 0 -54 21.5t-21 51.5q0 33 21.5 54.5t53.5 21.5q31 0 52.5 -21.5t21.5 -54.5q0 -31 -21.5 -52t-52.5 -21z" />
    <glyph glyph-name="copyright" unicode="&#xa9;" horiz-adv-x="1673" 
d="M837.5 -23q-307.5 0 -524.5 216.5t-217 523.5t217 523t524.5 216t524.5 -216t217 -523t-217 -523.5t-524.5 -216.5zM837.5 27q284.5 0 485.5 201.5t201 488.5t-201 488.5t-485.5 201.5t-486 -201.5t-201.5 -488.5t201.5 -488.5t486 -201.5zM844 324q-170 0 -284 113.5
t-114 279.5t114 279.5t284 113.5q109 0 196.5 -51t137.5 -139l-86 -50q-33 68 -100.5 106t-147.5 38q-129 0 -212 -87t-83 -210t83 -210t212 -87q82 0 149.5 38t98.5 107l88 -51q-49 -88 -138 -139t-198 -51z" />
    <glyph glyph-name="guillemotleft" unicode="&#xab;" horiz-adv-x="960" 
d="M510 987l-219 -354l219 -354h-127l-219 354l219 354h127zM797 987l-217 -354l217 -354h-127l-217 354l217 354h127z" />
    <glyph glyph-name="logicalnot" unicode="&#xac;" horiz-adv-x="1064" 
d="M129 782h807v-354h-105v254h-702v100z" />
    <glyph glyph-name="registered" unicode="&#xae;" horiz-adv-x="1673" 
d="M837.5 1456q307.5 0 524.5 -216t217 -523t-217 -523.5t-524.5 -216.5t-524.5 216.5t-217 523.5t217 523t524.5 216zM837.5 27q284.5 0 485.5 201.5t201 488.5t-201 488.5t-485.5 201.5t-486 -201.5t-201.5 -488.5t201.5 -488.5t486 -201.5zM1124 858q0 -168 -153 -217
l172 -303h-109l-160 285h-28h-129v-285h-99v758h228q135 0 206.5 -70t71.5 -168zM717 717h133q176 0 176 141q0 66 -45 104.5t-131 38.5h-133v-284z" />
    <glyph glyph-name="macron" unicode="&#xaf;" horiz-adv-x="600" 
d="M41 1202v90h518v-90h-518z" />
    <glyph glyph-name="degree" unicode="&#xb0;" horiz-adv-x="790" 
d="M395 1059q-131 0 -219 87t-88 212t88 213t219 88t219 -88t88 -213q0 -127 -87 -213t-220 -86zM395 1153q90 0 147.5 58.5t57.5 146.5t-58.5 147.5t-146.5 59.5t-146.5 -59.5t-58.5 -147.5q0 -86 58.5 -145.5t146.5 -59.5z" />
    <glyph glyph-name="plusminus" unicode="&#xb1;" horiz-adv-x="1091" 
d="M596 897h367v-100h-367v-346h-100v346h-367v100h367v346h100v-346zM129 190v101h834v-101h-834z" />
    <glyph glyph-name="acute" unicode="&#xb4;" horiz-adv-x="368" 
d="M41 1167h100l187 260h-123z" />
    <glyph glyph-name="uni00B5" unicode="&#xb5;" horiz-adv-x="1243" 
d="M1108 100h68v-100h-78q-82 0 -130 50t-48 134v6q-113 -213 -365 -213q-199 0 -295 138v-525h-102v1434h102v-637q0 -143 80 -227t223 -84q158 0 257.5 104.5t99.5 302.5v541h104v-840q0 -39 22.5 -61.5t61.5 -22.5z" />
    <glyph glyph-name="paragraph" unicode="&#xb6;" horiz-adv-x="1167" 
d="M1079 1434v-97h-123v-1747h-102v1747h-268v-1747h-101v1051q-166 0 -281.5 116.5t-115.5 280.5t115.5 280t281.5 116h594z" />
    <glyph glyph-name="periodcentered" unicode="&#xb7;" horiz-adv-x="436" 
d="M219 614q-39 0 -65.5 27t-26.5 65.5t26.5 65.5t65.5 27t65.5 -27t26.5 -65.5t-26.5 -65.5t-65.5 -27z" />
    <glyph glyph-name="cedilla" unicode="&#xb8;" horiz-adv-x="466" 
d="M246 -115q82 -10 134 -50t52 -103q0 -195 -399 -164v84q152 -14 230.5 7.5t78.5 72.5q0 88 -188 88v180h92v-115z" />
    <glyph glyph-name="guillemotright" unicode="&#xbb;" horiz-adv-x="960" 
d="M291 987l217 -354l-217 -354h-127l217 354l-217 354h127zM578 987l219 -354l-219 -354h-127l219 354l-219 354h127z" />
    <glyph glyph-name="onequarter" unicode="&#xbc;" horiz-adv-x="1697" 
d="M356 614h-98v709l-205 -68l-26 86l252 93h77v-820zM1104 1434h96l-833 -1434h-95zM1649 256v-92h-111v-164h-98v164h-436v92l307 563h106l-307 -563h330v213h98v-213h111z" />
    <glyph glyph-name="onehalf" unicode="&#xbd;" horiz-adv-x="1669" 
d="M356 614h-98v709l-205 -68l-26 86l252 93h77v-820zM1104 1434h96l-833 -1434h-95zM1184 94h418v-94h-564v80l359 334q90 80 90 184q0 66 -45 109t-125 43q-143 0 -195 -136l-82 45q33 86 105 135.5t172 49.5q121 0 194.5 -71t73.5 -175q0 -135 -121 -248z" />
    <glyph glyph-name="threequarters" unicode="&#xbe;" horiz-adv-x="1908" 
d="M631 850q0 -115 -79 -187.5t-212 -72.5q-207 0 -283 166l82 47q53 -119 201 -119q94 0 143 46t49 120t-51 121t-141 47h-8l-47 72l198 249h-401v95h516v-95l-197 -243q109 -14 169.5 -81t60.5 -165zM1315 1434h96l-833 -1434h-95zM1860 256v-92h-111v-164h-98v164h-437
v92l308 563h106l-307 -563h330v213h98v-213h111z" />
    <glyph glyph-name="questiondown" unicode="&#xbf;" horiz-adv-x="1085" 
d="M579.5 1044q38.5 0 65.5 -26.5t27 -65.5t-27 -65.5t-65.5 -26.5t-65.5 26.5t-27 65.5t27 65.5t65.5 26.5zM635 655q0 -100 -41 -185t-99.5 -146.5t-115.5 -119t-98 -126t-41 -141.5q0 -127 84 -196t227 -69q123 0 212 56.5t122 160.5l92 -51q-45 -131 -162 -200.5
t-264 -69.5q-180 0 -301 97t-121 272q0 86 41 161.5t99.5 136t116.5 120t99 137t41 163.5h109z" />
    <glyph glyph-name="Agrave" unicode="&#xc0;" horiz-adv-x="1288" 
d="M743 1577h-98l-188 260h123zM1143 0l-139 365h-719l-140 -365h-114l557 1434h114l555 -1434h-114zM326 467h639l-320 833z" />
    <glyph glyph-name="Aacute" unicode="&#xc1;" horiz-adv-x="1288" 
d="M846 1837l-187 -260h-100l164 260h123zM1143 0l-139 365h-719l-140 -365h-114l557 1434h114l555 -1434h-114zM326 467h639l-320 833z" />
    <glyph glyph-name="Acircumflex" unicode="&#xc2;" horiz-adv-x="1288" 
d="M645 1772l-166 -195h-117l222 260h121l221 -260h-117zM1143 0l-139 365h-719l-140 -365h-114l557 1434h114l555 -1434h-114zM326 467h639l-320 833z" />
    <glyph glyph-name="Atilde" unicode="&#xc3;" horiz-adv-x="1288" 
d="M641 1661q-86 78 -135 67.5t-49 -124.5h-90q0 113 41 169t105.5 50t135.5 -68q184 -158 185 57h90q0 -166 -88.5 -206.5t-194.5 55.5zM1143 0l-139 365h-719l-140 -365h-114l557 1434h114l555 -1434h-114zM326 467h639l-320 833z" />
    <glyph glyph-name="Adieresis" unicode="&#xc4;" horiz-adv-x="1288" 
d="M461 1591q-33 0 -54.5 21.5t-21.5 52.5q0 33 21.5 54.5t54.5 21.5q31 0 52.5 -21.5t21.5 -54.5q0 -31 -21.5 -52.5t-52.5 -21.5zM829 1591q-33 0 -54 21.5t-21 52.5q0 33 21.5 54.5t53.5 21.5q31 0 52.5 -21.5t21.5 -54.5q0 -31 -21.5 -52.5t-52.5 -21.5zM1143 0
l-139 365h-719l-140 -365h-114l557 1434h114l555 -1434h-114zM326 467h639l-320 833z" />
    <glyph glyph-name="Aring" unicode="&#xc5;" horiz-adv-x="1288" 
d="M1143 0l-139 365h-719l-140 -365h-114l538 1384q-63 20 -99 70.5t-36 116.5q0 86 58.5 142t150.5 56q94 0 152.5 -56t58.5 -142q0 -66 -36 -116t-97 -71l536 -1384h-114zM522 1571q0 -51 33 -84t88 -33q57 0 91 33t34 84t-34 84t-91 33q-55 0 -88 -33t-33 -84zM326 467
h639l-320 833z" />
    <glyph glyph-name="AE" unicode="&#xc6;" horiz-adv-x="1787" 
d="M1030 102h668v-102h-778v375h-560l-229 -375h-125l879 1434h803v-103h-658v-557h621v-102h-621v-570zM422 477h498v815z" />
    <glyph glyph-name="Ccedilla" unicode="&#xc7;" horiz-adv-x="1538" 
d="M1460 328q-84 -152 -235.5 -245t-337.5 -103v-95q82 -10 134 -50t52 -103q0 -195 -399 -164v84q152 -14 230.5 7.5t78.5 72.5q0 88 -188 88v160q-305 16 -502 227t-197 510q0 311 211 525t535 214q197 0 360.5 -93t253.5 -251l-96 -55q-72 133 -211 214t-307 81
q-279 0 -458 -183.5t-179 -451.5t179 -451.5t458 -183.5q168 0 309 82t213 219z" />
    <glyph glyph-name="Egrave" unicode="&#xc8;" horiz-adv-x="1091" 
d="M684 1577h-98l-189 260h123zM287 102h717v-102h-826v1434h815v-103h-706v-557h655v-102h-655v-570z" />
    <glyph glyph-name="Eacute" unicode="&#xc9;" horiz-adv-x="1091" 
d="M786 1837l-186 -260h-100l164 260h122zM287 102h717v-102h-826v1434h815v-103h-706v-557h655v-102h-655v-570z" />
    <glyph glyph-name="Ecircumflex" unicode="&#xca;" horiz-adv-x="1091" 
d="M586 1772l-166 -195h-117l221 260h121l221 -260h-116zM287 102h717v-102h-826v1434h815v-103h-706v-557h655v-102h-655v-570z" />
    <glyph glyph-name="Edieresis" unicode="&#xcb;" horiz-adv-x="1091" 
d="M401 1591q-33 0 -54 21.5t-21 52.5q0 33 21.5 54.5t53.5 21.5q31 0 52.5 -21.5t21.5 -54.5q0 -31 -21.5 -52.5t-52.5 -21.5zM770 1591q-33 0 -54.5 21.5t-21.5 52.5q0 33 21.5 54.5t54.5 21.5q31 0 52.5 -21.5t21.5 -54.5q0 -31 -21.5 -52.5t-52.5 -21.5zM287 102h717
v-102h-826v1434h815v-103h-706v-557h655v-102h-655v-570z" />
    <glyph glyph-name="Igrave" unicode="&#xcc;" horiz-adv-x="464" 
d="M330 1577l-164 260h-123l188 -260h99zM178 1434h109v-1434h-109v1434z" />
    <glyph glyph-name="Iacute" unicode="&#xcd;" horiz-adv-x="464" 
d="M145 1577h101l186 260h-123zM178 1434h109v-1434h-109v1434z" />
    <glyph glyph-name="Icircumflex" unicode="&#xce;" horiz-adv-x="464" 
d="M291 1837l221 -260h-117l-164 195l-165 -195h-117l221 260h121zM178 0v1434h109v-1434h-109z" />
    <glyph glyph-name="Idieresis" unicode="&#xcf;" horiz-adv-x="464" 
d="M47 1591q-33 0 -54.5 21.5t-21.5 52.5q0 33 21.5 54.5t54.5 21.5q31 0 52.5 -21.5t21.5 -54.5q0 -31 -21.5 -52.5t-52.5 -21.5zM416 1591q-33 0 -54.5 21.5t-21.5 52.5q0 33 21.5 54.5t54.5 21.5q31 0 52 -21.5t21 -54.5q0 -31 -21 -52.5t-52 -21.5zM178 1434h109v-1434
h-109v1434z" />
    <glyph glyph-name="Eth" unicode="&#xd0;" horiz-adv-x="1529" 
d="M758 1434q293 0 484.5 -208t191.5 -509t-191.5 -509t-484.5 -208h-539v668h-137v98h137v668h539zM758 102q250 0 409.5 177.5t159.5 437.5t-159.5 437t-409.5 177h-430v-565h491v-98h-491v-566h430z" />
    <glyph glyph-name="Ntilde" unicode="&#xd1;" horiz-adv-x="1406" 
d="M418 1604q0 113 41 169t105.5 50t135.5 -68q184 -158 185 57h90q0 -166 -88 -206.5t-195 55.5q-86 78 -135 67.5t-49 -124.5h-90zM1120 1434h109v-1434h-96l-846 1233v-1233h-109v1434h94l848 -1233v1233z" />
    <glyph glyph-name="Ograve" unicode="&#xd2;" horiz-adv-x="1671" 
d="M934 1577l-164 260h-123l189 -260h98zM835.5 -23q-309.5 0 -524.5 216.5t-215 523.5t215 523t524.5 216t524.5 -216t215 -523t-215 -523.5t-524.5 -216.5zM835.5 82q264.5 0 447.5 185.5t183 449.5t-183 449.5t-447.5 185.5t-447.5 -185.5t-183 -449.5t183 -449.5
t447.5 -185.5z" />
    <glyph glyph-name="Oacute" unicode="&#xd3;" horiz-adv-x="1671" 
d="M750 1577h100l186 260h-123zM835.5 -23q-309.5 0 -524.5 216.5t-215 523.5t215 523t524.5 216t524.5 -216t215 -523t-215 -523.5t-524.5 -216.5zM835.5 82q264.5 0 447.5 185.5t183 449.5t-183 449.5t-447.5 185.5t-447.5 -185.5t-183 -449.5t183 -449.5t447.5 -185.5z
" />
    <glyph glyph-name="Ocircumflex" unicode="&#xd4;" horiz-adv-x="1671" 
d="M836 1772l-166 -195h-117l221 260h121l221 -260h-117zM835.5 1456q309.5 0 524.5 -216t215 -523t-215 -523.5t-524.5 -216.5t-524.5 216.5t-215 523.5t215 523t524.5 216zM835.5 82q264.5 0 447.5 185.5t183 449.5t-183 449.5t-447.5 185.5t-447.5 -185.5t-183 -449.5
t183 -449.5t447.5 -185.5z" />
    <glyph glyph-name="Otilde" unicode="&#xd5;" horiz-adv-x="1671" 
d="M557 1604q0 113 41 169t105.5 50t136.5 -68q184 -158 184 57h90q0 -166 -88 -206.5t-195 55.5q-86 78 -135 67.5t-49 -124.5h-90zM835.5 -23q-309.5 0 -524.5 216.5t-215 523.5t215 523t524.5 216t524.5 -216t215 -523t-215 -523.5t-524.5 -216.5zM835.5 82
q264.5 0 447.5 185.5t183 449.5t-183 449.5t-447.5 185.5t-447.5 -185.5t-183 -449.5t183 -449.5t447.5 -185.5z" />
    <glyph glyph-name="Odieresis" unicode="&#xd6;" horiz-adv-x="1671" 
d="M651 1591q-33 0 -54.5 21.5t-21.5 52.5q0 33 21.5 54.5t54.5 21.5q31 0 52.5 -21.5t21.5 -54.5q0 -31 -21.5 -52.5t-52.5 -21.5zM1020 1591q-33 0 -54.5 21.5t-21.5 52.5q0 33 21.5 54.5t54.5 21.5q31 0 52.5 -21.5t21.5 -54.5q0 -31 -21.5 -52.5t-52.5 -21.5zM835.5 -23
q-309.5 0 -524.5 216.5t-215 523.5t215 523t524.5 216t524.5 -216t215 -523t-215 -523.5t-524.5 -216.5zM835.5 82q264.5 0 447.5 185.5t183 449.5t-183 449.5t-447.5 185.5t-447.5 -185.5t-183 -449.5t183 -449.5t447.5 -185.5z" />
    <glyph glyph-name="multiply" unicode="&#xd7;" horiz-adv-x="960" 
d="M844 1012l-295 -295l295 -295l-72 -66l-293 293l-293 -293l-69 66l295 295l-295 295l69 65l293 -293l293 293z" />
    <glyph glyph-name="Oslash" unicode="&#xd8;" horiz-adv-x="1691" 
d="M1370 1251q225 -219 225 -534q0 -307 -215 -523.5t-524 -216.5q-254 0 -448 150l-109 -127l-76 43l119 139q-225 219 -225 535q0 307 215 523t524 216q252 0 451 -149l108 127l74 -43zM225 717q0 -264 187 -455l825 963q-166 127 -381 127q-264 0 -447.5 -185.5
t-183.5 -449.5zM856 82q264 0 447.5 185.5t183.5 449.5q0 266 -187 452l-823 -962q168 -125 379 -125z" />
    <glyph glyph-name="Ugrave" unicode="&#xd9;" horiz-adv-x="1366" 
d="M778 1577l-164 260h-122l188 -260h98zM682 -23q-238 0 -381 137.5t-143 364.5v955h108v-955q0 -180 108.5 -288.5t307.5 -108.5t308.5 108.5t109.5 288.5v955h108v-955q0 -227 -144 -364.5t-382 -137.5z" />
    <glyph glyph-name="Uacute" unicode="&#xda;" horiz-adv-x="1366" 
d="M594 1577h100l187 260h-123zM682 -23q-238 0 -381 137.5t-143 364.5v955h108v-955q0 -180 108.5 -288.5t307.5 -108.5t308.5 108.5t109.5 288.5v955h108v-955q0 -227 -144 -364.5t-382 -137.5z" />
    <glyph glyph-name="Ucircumflex" unicode="&#xdb;" horiz-adv-x="1366" 
d="M680 1772l-166 -195h-117l221 260h121l222 -260h-117zM1100 1434h108v-955q0 -227 -144 -364.5t-382 -137.5t-381 137.5t-143 364.5v955h108v-955q0 -180 108.5 -288.5t307.5 -108.5t308.5 108.5t109.5 288.5v955z" />
    <glyph glyph-name="Udieresis" unicode="&#xdc;" horiz-adv-x="1366" 
d="M496 1591q-33 0 -54.5 21.5t-21.5 52.5q0 33 21.5 54.5t54.5 21.5q31 0 52 -21.5t21 -54.5q0 -31 -21 -52.5t-52 -21.5zM864 1591q-33 0 -54.5 21.5t-21.5 52.5q0 33 21.5 54.5t54.5 21.5q31 0 52.5 -21.5t21.5 -54.5q0 -31 -21.5 -52.5t-52.5 -21.5zM682 -23
q-238 0 -381 137.5t-143 364.5v955h108v-955q0 -180 108.5 -288.5t307.5 -108.5t308.5 108.5t109.5 288.5v955h108v-955q0 -227 -144 -364.5t-382 -137.5z" />
    <glyph glyph-name="Yacute" unicode="&#xdd;" horiz-adv-x="1193" 
d="M793 1837l-187 -260h-100l164 260h123zM1174 1434l-523 -844v-590h-108v590l-523 844h123l455 -740l453 740h123z" />
    <glyph glyph-name="Thorn" unicode="&#xde;" horiz-adv-x="1202" 
d="M666 1161q193 0 319.5 -127t126.5 -317.5t-127 -317.5t-319 -127h-379v-272h-109v1434h109v-273h379zM666 375q147 0 242.5 97t95.5 245q0 150 -95.5 246t-242.5 96h-379v-684h379z" />
    <glyph glyph-name="germandbls" unicode="&#xdf;" horiz-adv-x="1056" 
d="M594 -8v94q145 -8 228 44t83 159q0 68 -47 142.5t-103.5 128.5t-103.5 122t-47 125q0 43 29 87t64.5 77t64.5 80t29 92q0 96 -66 155.5t-176 59.5q-127 0 -208 -77t-81 -224v-1057h-102v1057q0 186 108.5 292.5t282.5 106.5q162 0 254 -90t92 -223q0 -55 -29.5 -108.5
t-64.5 -87.5t-64.5 -71.5t-29.5 -68.5q0 -37 30.5 -81t75.5 -89t90 -95t76 -117t31 -136q0 -143 -110.5 -225t-305.5 -72z" />
    <glyph glyph-name="agrave" unicode="&#xe0;" horiz-adv-x="1320" 
d="M727 1167h-98l-189 260h123zM1059 1024h104v-1024h-104v231q-66 -119 -180.5 -186.5t-260.5 -67.5q-219 0 -374.5 155t-155.5 380t155.5 380t374.5 155q145 0 260 -68t181 -186v231zM626.5 76q182.5 0 307.5 127t125 309t-125 309t-307.5 127t-308 -127t-125.5 -309
t125.5 -309t308 -127z" />
    <glyph glyph-name="aacute" unicode="&#xe1;" horiz-adv-x="1320" 
d="M829 1427l-186 -260h-100l164 260h122zM1059 1024h104v-1024h-104v231q-66 -119 -180.5 -186.5t-260.5 -67.5q-219 0 -374.5 155t-155.5 380t155.5 380t374.5 155q145 0 260 -68t181 -186v231zM626.5 76q182.5 0 307.5 127t125 309t-125 309t-307.5 127t-308 -127
t-125.5 -309t125.5 -309t308 -127z" />
    <glyph glyph-name="acircumflex" unicode="&#xe2;" horiz-adv-x="1320" 
d="M629 1362l-166 -195h-117l221 260h121l221 -260h-116zM1059 1024h104v-1024h-104v231q-66 -119 -180.5 -186.5t-260.5 -67.5q-219 0 -374.5 155t-155.5 380t155.5 380t374.5 155q145 0 260 -68t181 -186v231zM626.5 76q182.5 0 307.5 127t125 309t-125 309t-307.5 127
t-308 -127t-125.5 -309t125.5 -309t308 -127z" />
    <glyph glyph-name="atilde" unicode="&#xe3;" horiz-adv-x="1320" 
d="M625 1251q-86 78 -135.5 68t-49.5 -125h-90q0 113 41 169t105.5 50t136.5 -67q184 -158 184 57h90q0 -166 -88 -207t-194 55zM1059 1024h104v-1024h-104v231q-66 -119 -180.5 -186.5t-260.5 -67.5q-219 0 -374.5 155t-155.5 380t155.5 380t374.5 155q145 0 260 -68
t181 -186v231zM626.5 76q182.5 0 307.5 127t125 309t-125 309t-307.5 127t-308 -127t-125.5 -309t125.5 -309t308 -127z" />
    <glyph glyph-name="adieresis" unicode="&#xe4;" horiz-adv-x="1320" 
d="M444 1182q-33 0 -54 21.5t-21 51.5q0 33 21.5 54.5t53.5 21.5q31 0 52.5 -21.5t21.5 -54.5q0 -31 -21.5 -52t-52.5 -21zM813 1182q-33 0 -54.5 21.5t-21.5 51.5q0 33 21.5 54.5t54.5 21.5q31 0 52.5 -21.5t21.5 -54.5q0 -31 -21.5 -52t-52.5 -21zM1059 1024h104v-1024
h-104v231q-66 -119 -180.5 -186.5t-260.5 -67.5q-219 0 -374.5 155t-155.5 380t155.5 380t374.5 155q145 0 260 -68t181 -186v231zM626.5 76q182.5 0 307.5 127t125 309t-125 309t-307.5 127t-308 -127t-125.5 -309t125.5 -309t308 -127z" />
    <glyph glyph-name="aring" unicode="&#xe5;" horiz-adv-x="1320" 
d="M629 1133q-92 0 -150.5 56t-58.5 142t58.5 142.5t150.5 56.5q94 0 152.5 -56.5t58.5 -142.5t-58.5 -142t-152.5 -56zM629 1448q-55 0 -88 -33t-33 -84t32.5 -84t88.5 -33q57 0 91 33t34 84t-34 84t-91 33zM1059 1024h104v-1024h-104v231q-66 -119 -180.5 -186.5
t-260.5 -67.5q-219 0 -374.5 155t-155.5 380t155.5 380t374.5 155q145 0 260 -68t181 -186v231zM626.5 76q182.5 0 307.5 127t125 309t-125 309t-307.5 127t-308 -127t-125.5 -309t125.5 -309t308 -127z" />
    <glyph glyph-name="ae" unicode="&#xe6;" horiz-adv-x="2172" 
d="M1591 1047q231 0 365.5 -158t134.5 -381q0 -8 -1 -24.5t-1 -24.5h-924q16 -174 133 -278.5t293 -104.5q127 0 221.5 51t141.5 135l90 -53q-63 -106 -179 -169t-261 -63q-154 0 -267.5 68t-175.5 188v-233h-102v231q-66 -119 -180.5 -186.5t-260.5 -67.5
q-219 0 -374.5 155t-155.5 380t155.5 380t374.5 155q145 0 260 -68t181 -186v231h102v-238q59 121 169.5 191t260.5 70zM626.5 76q182.5 0 307.5 127t125 309t-125 309t-307.5 127t-308 -127t-125.5 -309t125.5 -309t308 -127zM1587 948q-178 0 -291.5 -108.5t-130.5 -280.5
h822q-16 182 -128 285.5t-272 103.5z" />
    <glyph glyph-name="ccedilla" unicode="&#xe7;" horiz-adv-x="1148" 
d="M1081 238q-57 -109 -165.5 -178.5t-243.5 -79.5v-95q82 -10 134 -50t52 -103q0 -195 -399 -164v84q152 -14 230.5 7.5t78.5 72.5q0 88 -188 88v160q-213 16 -352.5 166.5t-139.5 365.5q0 227 153.5 381t385.5 154q150 0 270.5 -71t175.5 -192l-84 -49q-45 98 -142 155.5
t-220 57.5q-184 0 -309 -126t-125 -310t124.5 -310t309.5 -126q123 0 220 57t148 156z" />
    <glyph glyph-name="egrave" unicode="&#xe8;" horiz-adv-x="1206" 
d="M705 1167h-99l-188 260h123zM618 1047q225 0 365.5 -160t140.5 -379q0 -8 -1 -24.5t-1 -24.5h-927q18 -172 138 -277.5t296 -105.5q123 0 215 51t139 135l90 -53q-63 -106 -180 -169t-266 -63q-236 0 -387.5 151t-151.5 384q0 229 148.5 382t381.5 153zM618 948
q-174 0 -290.5 -108.5t-132.5 -280.5h823q-16 182 -130 285.5t-270 103.5z" />
    <glyph glyph-name="eacute" unicode="&#xe9;" horiz-adv-x="1206" 
d="M807 1427l-186 -260h-101l164 260h123zM618 1047q225 0 365.5 -160t140.5 -379q0 -8 -1 -24.5t-1 -24.5h-927q18 -172 138 -277.5t296 -105.5q123 0 215 51t139 135l90 -53q-63 -106 -180 -169t-266 -63q-236 0 -387.5 151t-151.5 384q0 229 148.5 382t381.5 153z
M618 948q-174 0 -290.5 -108.5t-132.5 -280.5h823q-16 182 -130 285.5t-270 103.5z" />
    <glyph glyph-name="ecircumflex" unicode="&#xea;" horiz-adv-x="1206" 
d="M606 1362l-166 -195h-116l221 260h121l221 -260h-117zM618 1047q225 0 365.5 -160t140.5 -379q0 -8 -1 -24.5t-1 -24.5h-927q18 -172 138 -277.5t296 -105.5q123 0 215 51t139 135l90 -53q-63 -106 -180 -169t-266 -63q-236 0 -387.5 151t-151.5 384q0 229 148.5 382
t381.5 153zM618 948q-174 0 -290.5 -108.5t-132.5 -280.5h823q-16 182 -130 285.5t-270 103.5z" />
    <glyph glyph-name="edieresis" unicode="&#xeb;" horiz-adv-x="1206" 
d="M422 1182q-33 0 -54.5 21.5t-21.5 51.5q0 33 21.5 54.5t54.5 21.5q31 0 52.5 -21.5t21.5 -54.5q0 -31 -21.5 -52t-52.5 -21zM791 1182q-33 0 -54.5 21.5t-21.5 51.5q0 33 21.5 54.5t54.5 21.5q31 0 52 -21.5t21 -54.5q0 -31 -21 -52t-52 -21zM618 1047q225 0 365.5 -160
t140.5 -379q0 -8 -1 -24.5t-1 -24.5h-927q18 -172 138 -277.5t296 -105.5q123 0 215 51t139 135l90 -53q-63 -106 -180 -169t-266 -63q-236 0 -387.5 151t-151.5 384q0 229 148.5 382t381.5 153zM618 948q-174 0 -290.5 -108.5t-132.5 -280.5h823q-16 182 -130 285.5
t-270 103.5z" />
    <glyph glyph-name="igrave" unicode="&#xec;" horiz-adv-x="417" 
d="M262 1167l-112 260h-123l135 -260h100zM260 0h-102v1024h102v-1024z" />
    <glyph glyph-name="iacute" unicode="&#xed;" horiz-adv-x="417" 
d="M154 1167h100l137 260h-125zM158 0v1024h102v-1024h-102z" />
    <glyph glyph-name="icircumflex" unicode="&#xee;" horiz-adv-x="417" 
d="M270 1427l172 -260h-116l-117 176l-117 -176h-117l172 260h123zM158 0v1024h102v-1024h-102z" />
    <glyph glyph-name="idieresis" unicode="&#xef;" horiz-adv-x="417" 
d="M72 1182q-31 0 -52.5 21.5t-21.5 51.5q0 33 21.5 54.5t52.5 21.5q33 0 54 -21.5t21 -54.5q0 -31 -21 -52t-54 -21zM346 1182q-33 0 -54.5 21.5t-21.5 51.5q0 33 21.5 54.5t54.5 21.5q31 0 52.5 -21.5t21.5 -54.5q0 -31 -21.5 -52t-52.5 -21zM158 0v1024h102v-1024h-102z
" />
    <glyph glyph-name="eth" unicode="&#xf0;" horiz-adv-x="1202" 
d="M1020 758q94 -127 94 -287q0 -219 -150.5 -356.5t-361.5 -137.5t-362.5 137.5t-151.5 356.5q0 211 148.5 346t349.5 135q113 0 202 -45l-210 281l-244 -150v95l196 120l-135 181h121l96 -129l228 139v-94l-178 -111zM602 76q172 0 290 110.5t118 284.5q0 139 -68 229
q-117 154 -340 154q-176 0 -292.5 -107.5t-116.5 -275.5q0 -174 118.5 -284.5t290.5 -110.5z" />
    <glyph glyph-name="ntilde" unicode="&#xf1;" 
d="M594 1251q-86 78 -135 68t-49 -125h-91q0 113 41 169t105.5 50t136.5 -67q184 -158 184 57h91q0 -166 -88.5 -207t-194.5 55zM627 1047q182 0 289.5 -112t107.5 -298v-637h-104v637q0 143 -79 227t-223 84q-158 0 -258 -104.5t-100 -302.5v-541h-102v1024h102v-195
q111 218 367 218z" />
    <glyph glyph-name="ograve" unicode="&#xf2;" horiz-adv-x="1251" 
d="M719 1167l-164 260h-123l189 -260h98zM627 -23q-225 0 -382 155t-157 380t156.5 380t382.5 155q223 0 379.5 -155t156.5 -380t-156.5 -380t-379.5 -155zM626.5 76q182.5 0 307.5 127t125 309t-125 309t-307.5 127t-308 -127t-125.5 -309t125.5 -309t308 -127z" />
    <glyph glyph-name="oacute" unicode="&#xf3;" horiz-adv-x="1251" 
d="M535 1167h100l186 260h-123zM627 -23q-225 0 -382 155t-157 380t156.5 380t382.5 155q223 0 379.5 -155t156.5 -380t-156.5 -380t-379.5 -155zM626.5 76q182.5 0 307.5 127t125 309t-125 309t-307.5 127t-308 -127t-125.5 -309t125.5 -309t308 -127z" />
    <glyph glyph-name="ocircumflex" unicode="&#xf4;" horiz-adv-x="1251" 
d="M621 1362l-166 -195h-117l221 260h121l221 -260h-117zM627 1047q223 0 379.5 -155t156.5 -380t-156.5 -380t-379.5 -155q-225 0 -382 155t-157 380t157 380t382 155zM626.5 76q182.5 0 307.5 127t125 309t-125 309t-307.5 127t-308 -127t-125.5 -309t125.5 -309t308 -127
z" />
    <glyph glyph-name="otilde" unicode="&#xf5;" horiz-adv-x="1251" 
d="M342 1194q0 113 41 169t105.5 50t136.5 -67q184 -158 184 57h90q0 -166 -88 -207t-195 55q-86 78 -135 68t-49 -125h-90zM627 -23q-225 0 -382 155t-157 380t156.5 380t382.5 155q223 0 379.5 -155t156.5 -380t-156.5 -380t-379.5 -155zM626.5 76q182.5 0 307.5 127
t125 309t-125 309t-307.5 127t-308 -127t-125.5 -309t125.5 -309t308 -127z" />
    <glyph glyph-name="odieresis" unicode="&#xf6;" horiz-adv-x="1251" 
d="M436 1182q-33 0 -54.5 21.5t-21.5 51.5q0 33 21.5 54.5t54.5 21.5q31 0 52.5 -21.5t21.5 -54.5q0 -31 -21.5 -52t-52.5 -21zM805 1182q-33 0 -54.5 21.5t-21.5 51.5q0 33 21.5 54.5t54.5 21.5q31 0 52.5 -21.5t21.5 -54.5q0 -31 -21.5 -52t-52.5 -21zM627 -23
q-225 0 -382 155t-157 380t156.5 380t382.5 155q223 0 379.5 -155t156.5 -380t-156.5 -380t-379.5 -155zM626.5 76q182.5 0 307.5 127t125 309t-125 309t-307.5 127t-308 -127t-125.5 -309t125.5 -309t308 -127z" />
    <glyph glyph-name="divide" unicode="&#xf7;" horiz-adv-x="1187" 
d="M594 1008q-39 0 -65.5 26.5t-26.5 65.5t26.5 65.5t65.5 26.5t65.5 -26.5t26.5 -65.5t-26.5 -65.5t-65.5 -26.5zM129 668v98h930v-98h-930zM594 242q-39 0 -65.5 26.5t-26.5 65.5t26.5 65.5t65.5 26.5t65.5 -26.5t26.5 -65.5t-26.5 -65.5t-65.5 -26.5z" />
    <glyph glyph-name="oslash" unicode="&#xf8;" horiz-adv-x="1251" 
d="M1014 887q150 -156 149 -375q0 -225 -156.5 -380t-379.5 -155q-188 0 -334 113l-86 -96l-64 37l97 106q-152 152 -152 375q0 225 156.5 380t382.5 155q186 0 331 -113l86 96l66 -37zM193 512q0 -174 114 -299l584 647q-115 88 -264 88q-182 0 -308 -127t-126 -309z
M627 76q182 0 307 127t125 309q0 174 -115 299l-584 -647q117 -88 267 -88z" />
    <glyph glyph-name="ugrave" unicode="&#xf9;" 
d="M659 1167h-98l-188 260h123zM895 1024h102v-1024h-102v195q-111 -217 -367 -218q-182 0 -289.5 112t-107.5 298v637h105v-637q0 -143 78.5 -227t222.5 -84q158 0 258 104.5t100 302.5v541z" />
    <glyph glyph-name="uacute" unicode="&#xfa;" 
d="M762 1427l-187 -260h-100l164 260h123zM895 1024h102v-1024h-102v195q-111 -217 -367 -218q-182 0 -289.5 112t-107.5 298v637h105v-637q0 -143 78.5 -227t222.5 -84q158 0 258 104.5t100 302.5v541z" />
    <glyph glyph-name="ucircumflex" unicode="&#xfb;" 
d="M561 1362l-166 -195h-116l221 260h121l221 -260h-117zM895 1024h102v-1024h-102v195q-111 -217 -367 -218q-182 0 -289.5 112t-107.5 298v637h105v-637q0 -143 78.5 -227t222.5 -84q158 0 258 104.5t100 302.5v541z" />
    <glyph glyph-name="udieresis" unicode="&#xfc;" 
d="M377 1182q-33 0 -54.5 21.5t-21.5 51.5q0 33 21.5 54.5t54.5 21.5q31 0 52.5 -21.5t21.5 -54.5q0 -31 -21.5 -52t-52.5 -21zM745 1182q-33 0 -54 21.5t-21 51.5q0 33 21.5 54.5t53.5 21.5q31 0 52.5 -21.5t21.5 -54.5q0 -31 -21.5 -52t-52.5 -21zM895 1024h102v-1024
h-102v195q-111 -217 -367 -218q-182 0 -289.5 112t-107.5 298v637h105v-637q0 -143 78.5 -227t222.5 -84q158 0 258 104.5t100 302.5v541z" />
    <glyph glyph-name="yacute" unicode="&#xfd;" horiz-adv-x="1044" 
d="M729 1427l-186 -260h-101l164 260h123zM907 1024h111l-443 -1118q-59 -152 -167.5 -239t-237.5 -77v97q98 -8 177 56t128 183l23 56l-471 1042h110l414 -911z" />
    <glyph glyph-name="thorn" unicode="&#xfe;" horiz-adv-x="1320" 
d="M700 1047q221 0 376 -155t155 -380t-154.5 -380t-376.5 -155q-145 0 -260.5 70t-179.5 191v-648h-102v1844h102v-648q63 121 179 191t261 70zM694.5 76q182.5 0 308 127t125.5 309t-125.5 309t-308 127t-308.5 -127t-126 -309t126 -309t308.5 -127z" />
    <glyph glyph-name="ydieresis" unicode="&#xff;" horiz-adv-x="1044" 
d="M344 1182q-33 0 -54.5 21.5t-21.5 51.5q0 33 21.5 54.5t54.5 21.5q31 0 52.5 -21.5t21.5 -54.5q0 -31 -21.5 -52t-52.5 -21zM713 1182q-33 0 -54.5 21.5t-21.5 51.5q0 33 21.5 54.5t54.5 21.5q31 0 52 -21.5t21 -54.5q0 -31 -21 -52t-52 -21zM907 1024h111l-443 -1118
q-59 -152 -167.5 -239t-237.5 -77v97q98 -8 177 56t128 183l23 56l-471 1042h110l414 -911z" />
    <glyph glyph-name="Amacron" unicode="&#x100;" horiz-adv-x="1288" 
d="M903 1702v-90h-518v90h518zM1143 0l-139 365h-719l-140 -365h-114l557 1434h114l555 -1434h-114zM326 467h639l-320 833z" />
    <glyph glyph-name="amacron" unicode="&#x101;" horiz-adv-x="1320" 
d="M887 1292v-90h-518v90h518zM1059 1024h104v-1024h-104v231q-66 -119 -180.5 -186.5t-260.5 -67.5q-219 0 -374.5 155t-155.5 380t155.5 380t374.5 155q145 0 260 -68t181 -186v231zM626.5 76q182.5 0 307.5 127t125 309t-125 309t-307.5 127t-308 -127t-125.5 -309
t125.5 -309t308 -127z" />
    <glyph glyph-name="Abreve" unicode="&#x102;" horiz-adv-x="1288" 
d="M645 1567q-125 0 -198.5 66.5t-73.5 183.5h98q0 -160 174 -160t174 160h99q0 -117 -74 -183.5t-199 -66.5zM1143 0l-139 365h-719l-140 -365h-114l557 1434h114l555 -1434h-114zM326 467h639l-320 833z" />
    <glyph glyph-name="abreve" unicode="&#x103;" horiz-adv-x="1320" 
d="M629 1157q-125 0 -199 66.5t-74 183.5h99q0 -160 174 -160t174 160h98q0 -117 -73.5 -183.5t-198.5 -66.5zM1059 1024h104v-1024h-104v231q-66 -119 -180.5 -186.5t-260.5 -67.5q-219 0 -374.5 155t-155.5 380t155.5 380t374.5 155q145 0 260 -68t181 -186v231zM626.5 76
q182.5 0 307.5 127t125 309t-125 309t-307.5 127t-308 -127t-125.5 -309t125.5 -309t308 -127z" />
    <glyph glyph-name="Aogonek" unicode="&#x104;" horiz-adv-x="1288" 
d="M1087 -268q0 -76 82 -76q47 0 88 18v-86q-43 -20 -110 -20q-76 0 -118 40t-42 107q0 133 158 285h-2l-139 365h-719l-140 -365h-114l557 1434h114l555 -1434q-170 -153 -170 -268zM326 467h639l-320 833z" />
    <glyph glyph-name="aogonek" unicode="&#x105;" horiz-adv-x="1320" 
d="M1163 0q-170 -154 -170 -268q0 -76 82 -76q45 0 88 18v-86q-47 -20 -110 -20q-76 0 -118 40t-42 107q0 137 166 305v211q-66 -119 -180.5 -186.5t-260.5 -67.5q-219 0 -374.5 155t-155.5 380t155.5 380t374.5 155q145 0 260 -68t181 -186v231h104v-1024zM626.5 76
q182.5 0 307.5 127t125 309t-125 309t-307.5 127t-308 -127t-125.5 -309t125.5 -309t308 -127z" />
    <glyph glyph-name="Cacute" unicode="&#x106;" horiz-adv-x="1538" 
d="M756 1577h100l186 260h-122zM842 -23q-324 0 -535 214.5t-211 525.5t211 525t535 214q197 0 360.5 -93t253.5 -251l-96 -55q-72 133 -211 214t-307 81q-279 0 -458 -183.5t-179 -451.5t179 -451.5t458 -183.5q168 0 309 82t213 219l96 -55q-88 -160 -253.5 -255.5
t-364.5 -95.5z" />
    <glyph glyph-name="cacute" unicode="&#x107;" horiz-adv-x="1148" 
d="M526 1167h101l186 260h-123zM627 -23q-231 0 -385 154t-154 381t153.5 381t385.5 154q150 0 270.5 -71t175.5 -192l-84 -49q-45 98 -142 155.5t-220 57.5q-184 0 -309 -126t-125 -310t124.5 -310t309.5 -126q123 0 220 57t148 156l86 -51q-61 -119 -182.5 -190
t-271.5 -71z" />
    <glyph glyph-name="Cdotaccent" unicode="&#x10a;" horiz-adv-x="1538" 
d="M842 1583q-41 0 -69 27.5t-28 68.5t28 69t69 28q39 0 66.5 -28t27.5 -69t-27.5 -68.5t-66.5 -27.5zM842 -23q-324 0 -535 214.5t-211 525.5t211 525t535 214q197 0 360.5 -93t253.5 -251l-96 -55q-72 133 -211 214t-307 81q-279 0 -458 -183.5t-179 -451.5t179 -451.5
t458 -183.5q168 0 309 82t213 219l96 -55q-88 -160 -253.5 -255.5t-364.5 -95.5z" />
    <glyph glyph-name="cdotaccent" unicode="&#x10b;" horiz-adv-x="1148" 
d="M612 1174q-41 0 -68.5 27.5t-27.5 68.5t27.5 68.5t68.5 27.5q39 0 67 -27.5t28 -68.5t-28 -68.5t-67 -27.5zM627 -23q-231 0 -385 154t-154 381t153.5 381t385.5 154q150 0 270.5 -71t175.5 -192l-84 -49q-45 98 -142 155.5t-220 57.5q-184 0 -309 -126t-125 -310
t124.5 -310t309.5 -126q123 0 220 57t148 156l86 -51q-61 -119 -182.5 -190t-271.5 -71z" />
    <glyph glyph-name="Ccaron" unicode="&#x10c;" horiz-adv-x="1538" 
d="M780 1577l-221 260h119l164 -195l164 195h118l-221 -260h-123zM1364 383l96 -55q-88 -160 -254 -255.5t-364 -95.5q-324 0 -535 214.5t-211 525.5t211 525t535 214q197 0 360.5 -93t253.5 -251l-96 -55q-72 133 -211 214t-307 81q-279 0 -458 -183.5t-179 -451.5
t179 -451.5t458 -183.5q168 0 309 82t213 219z" />
    <glyph glyph-name="ccaron" unicode="&#x10d;" horiz-adv-x="1148" 
d="M551 1167l-221 260h119l163 -194l164 194h119l-221 -260h-123zM995 289l86 -51q-61 -119 -183 -190t-271 -71q-231 0 -385 154t-154 381t153.5 381t385.5 154q150 0 270.5 -71t175.5 -192l-84 -49q-45 98 -142 155.5t-220 57.5q-184 0 -309 -126t-125 -310t124.5 -310
t309.5 -126q123 0 220 57.5t148 155.5z" />
    <glyph glyph-name="Dcaron" unicode="&#x10e;" horiz-adv-x="1488" 
d="M655 1577l-221 260h119l164 -195l164 195h118l-221 -260h-123zM717 1434q293 0 484.5 -208t191.5 -509t-191.5 -509t-484.5 -208h-539v1434h539zM717 102q250 0 409.5 177.5t159.5 437.5t-159.5 437t-409.5 177h-430v-1229h430z" />
    <glyph glyph-name="dcaron" unicode="&#x10f;" horiz-adv-x="1427" 
d="M1061 786v648h102v-1434h-102v238q-63 -121 -179 -191t-261 -70q-221 0 -376 155t-155 380t154.5 380t376.5 155q145 0 261 -70t179 -191zM1337 1434h103l-49 -349h-74zM626.5 76q182.5 0 308.5 127t126 309t-126 309t-308.5 127t-308 -127t-125.5 -309t125.5 -309
t308 -127z" />
    <glyph glyph-name="Dcroat" unicode="&#x110;" horiz-adv-x="1529" 
d="M758 1434q293 0 484.5 -208t191.5 -509t-191.5 -509t-484.5 -208h-539v668h-137v98h137v668h539zM758 102q250 0 409.5 177.5t159.5 437.5t-159.5 437t-409.5 177h-430v-565h491v-98h-491v-566h430z" />
    <glyph glyph-name="dcroat" unicode="&#x111;" horiz-adv-x="1337" 
d="M1303 1278v-86h-140v-1192h-104v233q-63 -119 -179 -187.5t-262 -68.5q-219 0 -374.5 155t-155.5 380t155.5 380t374.5 155q145 0 261 -69t180 -187v401h-412v86h412v156h104v-156h140zM626.5 76q182.5 0 307.5 127t125 309t-125 309t-307.5 127t-308 -127t-125.5 -309
t125.5 -309t308 -127z" />
    <glyph glyph-name="Emacron" unicode="&#x112;" horiz-adv-x="1091" 
d="M844 1702v-90h-518v90h518zM287 102h717v-102h-826v1434h815v-103h-706v-557h655v-102h-655v-570z" />
    <glyph glyph-name="emacron" unicode="&#x113;" horiz-adv-x="1206" 
d="M864 1292v-90h-518v90h518zM618 1047q225 0 365.5 -160t140.5 -379q0 -8 -1 -24.5t-1 -24.5h-927q18 -172 138 -277.5t296 -105.5q123 0 215 51t139 135l90 -53q-63 -106 -180 -169t-266 -63q-236 0 -387.5 151t-151.5 384q0 229 148.5 382t381.5 153zM618 948
q-174 0 -290.5 -108.5t-132.5 -280.5h823q-16 182 -130 285.5t-270 103.5z" />
    <glyph glyph-name="Edotaccent" unicode="&#x116;" horiz-adv-x="1091" 
d="M586 1583q-41 0 -69 27.5t-28 68.5t28 69t69 28q39 0 66.5 -28t27.5 -69t-27.5 -68.5t-66.5 -27.5zM287 102h717v-102h-826v1434h815v-103h-706v-557h655v-102h-655v-570z" />
    <glyph glyph-name="edotaccent" unicode="&#x117;" horiz-adv-x="1206" 
d="M606 1174q-41 0 -68.5 27.5t-27.5 68.5t27.5 68.5t68.5 27.5q39 0 66.5 -27.5t27.5 -68.5t-27.5 -68.5t-66.5 -27.5zM618 1047q225 0 365.5 -160t140.5 -379q0 -8 -1 -24.5t-1 -24.5h-927q18 -172 138 -277.5t296 -105.5q123 0 215 51t139 135l90 -53q-63 -106 -180 -169
t-266 -63q-236 0 -387.5 151t-151.5 384q0 229 148.5 382t381.5 153zM618 948q-174 0 -290.5 -108.5t-132.5 -280.5h823q-16 182 -130 285.5t-270 103.5z" />
    <glyph glyph-name="Eogonek" unicode="&#x118;" horiz-adv-x="1093" 
d="M1001 0q-170 -154 -170 -268q0 -76 84 -76q45 0 89 18v-86q-47 -20 -111 -20q-78 0 -120 40t-42 107q0 137 162 285h-715v1434h815v-103h-706v-557h655v-102h-655v-570h717v-102h-3z" />
    <glyph glyph-name="eogonek" unicode="&#x119;" horiz-adv-x="1206" 
d="M618 1047q225 0 365.5 -160t140.5 -379q0 -8 -1 -24.5t-1 -24.5h-927q18 -172 138 -277.5t296 -105.5q123 0 215 51t139 135l90 -53q-39 -61 -80 -96q-137 -154 -193.5 -239t-56.5 -142q0 -76 84 -76q45 0 88 18v-86q-47 -20 -112 -20q-76 0 -118 40t-42 107
q0 127 154 287q-76 -25 -170 -25q-236 0 -387.5 151t-151.5 384q0 229 148.5 382t381.5 153zM618 948q-174 0 -290.5 -108.5t-132.5 -280.5h823q-16 182 -130 285.5t-270 103.5z" />
    <glyph glyph-name="Ecaron" unicode="&#x11a;" horiz-adv-x="1091" 
d="M524 1577l-221 260h119l164 -195l164 195h118l-221 -260h-123zM287 102h717v-102h-826v1434h815v-103h-706v-557h655v-102h-655v-570z" />
    <glyph glyph-name="ecaron" unicode="&#x11b;" horiz-adv-x="1206" 
d="M545 1167l-221 260h118l164 -194l164 194h119l-221 -260h-123zM618 1047q225 0 365.5 -160t140.5 -379q0 -8 -1 -24.5t-1 -24.5h-927q18 -172 138 -277.5t296 -105.5q123 0 215 51t139 135l90 -53q-63 -106 -180 -169t-266 -63q-236 0 -387.5 151t-151.5 384
q0 229 148.5 382t381.5 153zM618 948q-174 0 -290.5 -108.5t-132.5 -280.5h823q-16 182 -130 285.5t-270 103.5z" />
    <glyph glyph-name="Gbreve" unicode="&#x11e;" horiz-adv-x="1636" 
d="M821 1567q-125 0 -198.5 66.5t-73.5 183.5h98q0 -160 174 -160t174 160h99q0 -117 -74 -183.5t-199 -66.5zM1542 668v-56q0 -268 -190.5 -451.5t-501.5 -183.5q-328 0 -541 214.5t-213 525.5t211 525t535 214q197 0 361.5 -94t254.5 -252l-96 -57q-72 135 -212 217
t-308 82q-279 0 -458 -183.5t-179 -451.5t180 -451.5t465 -183.5q252 0 407.5 137t174.5 346h-609v103h719z" />
    <glyph glyph-name="gbreve" unicode="&#x11f;" horiz-adv-x="1327" 
d="M645 1157q-125 0 -198.5 66.5t-73.5 183.5h98q0 -160 174 -160t174 160h99q0 -117 -74 -183.5t-199 -66.5zM1067 1024h102v-975q0 -223 -145 -352t-365 -129q-176 0 -301 65.5t-182 180.5l90 51q98 -199 393 -199q190 0 299 103.5t109 279.5v189q-63 -121 -179 -191
t-261 -70q-221 0 -376 155t-155 380t155 380t376 155q145 0 261 -70t179 -191v238zM633 76q182 0 308 127t126 309t-126 309t-308 127t-308 -127t-126 -309t126 -309t308 -127z" />
    <glyph glyph-name="Gdotaccent" unicode="&#x120;" horiz-adv-x="1636" 
d="M821 1583q-41 0 -68.5 27.5t-27.5 68.5t27.5 69t68.5 28q39 0 66.5 -28t27.5 -69t-27.5 -68.5t-66.5 -27.5zM1542 668v-56q0 -268 -190.5 -451.5t-501.5 -183.5q-328 0 -541 214.5t-213 525.5t211 525t535 214q197 0 361.5 -94t254.5 -252l-96 -57q-72 135 -212 217
t-308 82q-279 0 -458 -183.5t-179 -451.5t180 -451.5t465 -183.5q252 0 407.5 137t174.5 346h-609v103h719z" />
    <glyph glyph-name="gdotaccent" unicode="&#x121;" horiz-adv-x="1327" 
d="M645 1174q-41 0 -68.5 27.5t-27.5 68.5t27.5 68.5t68.5 27.5q39 0 66.5 -27.5t27.5 -68.5t-27.5 -68.5t-66.5 -27.5zM1067 1024h102v-975q0 -223 -145 -352t-365 -129q-176 0 -301 65.5t-182 180.5l90 51q98 -199 393 -199q190 0 299 103.5t109 279.5v189
q-63 -121 -179 -191t-261 -70q-221 0 -376 155t-155 380t155 380t376 155q145 0 261 -70t179 -191v238zM633 76q182 0 308 127t126 309t-126 309t-308 127t-308 -127t-126 -309t126 -309t308 -127z" />
    <glyph glyph-name="Gcommaaccent" unicode="&#x122;" horiz-adv-x="1636" 
d="M1542 668v-56q0 -268 -190.5 -451.5t-501.5 -183.5q-328 0 -541 214.5t-213 525.5t211 525t535 214q197 0 361.5 -94t254.5 -252l-96 -57q-72 135 -212 217t-308 82q-279 0 -458 -183.5t-179 -451.5t180 -451.5t465 -183.5q252 0 407.5 137t174.5 346h-609v103h719z
M807 -492l20 349h105l-51 -349h-74z" />
    <glyph glyph-name="gcommaaccent" unicode="&#x123;" horiz-adv-x="1327" 
d="M705 1556l-21 -348h-104l51 348h74zM1067 1024h102v-975q0 -223 -145 -352t-365 -129q-176 0 -301 65.5t-182 180.5l90 51q98 -199 393 -199q190 0 299 103.5t109 279.5v189q-63 -121 -179 -191t-261 -70q-221 0 -376 155t-155 380t155 380t376 155q145 0 261 -70
t179 -191v238zM633 76q182 0 308 127t126 309t-126 309t-308 127t-308 -127t-126 -309t126 -309t308 -127z" />
    <glyph glyph-name="Hbar" unicode="&#x126;" horiz-adv-x="1515" 
d="M1419 1151v-90h-135v-1061h-110v686h-832v-686h-111v1061h-135v90h135v283h111v-283h832v283h110v-283h135zM1174 788v273h-832v-273h832z" />
    <glyph glyph-name="hbar" unicode="&#x127;" horiz-adv-x="1181" 
d="M653 1047q182 0 290 -112t108 -298v-637h-103v637q0 143 -80 227t-223 84q-158 0 -257 -104.5t-99 -302.5v-541h-105v1192h-149v86h149v156h105v-156h319v-86h-319v-358q112 213 364 213z" />
    <glyph glyph-name="Imacron" unicode="&#x12a;" horiz-adv-x="464" 
d="M-29 1612v90h518v-90h-518zM178 1434h109v-1434h-109v1434z" />
    <glyph glyph-name="imacron" unicode="&#x12b;" horiz-adv-x="417" 
d="M18 1202v90h381v-90h-381zM158 0v1024h102v-1024h-102z" />
    <glyph glyph-name="Iogonek" unicode="&#x12e;" horiz-adv-x="464" 
d="M272 -344q45 0 88 18v-86q-43 -20 -110 -20q-78 0 -120 40t-42 107q0 117 90 289v1430h109v-1434q-35 -66 -50.5 -96.5t-31 -79.5t-15.5 -92q0 -76 82 -76z" />
    <glyph glyph-name="iogonek" unicode="&#x12f;" horiz-adv-x="417" 
d="M209 1272q-33 0 -57.5 23.5t-24.5 58.5q0 33 24.5 56.5t57.5 23.5t57.5 -24t24.5 -56q0 -35 -24.5 -58.5t-57.5 -23.5zM252 -344q45 0 88 18v-86q-43 -20 -111 -20q-76 0 -118.5 47t-42.5 117q0 111 90 280v1012h102v-1024q-90 -154 -90 -252q0 -39 22.5 -65.5
t59.5 -26.5z" />
    <glyph glyph-name="Idotaccent" unicode="&#x130;" horiz-adv-x="464" 
d="M231 1583q-41 0 -68.5 27.5t-27.5 68.5t27.5 69t68.5 28q39 0 67 -28t28 -69t-28 -68.5t-67 -27.5zM178 1434h109v-1434h-109v1434z" />
    <glyph glyph-name="dotlessi" unicode="&#x131;" horiz-adv-x="417" 
d="M158 0v1024h102v-1024h-102z" />
    <glyph glyph-name="Kcommaaccent" unicode="&#x136;" horiz-adv-x="1171" 
d="M406 737l745 -737h-145l-719 707v-707h-109v1434h109v-668l698 668h145zM565 -492l21 349h104l-51 -349h-74z" />
    <glyph glyph-name="kcommaaccent" unicode="&#x137;" horiz-adv-x="989" 
d="M371 532l571 -532h-139l-543 504v-504h-102v1434h102v-875l518 465h144zM467 -492l20 349h105l-51 -349h-74z" />
    <glyph glyph-name="Lacute" unicode="&#x139;" horiz-adv-x="1009" 
d="M465 1837l-186 -260h-101l164 260h123zM287 102h676v-102h-785v1434h109v-1332z" />
    <glyph glyph-name="lacute" unicode="&#x13a;" horiz-adv-x="417" 
d="M156 1577h100l186 260h-123zM158 0v1495h102v-1495h-102z" />
    <glyph glyph-name="Lcommaaccent" unicode="&#x13b;" horiz-adv-x="1009" 
d="M287 102h676v-102h-785v1434h109v-1332zM514 -492l21 349h104l-51 -349h-74z" />
    <glyph glyph-name="lcommaaccent" unicode="&#x13c;" horiz-adv-x="417" 
d="M158 0v1495h102v-1495h-102zM213 -492l51 349h-104l-21 -349h74z" />
    <glyph glyph-name="Lcaron" unicode="&#x13d;" horiz-adv-x="1009" 
d="M287 102h676v-102h-785v1434h109v-1332zM662 1434l-50 -349h-73l20 349h103z" />
    <glyph glyph-name="lcaron" unicode="&#x13e;" horiz-adv-x="526" 
d="M158 0v1495h102v-1495h-102zM489 1147l50 348h-103l-20 -348h73z" />
    <glyph glyph-name="Lslash" unicode="&#x141;" horiz-adv-x="1044" 
d="M322 102h675v-102h-784v512l-125 -74v101l125 73v822h109v-758l374 221v-100l-374 -222v-473z" />
    <glyph glyph-name="lslash" unicode="&#x142;" horiz-adv-x="491" 
d="M451 928v-101l-154 -104v-723h-102v651l-154 -104v100l154 105v743h102v-672z" />
    <glyph glyph-name="Nacute" unicode="&#x143;" horiz-adv-x="1406" 
d="M610 1577h101l186 260h-123zM1120 1434h109v-1434h-96l-846 1233v-1233h-109v1434h94l848 -1233v1233z" />
    <glyph glyph-name="nacute" unicode="&#x144;" 
d="M799 1427l-187 -260h-100l164 260h123zM627 1047q182 0 289.5 -112t107.5 -298v-637h-104v637q0 143 -79 227t-223 84q-158 0 -258 -104.5t-100 -302.5v-541h-102v1024h102v-195q111 218 367 218z" />
    <glyph glyph-name="Ncommaaccent" unicode="&#x145;" horiz-adv-x="1406" 
d="M1120 1434h109v-1434h-96l-846 1233v-1233h-109v1434h94l848 -1233v1233zM700 -492l52 349h-105l-20 -349h73z" />
    <glyph glyph-name="ncommaaccent" unicode="&#x146;" 
d="M627 1047q182 0 289.5 -112t107.5 -298v-637h-104v637q0 143 -79 227t-223 84q-158 0 -258 -104.5t-100 -302.5v-541h-102v1024h102v-195q111 218 367 218zM535 -492l20 349h104l-51 -349h-73z" />
    <glyph glyph-name="Ncaron" unicode="&#x147;" horiz-adv-x="1406" 
d="M635 1577l-221 260h118l164 -195l164 195h119l-221 -260h-123zM1120 1434h109v-1434h-96l-846 1233v-1233h-109v1434h94l848 -1233v1233z" />
    <glyph glyph-name="ncaron" unicode="&#x148;" 
d="M537 1167l-222 260h119l164 -194l164 194h119l-222 -260h-122zM627 1047q182 0 289.5 -112t107.5 -298v-637h-104v637q0 143 -79 227t-223 84q-158 0 -258 -104.5t-100 -302.5v-541h-102v1024h102v-195q111 218 367 218z" />
    <glyph glyph-name="Eng" unicode="&#x14a;" horiz-adv-x="1406" 
d="M1120 1434h109v-1434q0 -410 -420 -410v105q156 0 233.5 66.5t77.5 238.5v18l-833 1215v-1233h-109v1434h94l848 -1233v1233z" />
    <glyph glyph-name="eng" unicode="&#x14b;" 
d="M627 1047q182 0 289.5 -112t107.5 -298v-754q0 -164 -88 -246.5t-252 -68.5v98q121 -12 178.5 41t57.5 176v754q0 143 -79 227t-223 84q-158 0 -258 -104.5t-100 -302.5v-541h-102v1024h102v-195q111 218 367 218z" />
    <glyph glyph-name="Omacron" unicode="&#x14c;" horiz-adv-x="1671" 
d="M575 1612v90h519v-90h-519zM835.5 -23q-309.5 0 -524.5 216.5t-215 523.5t215 523t524.5 216t524.5 -216t215 -523t-215 -523.5t-524.5 -216.5zM835.5 82q264.5 0 447.5 185.5t183 449.5t-183 449.5t-447.5 185.5t-447.5 -185.5t-183 -449.5t183 -449.5t447.5 -185.5z
" />
    <glyph glyph-name="omacron" unicode="&#x14d;" horiz-adv-x="1251" 
d="M360 1202v90h519v-90h-519zM627 -23q-225 0 -382 155t-157 380t156.5 380t382.5 155q223 0 379.5 -155t156.5 -380t-156.5 -380t-379.5 -155zM626.5 76q182.5 0 307.5 127t125 309t-125 309t-307.5 127t-308 -127t-125.5 -309t125.5 -309t308 -127z" />
    <glyph glyph-name="Ohungarumlaut" unicode="&#x150;" horiz-adv-x="1671" 
d="M584 1577h104l154 266h-115zM874 1577h105l174 266h-115zM835.5 -23q-309.5 0 -524.5 216.5t-215 523.5t215 523t524.5 216t524.5 -216t215 -523t-215 -523.5t-524.5 -216.5zM835.5 82q264.5 0 447.5 185.5t183 449.5t-183 449.5t-447.5 185.5t-447.5 -185.5t-183 -449.5
t183 -449.5t447.5 -185.5z" />
    <glyph glyph-name="ohungarumlaut" unicode="&#x151;" horiz-adv-x="1251" 
d="M369 1167h104l154 267h-115zM659 1167h105l174 267h-115zM627 -23q-225 0 -382 155t-157 380t156.5 380t382.5 155q223 0 379.5 -155t156.5 -380t-156.5 -380t-379.5 -155zM626.5 76q182.5 0 307.5 127t125 309t-125 309t-307.5 127t-308 -127t-125.5 -309t125.5 -309
t308 -127z" />
    <glyph glyph-name="OE" unicode="&#x152;" horiz-adv-x="1867" 
d="M1116 102h664v-102h-772q-90 -23 -193 -23q-313 0 -516 214.5t-203 525.5t203 525t516 214q102 0 193 -22h761v-103h-653v-557h615v-102h-615v-570zM1008 111v1212q-90 29 -193 29q-268 0 -439 -183.5t-171 -451.5t171 -451.5t439 -183.5q103 0 193 29z" />
    <glyph glyph-name="oe" unicode="&#x153;" horiz-adv-x="2172" 
d="M1587 1047q223 0 363.5 -160t140.5 -379q0 -33 -2 -49h-928q18 -172 138 -277.5t296 -105.5q123 0 215.5 51t139.5 135l90 -53q-63 -106 -179 -169t-264 -63q-176 0 -305 88.5t-184 237.5q-57 -147 -186 -236.5t-295 -89.5q-229 0 -384 154t-155 381t154.5 381t384.5 154
q166 0 295 -89.5t186 -238.5q55 150 182 239t297 89zM627 76q182 0 306 126t124 310t-124 310t-306 126q-186 0 -310 -126t-124 -310t124 -310t310 -126zM1585 948q-172 0 -289.5 -108.5t-134.5 -280.5h824q-16 182 -130 285.5t-270 103.5z" />
    <glyph glyph-name="Racute" unicode="&#x154;" horiz-adv-x="1255" 
d="M842 1837l-187 -260h-100l164 260h123zM1083 0l-344 588h-452v-588h-109v1434h565q174 0 299 -125t125 -299q0 -145 -89 -258t-226 -150l356 -602h-125zM287 1331v-641h456q131 0 223.5 93.5t92.5 226.5t-92.5 227t-223.5 94h-456z" />
    <glyph glyph-name="racute" unicode="&#x155;" horiz-adv-x="651" 
d="M580 1427l-187 -260h-100l164 260h123zM260 823q92 215 342 215v-98q-145 0 -243.5 -93t-98.5 -278v-569h-102v1024h102v-201z" />
    <glyph glyph-name="Rcommaaccent" unicode="&#x156;" horiz-adv-x="1255" 
d="M1208 0h-125l-344 588h-452v-588h-109v1434h565q174 0 299 -125t125 -299q0 -145 -89 -258t-226 -150zM287 1331v-641h456q131 0 223.5 93.5t92.5 226.5t-92.5 227t-223.5 94h-456zM612 -492l21 349h104l-51 -349h-74z" />
    <glyph glyph-name="rcommaaccent" unicode="&#x157;" horiz-adv-x="651" 
d="M260 823q92 215 342 215v-98q-145 0 -243.5 -93t-98.5 -278v-569h-102v1024h102v-201zM137 -492l21 349h104l-51 -349h-74z" />
    <glyph glyph-name="Rcaron" unicode="&#x158;" horiz-adv-x="1255" 
d="M580 1577l-222 260h119l164 -195l164 195h119l-222 -260h-122zM1083 0l-344 588h-452v-588h-109v1434h565q174 0 299 -125t125 -299q0 -145 -89 -258t-226 -150l356 -602h-125zM287 1331v-641h456q131 0 223.5 93.5t92.5 226.5t-92.5 227t-223.5 94h-456z" />
    <glyph glyph-name="rcaron" unicode="&#x159;" horiz-adv-x="651" 
d="M317 1167l-221 260h119l164 -194l164 194h119l-222 -260h-123zM260 823q92 215 342 215v-98q-145 0 -243.5 -93t-98.5 -278v-569h-102v1024h102v-201z" />
    <glyph glyph-name="Sacute" unicode="&#x15a;" horiz-adv-x="1175" 
d="M487 1577h101l186 260h-123zM616 -23q-199 0 -337 91.5t-187 246.5l94 56q39 -133 148.5 -211t281.5 -78q174 0 267.5 80t93.5 207q0 119 -90 182t-281 125q-70 23 -101.5 34t-91 34.5t-88 42t-68.5 49t-58.5 62.5t-32.5 76t-14 97q0 174 123.5 279.5t310.5 105.5
q168 0 286.5 -84t174.5 -217l-93 -51q-102 248 -368 248q-147 0 -235.5 -78t-88.5 -199q0 -117 82 -174t268 -119q119 -39 185.5 -66.5t143.5 -75.5t111.5 -114.5t34.5 -154.5q0 -178 -129 -286t-342 -108z" />
    <glyph glyph-name="sacute" unicode="&#x15b;" horiz-adv-x="937" 
d="M670 1427l-187 -260h-100l164 260h123zM227 756q0 -76 63.5 -119t155 -64.5t183.5 -48t155.5 -89t63.5 -167.5q0 -127 -101.5 -209t-265.5 -82q-147 0 -248.5 62.5t-140.5 165.5l88 51q29 -84 108 -132t193.5 -48t189 50t74.5 142q0 76 -63.5 121t-155.5 66.5t-183 48
t-154.5 88t-63.5 164.5q0 123 97 207t251 84q123 0 214 -55.5t134 -149.5l-86 -49q-31 76 -102.5 115.5t-159.5 39.5q-104 0 -175 -52t-71 -140z" />
    <glyph glyph-name="Scedilla" unicode="&#x15e;" horiz-adv-x="1175" 
d="M1087 371q0 -174 -123.5 -281.5t-328.5 -112.5v-92q82 -10 134 -50t52 -103q0 -195 -399 -164v84q152 -14 230.5 7.5t78.5 72.5q0 88 -188 88v162q-170 16 -288 105t-163 228l94 56q39 -133 148.5 -211t281.5 -78q174 0 267.5 80t93.5 207q0 119 -90 182t-281 125
q-70 23 -101.5 34t-91 34.5t-88 42t-68.5 49t-58.5 62.5t-32.5 76t-14 97q0 174 123.5 279.5t310.5 105.5q168 0 286.5 -84t174.5 -217l-93 -51q-102 248 -368 248q-147 0 -235.5 -78t-88.5 -199q0 -117 82 -174t268 -119q119 -39 185.5 -66.5t143.5 -75.5t111.5 -114.5
t34.5 -154.5z" />
    <glyph glyph-name="scedilla" unicode="&#x15f;" horiz-adv-x="937" 
d="M848 268q0 -119 -89 -198.5t-235 -89.5v-95q82 -10 134.5 -50t52.5 -103q0 -195 -400 -164v84q152 -14 231 7.5t79 72.5q0 88 -189 88v160q-129 10 -217 70.5t-123 154.5l88 51q29 -84 108 -132t193.5 -48t189 50t74.5 142q0 76 -63.5 121t-155.5 66.5t-183 48t-154.5 88
t-63.5 164.5q0 123 97 207t251 84q123 0 214 -55.5t134 -149.5l-86 -49q-31 76 -102.5 115.5t-159.5 39.5q-104 0 -175 -52t-71 -140q0 -76 63.5 -119t155 -64.5t183.5 -48t155.5 -89.5t63.5 -167z" />
    <glyph glyph-name="Scaron" unicode="&#x160;" horiz-adv-x="1175" 
d="M512 1577l-221 260h119l163 -195l164 195h119l-221 -260h-123zM612 782q119 -39 185.5 -66.5t143.5 -75.5t111.5 -114.5t34.5 -154.5q0 -178 -129 -286t-342 -108q-199 0 -337 91.5t-187 246.5l94 56q39 -133 148.5 -211t281.5 -78q174 0 267.5 80t93.5 207
q0 119 -90 182t-281 125q-70 23 -101.5 34t-91 34.5t-88 42t-68.5 49t-58.5 62.5t-32.5 76t-14 97q0 174 123.5 279.5t310.5 105.5q168 0 286.5 -84t174.5 -217l-93 -51q-102 248 -368 248q-147 0 -235.5 -78t-88.5 -199q0 -117 82 -174.5t268 -118.5z" />
    <glyph glyph-name="scaron" unicode="&#x161;" horiz-adv-x="937" 
d="M408 1167l-222 260h119l164 -194l164 194h119l-222 -260h-122zM227 756q0 -76 63.5 -119t155 -64.5t183.5 -48t155.5 -89t63.5 -167.5q0 -127 -101.5 -209t-265.5 -82q-147 0 -248.5 62.5t-140.5 165.5l88 51q29 -84 108 -132t193.5 -48t189 50t74.5 142q0 76 -63.5 121
t-155.5 66.5t-183 48t-154.5 88t-63.5 164.5q0 123 97 207t251 84q123 0 214 -55.5t134 -149.5l-86 -49q-31 76 -102.5 115.5t-159.5 39.5q-104 0 -175 -52t-71 -140z" />
    <glyph glyph-name="uni0162" unicode="&#x162;" horiz-adv-x="1105" 
d="M1059 1434v-103h-451v-1331h-110v1331h-451v103h1012zM483 -492l21 349h104l-51 -349h-74z" />
    <glyph glyph-name="uni0163" unicode="&#x163;" horiz-adv-x="770" 
d="M682 924h-305v-666q0 -88 32.5 -127t100.5 -44t172 5v-92q-207 -31 -308.5 28.5t-101.5 229.5v666h-225v100h225v256l105 31v-287h305v-100zM414 -492l20 349h105l-52 -349h-73z" />
    <glyph glyph-name="Tcaron" unicode="&#x164;" horiz-adv-x="1105" 
d="M492 1577l-222 260h119l164 -195l164 195h119l-222 -260h-122zM1059 1434v-103h-451v-1331h-110v1331h-451v103h1012z" />
    <glyph glyph-name="tcaron" unicode="&#x165;" horiz-adv-x="770" 
d="M621 1462l-50 -321h-73l20 321h103zM682 924h-305v-666q0 -88 32.5 -127t100.5 -44t172 5v-92q-207 -31 -308.5 28.5t-101.5 229.5v666h-225v100h225v256l105 31v-287h305v-100z" />
    <glyph glyph-name="Tbar" unicode="&#x166;" horiz-adv-x="1105" 
d="M1059 1331h-451v-565h314v-98h-314v-668h-110v668h-314v98h314v565h-451v103h1012v-103z" />
    <glyph glyph-name="tbar" unicode="&#x167;" horiz-adv-x="770" 
d="M682 924h-305v-344h205v-86h-205v-236q0 -88 32.5 -127t100.5 -44t172 5v-92q-207 -31 -308.5 28.5t-101.5 229.5v236h-141v86h141v344h-225v100h225v256l105 31v-287h305v-100z" />
    <glyph glyph-name="Umacron" unicode="&#x16a;" horiz-adv-x="1366" 
d="M420 1612v90h518v-90h-518zM682 -23q-238 0 -381 137.5t-143 364.5v955h108v-955q0 -180 108.5 -288.5t307.5 -108.5t308.5 108.5t109.5 288.5v955h108v-955q0 -227 -144 -364.5t-382 -137.5z" />
    <glyph glyph-name="umacron" unicode="&#x16b;" 
d="M819 1292v-90h-518v90h518zM895 1024h102v-1024h-102v195q-111 -217 -367 -218q-182 0 -289.5 112t-107.5 298v637h105v-637q0 -143 78.5 -227t222.5 -84q158 0 258 104.5t100 302.5v541z" />
    <glyph glyph-name="Uring" unicode="&#x16e;" horiz-adv-x="1366" 
d="M678 1475q-92 0 -150.5 56t-58.5 142t58.5 142.5t150.5 56.5q94 0 152.5 -56.5t58.5 -142.5t-58.5 -142t-152.5 -56zM678 1556q57 0 91 33t34 84t-34 84t-91 33q-55 0 -88 -33t-33 -84t33 -84t88 -33zM682 -23q-238 0 -381 137.5t-143 364.5v955h108v-955
q0 -180 108.5 -288.5t307.5 -108.5t308.5 108.5t109.5 288.5v955h108v-955q0 -227 -144 -364.5t-382 -137.5z" />
    <glyph glyph-name="uring" unicode="&#x16f;" 
d="M561 1133q-92 0 -150.5 56t-58.5 142t58.5 142.5t150.5 56.5q94 0 152.5 -56.5t58.5 -142.5t-58.5 -142t-152.5 -56zM561 1448q-55 0 -88 -33t-33 -84t33 -84t88 -33q57 0 91 33t34 84t-34 84t-91 33zM895 1024h102v-1024h-102v195q-111 -217 -367 -218
q-182 0 -289.5 112t-107.5 298v637h105v-637q0 -143 78.5 -227t222.5 -84q158 0 258 104.5t100 302.5v541z" />
    <glyph glyph-name="Uhungarumlaut" unicode="&#x170;" horiz-adv-x="1366" 
d="M428 1577h104l154 266h-115zM719 1577h104l174 266h-114zM682 -23q-238 0 -381 137.5t-143 364.5v955h108v-955q0 -180 108.5 -288.5t307.5 -108.5t308.5 108.5t109.5 288.5v955h108v-955q0 -227 -144 -364.5t-382 -137.5z" />
    <glyph glyph-name="uhungarumlaut" unicode="&#x171;" 
d="M567 1434l-153 -267h-105l144 267h114zM879 1434l-174 -267h-105l164 267h115zM895 1024h102v-1024h-102v195q-111 -217 -367 -218q-182 0 -289.5 112t-107.5 298v637h105v-637q0 -143 78.5 -227t222.5 -84q158 0 258 104.5t100 302.5v541z" />
    <glyph glyph-name="Uogonek" unicode="&#x172;" horiz-adv-x="1366" 
d="M1100 1434h108v-955q0 -256 -180 -395q-150 -133 -206 -207t-56 -145q0 -76 82 -76q45 0 88 18v-86q-43 -20 -111 -20q-78 0 -119.5 40t-41.5 107q0 129 153 275q-65 -12 -135 -13q-238 0 -381 137.5t-143 364.5v955h108v-955q0 -180 108.5 -288.5t307.5 -108.5
t308.5 108.5t109.5 288.5v955z" />
    <glyph glyph-name="uogonek" unicode="&#x173;" 
d="M997 0q-170 -154 -170 -268q0 -76 82 -76q45 0 88 18v-86q-47 -20 -110 -20q-76 0 -118 40t-42 107q0 125 168 305v175q-111 -217 -367 -218q-182 0 -289.5 112t-107.5 298v637h105v-637q0 -143 78.5 -227t222.5 -84q158 0 258 104.5t100 302.5v541h102v-1024z" />
    <glyph glyph-name="Wcircumflex" unicode="&#x174;" horiz-adv-x="2033" 
d="M971 1772l-166 -195h-117l221 260h121l221 -260h-116zM1851 1434h115l-416 -1434h-131l-401 1292l-404 -1292h-131l-415 1434h114l371 -1289l399 1289h129l402 -1289z" />
    <glyph glyph-name="wcircumflex" unicode="&#x175;" horiz-adv-x="1576" 
d="M788 1362l-165 -195h-117l221 260h121l221 -260h-117zM1401 1024h108l-323 -1024h-113l-285 872l-284 -872h-113l-323 1024h108l273 -891l286 891h107l286 -891z" />
    <glyph glyph-name="Ycircumflex" unicode="&#x176;" horiz-adv-x="1193" 
d="M592 1772l-166 -195h-117l221 260h121l221 -260h-116zM1174 1434l-523 -844v-590h-108v590l-523 844h123l455 -740l453 740h123z" />
    <glyph glyph-name="ycircumflex" unicode="&#x177;" horiz-adv-x="1044" 
d="M528 1362l-166 -195h-116l221 260h121l221 -260h-117zM907 1024h111l-443 -1118q-59 -152 -167.5 -239t-237.5 -77v97q98 -8 177 56t128 183l23 56l-471 1042h110l414 -911z" />
    <glyph glyph-name="Ydieresis" unicode="&#x178;" horiz-adv-x="1193" 
d="M408 1591q-33 0 -54.5 21.5t-21.5 52.5q0 33 21.5 54.5t54.5 21.5q31 0 52 -21.5t21 -54.5q0 -31 -21 -52.5t-52 -21.5zM776 1591q-33 0 -54.5 21.5t-21.5 52.5q0 33 21.5 54.5t54.5 21.5q31 0 52.5 -21.5t21.5 -54.5q0 -31 -21.5 -52.5t-52.5 -21.5zM1174 1434
l-523 -844v-590h-108v590l-523 844h123l455 -740l453 740h123z" />
    <glyph glyph-name="Zacute" unicode="&#x179;" horiz-adv-x="1071" 
d="M748 1837l-187 -260h-100l164 260h123zM209 102h795v-102h-916v102l774 1229h-753v103h874v-103z" />
    <glyph glyph-name="zacute" unicode="&#x17a;" horiz-adv-x="976" 
d="M702 1427l-186 -260h-100l164 260h122zM254 100h633v-100h-778v68l614 856h-594v100h737v-68z" />
    <glyph glyph-name="Zdotaccent" unicode="&#x17b;" horiz-adv-x="1071" 
d="M547 1583q-41 0 -68.5 27.5t-27.5 68.5t27.5 69t68.5 28q39 0 66.5 -28t27.5 -69t-27.5 -68.5t-66.5 -27.5zM209 102h795v-102h-916v102l774 1229h-753v103h874v-103z" />
    <glyph glyph-name="zdotaccent" unicode="&#x17c;" horiz-adv-x="976" 
d="M502 1174q-41 0 -68.5 27.5t-27.5 68.5t27.5 68.5t68.5 27.5q39 0 66.5 -27.5t27.5 -68.5t-27.5 -68.5t-66.5 -27.5zM254 100h633v-100h-778v68l614 856h-594v100h737v-68z" />
    <glyph glyph-name="Zcaron" unicode="&#x17d;" horiz-adv-x="1071" 
d="M485 1577l-221 260h119l164 -195l164 195h118l-221 -260h-123zM209 102h795v-102h-916v102l774 1229h-753v103h874v-103z" />
    <glyph glyph-name="zcaron" unicode="&#x17e;" horiz-adv-x="976" 
d="M440 1167l-221 260h119l164 -194l164 194h118l-221 -260h-123zM254 100h633v-100h-778v68l614 856h-594v100h737v-68z" />
    <glyph glyph-name="florin" unicode="&#x192;" horiz-adv-x="892" 
d="M510 1182q27 168 133.5 235.5t249.5 22.5v-103q-106 45 -183 0t-98 -157l-69 -412h245v-100h-262l-141 -826q-29 -168 -135.5 -235.5t-249.5 -22.5v103q109 -45 185.5 0t95.5 157l141 824h-236v100h252z" />
    <glyph glyph-name="Scommaaccent" unicode="&#x218;" horiz-adv-x="1175" 
d="M616 -23q-199 0 -337 91.5t-187 246.5l94 56q39 -133 148.5 -211t281.5 -78q174 0 267.5 80t93.5 207q0 119 -90 182t-281 125q-70 23 -101.5 34t-91 34.5t-88 42t-68.5 49t-58.5 62.5t-32.5 76t-14 97q0 174 123.5 279.5t310.5 105.5q168 0 286.5 -84t174.5 -217
l-93 -51q-102 248 -368 248q-147 0 -235.5 -78t-88.5 -199q0 -117 82 -174t268 -119q119 -39 185.5 -66.5t143.5 -75.5t111.5 -114.5t34.5 -154.5q0 -178 -129 -286t-342 -108zM614 -492l52 349h-105l-20 -349h73z" />
    <glyph glyph-name="scommaaccent" unicode="&#x219;" horiz-adv-x="937" 
d="M227 756q0 -76 63.5 -119t155 -64.5t183.5 -48t155.5 -89t63.5 -167.5q0 -127 -101.5 -209t-265.5 -82q-147 0 -248.5 62.5t-140.5 165.5l88 51q29 -84 108 -132t193.5 -48t189 50t74.5 142q0 76 -63.5 121t-155.5 66.5t-183 48t-154.5 88t-63.5 164.5q0 123 97 207
t251 84q123 0 214 -55.5t134 -149.5l-86 -49q-31 76 -102.5 115.5t-159.5 39.5q-104 0 -175 -52t-71 -140zM430 -492l21 349h104l-51 -349h-74z" />
    <glyph glyph-name="uni021A" unicode="&#x21a;" horiz-adv-x="1105" 
d="M1059 1434v-103h-451v-1331h-110v1331h-451v103h1012zM483 -492l21 349h104l-51 -349h-74z" />
    <glyph glyph-name="uni021B" unicode="&#x21b;" horiz-adv-x="770" 
d="M682 924h-305v-666q0 -88 32.5 -127t100.5 -44t172 5v-92q-207 -31 -308.5 28.5t-101.5 229.5v666h-225v100h225v256l105 31v-287h305v-100zM414 -492l20 349h105l-52 -349h-73z" />
    <glyph glyph-name="circumflex" unicode="&#x2c6;" horiz-adv-x="645" 
d="M604 1167h-117l-163 195l-166 -195h-117l221 260h121z" />
    <glyph glyph-name="caron" unicode="&#x2c7;" horiz-adv-x="645" 
d="M487 1427h119l-221 -260h-123l-221 260h119l164 -194z" />
    <glyph glyph-name="breve" unicode="&#x2d8;" horiz-adv-x="628" 
d="M313 1157q-125 0 -198.5 66.5t-73.5 183.5h98q0 -160 174 -160t174 160h99q0 -117 -74 -183.5t-199 -66.5z" />
    <glyph glyph-name="dotaccent" unicode="&#x2d9;" horiz-adv-x="272" 
d="M137 1174q-41 0 -68.5 27.5t-27.5 68.5t27.5 68.5t68.5 27.5q39 0 66.5 -27.5t27.5 -68.5t-27.5 -68.5t-66.5 -27.5z" />
    <glyph glyph-name="ring" unicode="&#x2da;" horiz-adv-x="501" 
d="M250 1133q-92 0 -150.5 56t-58.5 142t58.5 142.5t150.5 56.5q94 0 152.5 -56.5t58.5 -142.5t-58.5 -142t-152.5 -56zM250 1214q57 0 91 33t34 84t-34 84t-91 33q-55 0 -88 -33t-33 -84t33 -84t88 -33z" />
    <glyph glyph-name="ogonek" unicode="&#x2db;" horiz-adv-x="354" 
d="M203 -432q-78 0 -120 40t-42 107q0 137 162 285h108q-170 -154 -170 -268q0 -76 84 -76q45 0 88 18v-86q-47 -20 -110 -20z" />
    <glyph glyph-name="tilde" unicode="&#x2dc;" horiz-adv-x="638" 
d="M41 1194q0 113 41 169t105.5 50t136.5 -67q184 -158 184 57h90q0 -166 -88 -207t-195 55q-86 78 -135 68t-49 -125h-90z" />
    <glyph glyph-name="hungarumlaut" unicode="&#x2dd;" horiz-adv-x="651" 
d="M41 1167h104l154 267h-115zM332 1167h104l174 267h-114z" />
    <glyph glyph-name="gravecomb" unicode="&#x300;" horiz-adv-x="0" 
d="M-41 1167l-164 260h-123l189 -260h98z" />
    <glyph glyph-name="acutecomb" unicode="&#x301;" horiz-adv-x="0" 
d="M-328 1167h101l186 260h-123z" />
    <glyph glyph-name="uni0302" unicode="&#x302;" horiz-adv-x="0" 
d="M-41 1167h-117l-164 195l-165 -195h-117l221 260h121z" />
    <glyph glyph-name="tildecomb" unicode="&#x303;" horiz-adv-x="0" 
d="M-598 1194q0 113 41 169t105.5 50t136.5 -67q184 -158 184 57h90q0 -166 -88 -207t-195 55q-86 78 -135 68t-49 -125h-90z" />
    <glyph glyph-name="uni0304" unicode="&#x304;" horiz-adv-x="0" 
d="M-559 1202v90h518v-90h-518z" />
    <glyph glyph-name="uni0306" unicode="&#x306;" horiz-adv-x="0" 
d="M-328 1157q-125 0 -198.5 66.5t-73.5 183.5h98q0 -160 174 -160t174 160h99q0 -117 -74 -183.5t-199 -66.5z" />
    <glyph glyph-name="uni0307" unicode="&#x307;" horiz-adv-x="0" 
d="M-135 1174q-41 0 -68.5 27.5t-27.5 68.5t27.5 68.5t68.5 27.5q39 0 66.5 -27.5t27.5 -68.5t-27.5 -68.5t-66.5 -27.5z" />
    <glyph glyph-name="uni0308" unicode="&#x308;" horiz-adv-x="0" 
d="M-483 1182q-33 0 -54.5 21.5t-21.5 51.5q0 33 21.5 54.5t54.5 21.5q31 0 52 -21.5t21 -54.5q0 -31 -21 -52t-52 -21zM-115 1182q-33 0 -54 21.5t-21 51.5q0 33 21.5 54.5t53.5 21.5q31 0 52.5 -21.5t21.5 -54.5q0 -31 -21.5 -52t-52.5 -21z" />
    <glyph glyph-name="uni030A" unicode="&#x30a;" horiz-adv-x="0" 
d="M-252 1133q-92 0 -150.5 56t-58.5 142t58.5 142.5t150.5 56.5q94 0 152.5 -56.5t58.5 -142.5t-58.5 -142t-152.5 -56zM-252 1214q57 0 91 33t34 84t-34 84t-91 33q-55 0 -88 -33t-33 -84t33 -84t88 -33z" />
    <glyph glyph-name="uni030B" unicode="&#x30b;" horiz-adv-x="0" 
d="M-604 1167h104l154 267h-115zM-313 1167h104l174 267h-115z" />
    <glyph glyph-name="uni030C" unicode="&#x30c;" horiz-adv-x="0" 
d="M-158 1427h119l-221 -260h-123l-221 260h119l163 -194z" />
    <glyph glyph-name="uni0312" unicode="&#x312;" horiz-adv-x="0" 
d="M-115 1966l-51 -348h105l20 348h-74z" />
    <glyph glyph-name="uni0326" unicode="&#x326;" horiz-adv-x="0" 
d="M-92 -492l51 349h-104l-21 -349h74z" />
    <glyph glyph-name="uni0327" unicode="&#x327;" horiz-adv-x="0" 
d="M-227 -115q82 -10 134 -50t52 -103q0 -195 -399 -164v84q152 -14 230.5 7.5t78.5 72.5q0 88 -188 88v180h92v-115z" />
    <glyph glyph-name="uni0328" unicode="&#x328;" horiz-adv-x="0" 
d="M-152 -432q-78 0 -119.5 40t-41.5 107q0 137 161 285h109q-170 -154 -170 -268q0 -76 84 -76q45 0 88 18v-86q-48 -20 -111 -20z" />
    <glyph glyph-name="uni0394" unicode="&#x394;" horiz-adv-x="1282" 
d="M698 1434l557 -1434h-1228l557 1434h114zM182 102h918l-459 1198z" />
    <glyph glyph-name="uni03A9" unicode="&#x3a9;" horiz-adv-x="1671" 
d="M1575 717q0 -199 -96.5 -361.5t-257.5 -253.5h331v-102h-555v102q207 53 338 223.5t131 391.5q0 264 -183 449.5t-447.5 185.5t-447.5 -185.5t-183 -449.5q0 -221 131 -391t338 -224v-102h-555v102h332q-162 90 -258.5 253t-96.5 362q0 307 215 523t524.5 216t524.5 -216
t215 -523z" />
    <glyph glyph-name="pi" unicode="&#x3c0;" horiz-adv-x="1331" 
d="M1264 1024v-100h-170v-924h-105v924h-639v-924h-104v924h-178v100h1196z" />
    <glyph glyph-name="uni0401" unicode="&#x401;" horiz-adv-x="1091" 
d="M401 1591q-33 0 -54 21.5t-21 52.5q0 33 21.5 54.5t53.5 21.5q31 0 52.5 -21.5t21.5 -54.5q0 -31 -21.5 -52.5t-52.5 -21.5zM770 1591q-33 0 -54.5 21.5t-21.5 52.5q0 33 21.5 54.5t54.5 21.5q31 0 52.5 -21.5t21.5 -54.5q0 -31 -21.5 -52.5t-52.5 -21.5zM287 102h717
v-102h-826v1434h815v-103h-706v-557h655v-102h-655v-570z" />
    <glyph glyph-name="uni0402" unicode="&#x402;" horiz-adv-x="1431" 
d="M918 965q166 0 271 -97.5t105 -279.5v-285q0 -166 -88 -249t-252 -68v100q121 -14 176.5 39t55.5 178v285q0 137 -73 207.5t-195 70.5q-170 0 -351 -80v-786h-110v1331h-410v103h997v-103h-477v-446q167 80 351 80z" />
    <glyph glyph-name="uni0403" unicode="&#x403;" horiz-adv-x="1009" 
d="M766 1835l-186 -260h-101l164 260h123zM963 1434v-103h-676v-1331h-109v1434h785z" />
    <glyph glyph-name="uni0404" unicode="&#x404;" horiz-adv-x="1531" 
d="M1356 383l98 -55q-88 -160 -254 -255.5t-364 -95.5q-324 0 -532 214.5t-208 525.5t208 525t532 214q195 0 359.5 -93t254.5 -251l-96 -55q-74 133 -213.5 214t-304.5 81q-264 0 -438.5 -167t-190.5 -417h809v-102h-809q16 -250 190 -417t439 -167q168 0 308 82t212 219z
" />
    <glyph glyph-name="uni0405" unicode="&#x405;" horiz-adv-x="1175" 
d="M616 -23q-199 0 -337 91.5t-187 246.5l94 56q39 -133 148.5 -211t281.5 -78q174 0 267.5 80t93.5 207q0 119 -90 182t-281 125q-70 23 -101.5 34t-91 34.5t-88 42t-68.5 49t-58.5 62.5t-32.5 76t-14 97q0 174 123.5 279.5t310.5 105.5q168 0 286.5 -84t174.5 -217
l-93 -51q-102 248 -368 248q-147 0 -235.5 -78t-88.5 -199q0 -117 82 -174t268 -119q119 -39 185.5 -66.5t143.5 -75.5t111.5 -114.5t34.5 -154.5q0 -178 -129 -286t-342 -108z" />
    <glyph glyph-name="uni0406" unicode="&#x406;" horiz-adv-x="464" 
d="M178 1434h109v-1434h-109v1434z" />
    <glyph glyph-name="uni0407" unicode="&#x407;" horiz-adv-x="464" 
d="M47 1591q-33 0 -54.5 21.5t-21.5 52.5q0 33 21.5 54.5t54.5 21.5q31 0 52.5 -21.5t21.5 -54.5q0 -31 -21.5 -52.5t-52.5 -21.5zM416 1591q-33 0 -54.5 21.5t-21.5 52.5q0 33 21.5 54.5t54.5 21.5q31 0 52 -21.5t21 -54.5q0 -31 -21 -52.5t-52 -21.5zM178 1434h109v-1434
h-109v1434z" />
    <glyph glyph-name="uni0408" unicode="&#x408;" horiz-adv-x="1132" 
d="M516 -23q-150 0 -263.5 61.5t-164.5 178.5l92 55q76 -190 336 -190q160 0 255 81t95 230v1041h111v-1041q0 -199 -130 -307.5t-331 -108.5z" />
    <glyph glyph-name="uni0409" unicode="&#x409;" horiz-adv-x="2037" 
d="M1526 805q176 0 300 -115t124 -287q0 -174 -123 -288.5t-301 -114.5h-451v1331h-620v-725q0 -344 -105.5 -485t-312.5 -123v96q152 -16 230.5 99.5t78.5 414.5v826h838v-629h342zM1526 102q131 0 222 85t91 216q0 129 -91 214t-222 85h-342v-600h342z" />
    <glyph glyph-name="uni040A" unicode="&#x40a;" horiz-adv-x="2013" 
d="M1501 805q176 0 300 -115t124 -287q0 -174 -123 -288.5t-301 -114.5h-450v702h-764v-702h-109v1434h109v-629h764v629h110v-629h340zM1501 102q133 0 224.5 85t91.5 216.5t-91.5 215t-224.5 83.5h-340v-600h340z" />
    <glyph glyph-name="uni040B" unicode="&#x40b;" horiz-adv-x="1443" 
d="M918 965q166 0 271 -97.5t105 -279.5v-588h-108v588q0 137 -73 207.5t-195 70.5q-170 0 -351 -80v-786h-110v1331h-410v103h997v-103h-477v-446q167 80 351 80z" />
    <glyph glyph-name="uni040C" unicode="&#x40c;" horiz-adv-x="1171" 
d="M786 1835l-186 -260h-100l164 260h122zM1151 0h-145l-719 707v-707h-109v1434h109v-668l698 668h145l-724 -697z" />
    <glyph glyph-name="uni040E" unicode="&#x40e;" horiz-adv-x="1159" 
d="M850 1700v-90h-518v90h518zM1020 1434h113l-478 -1121q-143 -336 -436 -313v100q221 -25 328 226l24 57l-503 1051h112l443 -928z" />
    <glyph glyph-name="uni040F" unicode="&#x40f;" horiz-adv-x="1378" 
d="M1092 1434h110v-1434h-459v-274h-108v274h-457v1434h109v-1332h805v1332z" />
    <glyph glyph-name="uni0410" unicode="&#x410;" horiz-adv-x="1288" 
d="M1143 0l-139 365h-719l-140 -365h-114l557 1434h114l555 -1434h-114zM326 467h639l-320 833z" />
    <glyph glyph-name="uni0411" unicode="&#x411;" horiz-adv-x="1198" 
d="M696 846q174 0 299 -124t125 -298t-124 -299t-300 -125h-518v1434h826v-103h-717v-485h409zM696 102q129 0 221.5 94.5t92.5 227.5q0 131 -92.5 225t-221.5 94h-409v-641h409z" />
    <glyph glyph-name="uni0412" unicode="&#x412;" horiz-adv-x="1275" 
d="M942 743q111 -43 178.5 -137t67.5 -215q0 -162 -115 -276.5t-276 -114.5h-619v1434h572q156 0 266 -111t110 -266q0 -102 -50 -185.5t-134 -128.5zM750 1331h-463v-549h463q111 0 189.5 81t78.5 193.5t-78.5 193.5t-189.5 81zM797 102q117 0 199.5 85t82.5 204t-83 204
t-199 85h-510v-578h510z" />
    <glyph glyph-name="uni0413" unicode="&#x413;" horiz-adv-x="1009" 
d="M963 1434v-103h-676v-1331h-109v1434h785z" />
    <glyph glyph-name="uni0414" unicode="&#x414;" horiz-adv-x="1413" 
d="M1184 102h151v-376h-110v274h-1078v-274h-110v376h115q147 166 147 514v818h885v-1332zM408 614q0 -332 -127 -512h794v1229h-667v-717z" />
    <glyph glyph-name="uni0415" unicode="&#x415;" horiz-adv-x="1091" 
d="M287 102h717v-102h-826v1434h815v-103h-706v-557h655v-102h-655v-570z" />
    <glyph glyph-name="uni0416" unicode="&#x416;" horiz-adv-x="1712" 
d="M1671 0h-129l-631 711v-711h-110v711l-631 -711h-129l651 737l-631 697h129l611 -670v670h110v-670l611 670h129l-631 -697z" />
    <glyph glyph-name="uni0417" unicode="&#x417;" horiz-adv-x="1140" 
d="M793 741q125 -43 195.5 -138t70.5 -222q0 -176 -132 -290t-352 -114q-201 0 -322.5 87.5t-170.5 228.5l94 51q74 -264 399 -264q174 0 273.5 84t99.5 217q0 129 -90 214t-246 85h-161v102h114q152 0 242 80t90 205t-91 206t-239 81q-276 0 -368 -236l-90 51
q119 287 458 287q195 0 317 -111.5t122 -277.5q0 -109 -56.5 -194t-156.5 -132z" />
    <glyph glyph-name="uni0418" unicode="&#x418;" horiz-adv-x="1406" 
d="M1120 0v1233l-848 -1233h-94v1434h109v-1233l846 1233h96v-1434h-109z" />
    <glyph glyph-name="uni0419" unicode="&#x419;" horiz-adv-x="1406" 
d="M442 1612v90h519v-90h-519zM1120 0v1233l-848 -1233h-94v1434h109v-1233l846 1233h96v-1434h-109z" />
    <glyph glyph-name="uni041A" unicode="&#x41a;" horiz-adv-x="1171" 
d="M1151 0h-145l-719 707v-707h-109v1434h109v-668l698 668h145l-724 -697z" />
    <glyph glyph-name="uni041B" unicode="&#x41b;" horiz-adv-x="1429" 
d="M37 0v96q152 -18 230.5 97.5t78.5 414.5v826h907v-1434h-110v1331h-688v-725q0 -344 -105.5 -484t-312.5 -122z" />
    <glyph glyph-name="uni041C" unicode="&#x41c;" horiz-adv-x="1652" 
d="M1475 1434v-1434h-109v1274l-530 -881h-19l-530 881v-1274h-109v1434h135l512 -848l512 848h138z" />
    <glyph glyph-name="uni041D" unicode="&#x41d;" horiz-adv-x="1406" 
d="M1120 1434h109v-1434h-109v686h-833v-686h-109v1434h109v-646h833v646z" />
    <glyph glyph-name="uni041E" unicode="&#x41e;" horiz-adv-x="1671" 
d="M835.5 -23q-309.5 0 -524.5 216.5t-215 523.5t215 523t524.5 216t524.5 -216t215 -523t-215 -523.5t-524.5 -216.5zM835.5 82q264.5 0 447.5 185.5t183 449.5t-183 449.5t-447.5 185.5t-447.5 -185.5t-183 -449.5t183 -449.5t447.5 -185.5z" />
    <glyph glyph-name="uni041F" unicode="&#x41f;" horiz-adv-x="1378" 
d="M1202 1434v-1434h-110v1331h-805v-1331h-109v1434h1024z" />
    <glyph glyph-name="uni0420" unicode="&#x420;" horiz-adv-x="1202" 
d="M666 1434q193 0 319.5 -127t126.5 -317.5t-127 -316.5t-319 -126h-379v-547h-109v1434h488zM666 649q147 0 242.5 96.5t95.5 243.5q0 150 -95.5 246t-242.5 96h-379v-682h379z" />
    <glyph glyph-name="uni0421" unicode="&#x421;" horiz-adv-x="1538" 
d="M842 -23q-324 0 -535 214.5t-211 525.5t211 525t535 214q197 0 360.5 -93t253.5 -251l-96 -55q-72 133 -211 214t-307 81q-279 0 -458 -183.5t-179 -451.5t179 -451.5t458 -183.5q168 0 309 82t213 219l96 -55q-88 -160 -253.5 -255.5t-364.5 -95.5z" />
    <glyph glyph-name="uni0422" unicode="&#x422;" horiz-adv-x="1105" 
d="M1059 1434v-103h-451v-1331h-110v1331h-451v103h1012z" />
    <glyph glyph-name="uni0423" unicode="&#x423;" horiz-adv-x="1159" 
d="M1020 1434h113l-478 -1121q-143 -336 -436 -313v100q221 -25 328 226l24 57l-503 1051h112l443 -928z" />
    <glyph glyph-name="uni0424" unicode="&#x424;" horiz-adv-x="1646" 
d="M1579 717q0 -256 -193.5 -400.5t-506.5 -154.5v-162h-111v162q-313 10 -506.5 154.5t-193.5 400.5t193.5 400.5t506.5 154.5v162h111v-162q313 -10 506.5 -154.5t193.5 -400.5zM178 717q0 -211 159 -328t431 -127v909q-272 -10 -431 -126.5t-159 -327.5zM879 262
q272 10 430.5 127t158.5 328t-158.5 327.5t-430.5 126.5v-909z" />
    <glyph glyph-name="uni0425" unicode="&#x425;" horiz-adv-x="1173" 
d="M1126 0h-125l-413 639l-414 -639h-127l477 737l-450 697h125l389 -600l387 600h125l-451 -697z" />
    <glyph glyph-name="uni0426" unicode="&#x426;" horiz-adv-x="1413" 
d="M1188 102h149v-376h-108v274h-1051v1434h109v-1332h792v1332h109v-1332z" />
    <glyph glyph-name="uni0427" unicode="&#x427;" horiz-adv-x="1284" 
d="M997 1434h109v-1434h-109v621q-195 -94 -403.5 -94.5t-329.5 112.5t-121 289v506h109v-506q0 -135 90 -217t252 -82q209 0 403 94v711z" />
    <glyph glyph-name="uni0428" unicode="&#x428;" horiz-adv-x="1959" 
d="M1673 1434h109v-1434h-1604v1434h109v-1332h639v1332h108v-1332h639v1332z" />
    <glyph glyph-name="uni0429" unicode="&#x429;" horiz-adv-x="2007" 
d="M1782 102h149v-376h-108v274h-1645v1434h109v-1332h639v1332h108v-1332h639v1332h109v-1332z" />
    <glyph glyph-name="uni042A" unicode="&#x42a;" horiz-adv-x="1419" 
d="M395 0v1331h-395v103h506v-547h379q193 0 319.5 -127t126.5 -316q0 -190 -127 -317t-319 -127h-490zM506 102h379q147 0 242.5 96.5t95.5 245.5q0 147 -95.5 243.5t-242.5 96.5h-379v-682z" />
    <glyph glyph-name="uni042B" unicode="&#x42b;" horiz-adv-x="1562" 
d="M178 0v1434h109v-547h379q193 0 319.5 -126t126.5 -316.5t-127 -317.5t-319 -127h-488zM1276 0v1434h110v-1434h-110zM287 102h379q147 0 242.5 96.5t95.5 245.5q0 147 -95.5 243.5t-242.5 96.5h-379v-682z" />
    <glyph glyph-name="uni042C" unicode="&#x42c;" horiz-adv-x="1202" 
d="M666 887q193 0 319.5 -126t126.5 -316.5t-127 -317.5t-319 -127h-488v1434h109v-547h379zM666 102q147 0 242.5 96.5t95.5 245.5q0 147 -95.5 243.5t-242.5 96.5h-379v-682h379z" />
    <glyph glyph-name="uni042D" unicode="&#x42d;" horiz-adv-x="1531" 
d="M696 1456q324 0 532 -214t208 -525t-208 -525.5t-532 -214.5q-199 0 -364.5 95.5t-253.5 255.5l98 55q72 -137 212 -219t308 -82q264 0 438.5 167t190.5 417h-809v102h809q-16 250 -190 417t-439 167q-166 0 -305 -81t-213 -214l-96 55q90 158 254.5 251t359.5 93z" />
    <glyph glyph-name="uni042E" unicode="&#x42e;" horiz-adv-x="2144" 
d="M1309 1456q309 0 524 -216t215 -523t-215 -523.5t-524 -216.5q-303 0 -513 205t-223 504h-286v-686h-109v1434h109v-646h291q27 285 233.5 476.5t497.5 191.5zM1309 82q264 0 447 185.5t183 449.5t-183 449.5t-447 185.5q-266 0 -448.5 -184.5t-182.5 -450.5
t182.5 -450.5t448.5 -184.5z" />
    <glyph glyph-name="uni042F" unicode="&#x42f;" horiz-adv-x="1284" 
d="M1106 1434v-1434h-109v588h-393l-405 -588h-123l407 592q-156 20 -261 139t-105 279q0 176 124 300t298 124h567zM539 690h458v641h-458q-129 0 -221.5 -94t-92.5 -227q0 -131 92.5 -225.5t221.5 -94.5z" />
    <glyph glyph-name="uni0430" unicode="&#x430;" horiz-adv-x="1320" 
d="M1059 1024h104v-1024h-104v231q-66 -119 -180.5 -186.5t-260.5 -67.5q-219 0 -374.5 155t-155.5 380t155.5 380t374.5 155q145 0 260 -68t181 -186v231zM626.5 76q182.5 0 307.5 127t125 309t-125 309t-307.5 127t-308 -127t-125.5 -309t125.5 -309t308 -127z" />
    <glyph glyph-name="uni0431" unicode="&#x431;" horiz-adv-x="1169" 
d="M604 -25q-221 0 -368.5 146.5t-147.5 380.5q0 256 75 396t308 255q45 20 106.5 47t99.5 42t82 39t70.5 46.5t47 56t26.5 76.5l82 -47q-10 -57 -37.5 -100t-82 -79t-94.5 -56.5t-124 -55.5t-121 -51q-152 -68 -222.5 -147.5t-94.5 -214.5q72 113 186.5 168t231.5 55
q205 0 340 -135t135 -344q0 -207 -140.5 -342.5t-357.5 -135.5zM604 78q172 0 282.5 105.5t110.5 269.5q0 166 -106.5 272t-276.5 106q-156 0 -279.5 -98t-135.5 -254q0 -176 114.5 -288.5t290.5 -112.5z" />
    <glyph glyph-name="uni0432" unicode="&#x432;" horiz-adv-x="1038" 
d="M788 528q180 -59 181 -245q0 -123 -81 -203t-235 -80h-495v1024h456q145 0 225.5 -76t80.5 -192q-1 -165 -132 -228zM614 924h-354v-355h354q98 0 149.5 47.5t51.5 133.5q0 82 -52.5 128t-148.5 46zM653 100q102 0 157.5 49.5t55.5 137.5q0 86 -56 134t-157 48h-393v-369
h393z" />
    <glyph glyph-name="uni0433" unicode="&#x433;" horiz-adv-x="823" 
d="M799 1024v-100h-539v-924h-102v1024h641z" />
    <glyph glyph-name="uni0434" unicode="&#x434;" horiz-adv-x="1208" 
d="M997 100h144v-374h-105v274h-884v-274h-105v374h119q113 154 113 412v512h718v-924zM293 100h600v824h-512v-412q0 -252 -88 -412z" />
    <glyph glyph-name="uni0435" unicode="&#x435;" horiz-adv-x="1206" 
d="M618 1047q225 0 365.5 -160t140.5 -379q0 -8 -1 -24.5t-1 -24.5h-927q18 -172 138 -277.5t296 -105.5q123 0 215 51t139 135l90 -53q-63 -106 -180 -169t-266 -63q-236 0 -387.5 151t-151.5 384q0 229 148.5 382t381.5 153zM618 948q-174 0 -290.5 -108.5t-132.5 -280.5
h823q-16 182 -130 285.5t-270 103.5z" />
    <glyph glyph-name="uni0436" unicode="&#x436;" horiz-adv-x="1357" 
d="M1311 0h-127l-453 504v-504h-104v504l-453 -504h-127l485 532l-464 492h127l432 -463v463h104v-463l432 463h127l-463 -492z" />
    <glyph glyph-name="uni0437" unicode="&#x437;" horiz-adv-x="911" 
d="M649 528q92 -31 143.5 -98.5t51.5 -155.5q0 -125 -98.5 -211t-278.5 -86q-307 0 -399 242l88 51q66 -195 311 -194q127 0 199.5 56t72.5 149q0 84 -61.5 136t-163.5 52h-141v100h102q100 0 157.5 51.5t57.5 137.5q0 82 -66.5 136t-174.5 54q-209 0 -277 -166l-86 49
q43 98 135 157t228 59q158 0 251 -83t93 -202q-1 -166 -144 -234z" />
    <glyph glyph-name="uni0438" unicode="&#x438;" horiz-adv-x="1161" 
d="M913 1024h91v-1024h-105v846l-651 -846h-90v1024h102v-846z" />
    <glyph glyph-name="uni0439" unicode="&#x439;" horiz-adv-x="1161" 
d="M319 1202v90h519v-90h-519zM913 1024h91v-1024h-105v846l-651 -846h-90v1024h102v-846z" />
    <glyph glyph-name="uni043A" unicode="&#x43a;" horiz-adv-x="989" 
d="M942 0h-139l-543 504v-504h-102v1024h102v-465l518 465h144l-551 -492z" />
    <glyph glyph-name="uni043B" unicode="&#x43b;" horiz-adv-x="1146" 
d="M989 1024v-1024h-102v924h-516v-494q0 -250 -92.5 -346t-251.5 -84v96q123 -10 182 66t59 268v594h721z" />
    <glyph glyph-name="uni043C" unicode="&#x43c;" horiz-adv-x="1304" 
d="M1147 1024v-1024h-105v868l-383 -604h-14l-385 608v-872h-102v1024h121l372 -588l373 588h123z" />
    <glyph glyph-name="uni043D" unicode="&#x43d;" horiz-adv-x="1161" 
d="M899 1024h105v-1024h-105v463h-639v-463h-102v1024h102v-463h639v463z" />
    <glyph glyph-name="uni043E" unicode="&#x43e;" horiz-adv-x="1251" 
d="M627 -23q-225 0 -382 155t-157 380t156.5 380t382.5 155q223 0 379.5 -155t156.5 -380t-156.5 -380t-379.5 -155zM626.5 76q182.5 0 307.5 127t125 309t-125 309t-307.5 127t-308 -127t-125.5 -309t125.5 -309t308 -127z" />
    <glyph glyph-name="uni043F" unicode="&#x43f;" horiz-adv-x="1161" 
d="M1004 1024v-1024h-105v924h-639v-924h-102v1024h846z" />
    <glyph glyph-name="uni0440" unicode="&#x440;" horiz-adv-x="1320" 
d="M700 1047q221 0 376 -155t155 -380t-154.5 -380t-376.5 -155q-145 0 -260.5 70t-179.5 191v-648h-102v1434h102v-238q63 121 179 191t261 70zM694.5 76q182.5 0 308 127t125.5 309t-125.5 309t-308 127t-308.5 -127t-126 -309t126 -309t308.5 -127z" />
    <glyph glyph-name="uni0441" unicode="&#x441;" horiz-adv-x="1148" 
d="M627 -23q-231 0 -385 154t-154 381t153.5 381t385.5 154q150 0 270.5 -71t175.5 -192l-84 -49q-45 98 -142 155.5t-220 57.5q-184 0 -309 -126t-125 -310t124.5 -310t309.5 -126q123 0 220 57t148 156l86 -51q-61 -119 -182.5 -190t-271.5 -71z" />
    <glyph glyph-name="uni0442" unicode="&#x442;" horiz-adv-x="901" 
d="M874 1024v-100h-372v-924h-103v924h-372v100h847z" />
    <glyph glyph-name="uni0443" unicode="&#x443;" horiz-adv-x="1044" 
d="M907 1024h111l-443 -1118q-59 -152 -167.5 -239t-237.5 -77v97q98 -8 177 56t128 183l23 56l-471 1042h110l414 -911z" />
    <glyph glyph-name="uni0444" unicode="&#x444;" horiz-adv-x="1372" 
d="M1284 512q0 -219 -150.5 -369.5t-396.5 -165.5v-387h-102v387q-246 14 -396.5 165t-150.5 370t150.5 369.5t396.5 165.5v387h102v-387q246 -14 396.5 -165t150.5 -370zM193 512q0 -178 120.5 -299t321.5 -135v868q-201 -14 -321.5 -135t-120.5 -299zM737 78
q201 14 322 135t121 299t-121 299t-322 135v-868z" />
    <glyph glyph-name="uni0445" unicode="&#x445;" horiz-adv-x="1038" 
d="M989 0h-125l-346 446l-346 -446h-125l410 526l-385 498h125l321 -416l324 416h123l-383 -496z" />
    <glyph glyph-name="uni0446" unicode="&#x446;" horiz-adv-x="1214" 
d="M983 100h164v-374h-105v274h-884v1024h102v-924h619v924h104v-924z" />
    <glyph glyph-name="uni0447" unicode="&#x447;" horiz-adv-x="1099" 
d="M838 1024h104v-1024h-104v401q-135 -68 -312 -67q-197 0 -303 91t-106 265v334h102v-334q0 -258 303 -258q168 0 316 66v526z" />
    <glyph glyph-name="uni0448" unicode="&#x448;" horiz-adv-x="1673" 
d="M1411 1024h105v-1024h-1358v1024h102v-924h524v924h105v-924h522v924z" />
    <glyph glyph-name="uni0449" unicode="&#x449;" horiz-adv-x="1726" 
d="M1516 100h143v-374h-105v274h-1396v1024h102v-924h524v924h105v-924h522v924h105v-924z" />
    <glyph glyph-name="uni044A" unicode="&#x44a;" horiz-adv-x="1105" 
d="M698 627q141 0 240.5 -88t99.5 -225.5t-99 -225.5t-241 -88h-405v924h-293v100h397v-397h301zM698 100q100 0 168 59.5t68 153.5q0 96 -67.5 154.5t-168.5 58.5h-301v-426h301z" />
    <glyph glyph-name="uni044B" unicode="&#x44b;" horiz-adv-x="1318" 
d="M563 627q141 0 239.5 -88t98.5 -225.5t-98 -225.5t-240 -88h-405v1024h102v-397h303zM1059 1024h102v-1024h-102v1024zM563 100q98 0 166 59.5t68 153.5q0 96 -66.5 154.5t-167.5 58.5h-303v-426h303z" />
    <glyph glyph-name="uni044C" unicode="&#x44c;" horiz-adv-x="968" 
d="M563 627q141 0 239.5 -88t98.5 -225.5t-98 -225.5t-240 -88h-405v1024h102v-397h303zM563 100q98 0 166 59.5t68 153.5q0 96 -66.5 154.5t-167.5 58.5h-303v-426h303z" />
    <glyph glyph-name="uni044D" unicode="&#x44d;" horiz-adv-x="1124" 
d="M518 1047q233 0 375.5 -152t142.5 -383t-143 -383t-377 -152q-164 0 -284.5 71t-176.5 192l88 53q41 -100 138.5 -158.5t234.5 -58.5q174 0 285.5 109.5t128.5 277.5h-531v98h531q-16 170 -127 278.5t-285 108.5q-127 0 -224 -57t-144 -158l-91 51q61 121 182 192t277 71
z" />
    <glyph glyph-name="uni044E" unicode="&#x44e;" horiz-adv-x="1644" 
d="M1020 1047q223 0 379.5 -155t156.5 -380t-156.5 -380t-379.5 -155q-211 0 -361.5 138.5t-169.5 347.5h-229v-463h-102v1024h102v-463h229q18 209 169 347.5t362 138.5zM1020 76q182 0 307 127t125 309t-125 309t-307 127t-308 -127t-126 -309t126 -309t308 -127z" />
    <glyph glyph-name="uni044F" unicode="&#x44f;" horiz-adv-x="1024" 
d="M866 1024v-1024h-102v399h-221l-322 -399h-133l328 401q-125 14 -209 99.5t-84 210.5q0 137 98 225t240 88h405zM461 498h303v426h-303q-98 0 -166 -59.5t-68 -153.5q0 -96 67 -154.5t167 -58.5z" />
    <glyph glyph-name="uni0451" unicode="&#x451;" horiz-adv-x="1206" 
d="M422 1182q-33 0 -54.5 21.5t-21.5 51.5q0 33 21.5 54.5t54.5 21.5q31 0 52.5 -21.5t21.5 -54.5q0 -31 -21.5 -52t-52.5 -21zM791 1182q-33 0 -54.5 21.5t-21.5 51.5q0 33 21.5 54.5t54.5 21.5q31 0 52 -21.5t21 -54.5q0 -31 -21 -52t-52 -21zM618 1047q225 0 365.5 -160
t140.5 -379q0 -8 -1 -24.5t-1 -24.5h-927q18 -172 138 -277.5t296 -105.5q123 0 215 51t139 135l90 -53q-63 -106 -180 -169t-266 -63q-236 0 -387.5 151t-151.5 384q0 229 148.5 382t381.5 153zM618 948q-174 0 -290.5 -108.5t-132.5 -280.5h823q-16 182 -130 285.5
t-270 103.5z" />
    <glyph glyph-name="uni0452" unicode="&#x452;" horiz-adv-x="1181" 
d="M653 1047q182 0 290 -112t108 -298v-754q0 -164 -88.5 -246.5t-251.5 -68.5v98q238 -25 237 217v754q0 143 -80 227t-223 84q-158 0 -257 -104.5t-99 -302.5v-541h-105v1192h-149v86h149v156h105v-156h319v-86h-319v-358q112 213 364 213z" />
    <glyph glyph-name="uni0453" unicode="&#x453;" horiz-adv-x="823" 
d="M629 1427l-187 -260h-100l164 260h123zM799 1024v-100h-539v-924h-102v1024h641z" />
    <glyph glyph-name="uni0454" unicode="&#x454;" horiz-adv-x="1124" 
d="M981 293l88 -53q-55 -121 -176 -192t-285 -71q-233 0 -376.5 152t-143.5 383t142.5 383t375.5 152q156 0 277 -71t182 -192l-90 -51q-47 100 -144.5 157.5t-224.5 57.5q-174 0 -284.5 -108.5t-126.5 -278.5h530v-98h-530q16 -168 127.5 -277.5t285.5 -109.5
q137 0 234.5 58.5t138.5 158.5z" />
    <glyph glyph-name="uni0455" unicode="&#x455;" horiz-adv-x="937" 
d="M227 756q0 -76 63.5 -119t155 -64.5t183.5 -48t155.5 -89t63.5 -167.5q0 -127 -101.5 -209t-265.5 -82q-147 0 -248.5 62.5t-140.5 165.5l88 51q29 -84 108 -132t193.5 -48t189 50t74.5 142q0 76 -63.5 121t-155.5 66.5t-183 48t-154.5 88t-63.5 164.5q0 123 97 207
t251 84q123 0 214 -55.5t134 -149.5l-86 -49q-31 76 -102.5 115.5t-159.5 39.5q-104 0 -175 -52t-71 -140z" />
    <glyph glyph-name="uni0456" unicode="&#x456;" horiz-adv-x="417" 
d="M209 1272q-33 0 -57.5 23.5t-24.5 58.5q0 33 24.5 56.5t57.5 23.5t57.5 -24t24.5 -56q0 -35 -24.5 -58.5t-57.5 -23.5zM158 0v1024h102v-1024h-102z" />
    <glyph glyph-name="uni0457" unicode="&#x457;" horiz-adv-x="417" 
d="M25 1182q-33 0 -54.5 21.5t-21.5 51.5q0 33 21.5 54.5t54.5 21.5q31 0 52 -21.5t21 -54.5q0 -31 -21 -52t-52 -21zM393 1182q-33 0 -54.5 21.5t-21.5 51.5q0 33 21.5 54.5t54.5 21.5q31 0 52.5 -21.5t21.5 -54.5q0 -31 -21.5 -52t-52.5 -21zM158 0v1024h102v-1024h-102z
" />
    <glyph glyph-name="uni0458" unicode="&#x458;" horiz-adv-x="456" 
d="M248 1434q33 0 57.5 -24t24.5 -56q0 -35 -23.5 -58.5t-58.5 -23.5t-58.5 23.5t-23.5 58.5q0 33 24.5 56.5t57.5 23.5zM197 -117v1141h102v-1141q0 -164 -88 -246.5t-252 -68.5v98q238 -25 238 217z" />
    <glyph glyph-name="uni0459" unicode="&#x459;" horiz-adv-x="1644" 
d="M1257 586q135 0 226.5 -78t91.5 -215t-91 -215t-227 -78h-391v924h-495v-494q0 -250 -92.5 -346t-251.5 -84v96q123 -10 182 66t59 268v594h701v-438h288zM1257 100q94 0 155 50.5t61 142.5q0 94 -60.5 143t-155.5 49h-288v-385h288z" />
    <glyph glyph-name="uni045A" unicode="&#x45a;" horiz-adv-x="1630" 
d="M1243 586q137 0 228.5 -78t91.5 -215t-91.5 -215t-228.5 -78h-391v485h-598v-485h-104v1024h104v-438h598v438h104v-438h287zM1243 100q94 0 154.5 50.5t60.5 142.5q0 94 -59.5 143t-155.5 49h-287v-385h287z" />
    <glyph glyph-name="uni045B" unicode="&#x45b;" horiz-adv-x="1181" 
d="M653 1047q182 0 290 -112t108 -298v-637h-103v637q0 143 -80 227t-223 84q-158 0 -257 -104.5t-99 -302.5v-541h-105v1192h-149v86h149v156h105v-156h319v-86h-319v-358q112 213 364 213z" />
    <glyph glyph-name="uni045C" unicode="&#x45c;" horiz-adv-x="989" 
d="M698 1427l-186 -260h-100l163 260h123zM942 0h-139l-543 504v-504h-102v1024h102v-465l518 465h144l-551 -492z" />
    <glyph glyph-name="uni045E" unicode="&#x45e;" horiz-adv-x="1044" 
d="M786 1292v-90h-518v90h518zM907 1024h111l-443 -1118q-59 -152 -167.5 -239t-237.5 -77v97q98 -8 177 56t128 183l23 56l-471 1042h110l414 -911z" />
    <glyph glyph-name="uni045F" unicode="&#x45f;" horiz-adv-x="1161" 
d="M899 1024h105v-1024h-371v-274h-105v274h-370v1024h102v-924h639v924z" />
    <glyph glyph-name="uni0490" unicode="&#x490;" horiz-adv-x="1009" 
d="M854 1679h109v-348h-676v-1331h-109v1434h676v245z" />
    <glyph glyph-name="uni0491" unicode="&#x491;" horiz-adv-x="823" 
d="M694 1237h105v-313h-539v-924h-102v1024h536v213z" />
    <glyph glyph-name="Wgrave" unicode="&#x1e80;" horiz-adv-x="2033" 
d="M1069 1577l-164 260h-123l189 -260h98zM483 0l-415 1434h114l371 -1289l399 1289h129l402 -1289l368 1289h115l-416 -1434h-131l-401 1292l-404 -1292h-131z" />
    <glyph glyph-name="wgrave" unicode="&#x1e81;" horiz-adv-x="1576" 
d="M887 1167h-99l-188 260h123zM1401 1024h108l-323 -1024h-113l-285 872l-284 -872h-113l-323 1024h108l273 -891l286 891h107l286 -891z" />
    <glyph glyph-name="Wacute" unicode="&#x1e82;" horiz-adv-x="2033" 
d="M885 1577h100l186 260h-122zM483 0l-415 1434h114l371 -1289l399 1289h129l402 -1289l368 1289h115l-416 -1434h-131l-401 1292l-404 -1292h-131z" />
    <glyph glyph-name="wacute" unicode="&#x1e83;" horiz-adv-x="1576" 
d="M989 1427l-186 -260h-101l164 260h123zM1401 1024h108l-323 -1024h-113l-285 872l-284 -872h-113l-323 1024h108l273 -891l286 891h107l286 -891z" />
    <glyph glyph-name="Wdieresis" unicode="&#x1e84;" horiz-adv-x="2033" 
d="M786 1591q-33 0 -54 21.5t-21 52.5q0 33 21.5 54.5t53.5 21.5q31 0 52.5 -21.5t21.5 -54.5q0 -31 -21.5 -52.5t-52.5 -21.5zM1155 1591q-33 0 -54.5 21.5t-21.5 52.5q0 33 21.5 54.5t54.5 21.5q31 0 52.5 -21.5t21.5 -54.5q0 -31 -21.5 -52.5t-52.5 -21.5zM483 0
l-415 1434h114l371 -1289l399 1289h129l402 -1289l368 1289h115l-416 -1434h-131l-401 1292l-404 -1292h-131z" />
    <glyph glyph-name="wdieresis" unicode="&#x1e85;" horiz-adv-x="1576" 
d="M604 1182q-33 0 -54.5 21.5t-21.5 51.5q0 33 21.5 54.5t54.5 21.5q31 0 52.5 -21.5t21.5 -54.5q0 -31 -21.5 -52t-52.5 -21zM973 1182q-33 0 -54.5 21.5t-21.5 51.5q0 33 21.5 54.5t54.5 21.5q31 0 52.5 -21.5t21.5 -54.5q0 -31 -21.5 -52t-52.5 -21zM1401 1024h108
l-323 -1024h-113l-285 872l-284 -872h-113l-323 1024h108l273 -891l286 891h107l286 -891z" />
    <glyph glyph-name="Ygrave" unicode="&#x1ef2;" horiz-adv-x="1193" 
d="M690 1577h-98l-189 260h123zM1174 1434l-523 -844v-590h-108v590l-523 844h123l455 -740l453 740h123z" />
    <glyph glyph-name="ygrave" unicode="&#x1ef3;" horiz-adv-x="1044" 
d="M627 1167h-99l-188 260h123zM907 1024h111l-443 -1118q-59 -152 -167.5 -239t-237.5 -77v97q98 -8 177 56t128 183l23 56l-471 1042h110l414 -911z" />
    <glyph glyph-name="endash" unicode="&#x2013;" horiz-adv-x="1378" 
d="M178 584v98h1024v-98h-1024z" />
    <glyph glyph-name="emdash" unicode="&#x2014;" horiz-adv-x="1583" 
d="M178 584v98h1229v-98h-1229z" />
    <glyph glyph-name="quoteleft" unicode="&#x2018;" horiz-adv-x="456" 
d="M125 1008l111 426h94l-78 -426h-127z" />
    <glyph glyph-name="quoteright" unicode="&#x2019;" horiz-adv-x="456" 
d="M332 1434l-111 -426h-94l78 426h127z" />
    <glyph glyph-name="quotesinglbase" unicode="&#x201a;" horiz-adv-x="456" 
d="M332 139l-111 -426h-94l78 426h127z" />
    <glyph glyph-name="quotedblleft" unicode="&#x201c;" horiz-adv-x="716" 
d="M125 1008l111 426h94l-78 -426h-127zM385 1008l111 426h94l-78 -426h-127z" />
    <glyph glyph-name="quotedblright" unicode="&#x201d;" horiz-adv-x="716" 
d="M332 1434l-111 -426h-94l78 426h127zM592 1434l-111 -426h-94l78 426h127z" />
    <glyph glyph-name="quotedblbase" unicode="&#x201e;" horiz-adv-x="716" 
d="M332 139l-111 -426h-94l78 426h127zM592 139l-111 -426h-94l78 426h127z" />
    <glyph glyph-name="dagger" unicode="&#x2020;" horiz-adv-x="968" 
d="M840 1079v-98h-303v-981h-105v981h-303v98h303v355h105v-355h303z" />
    <glyph glyph-name="daggerdbl" unicode="&#x2021;" horiz-adv-x="968" 
d="M840 981h-303v-528h303v-99h-303v-354h-105v354h-303v99h303v528h-303v98h303v355h105v-355h303v-98z" />
    <glyph glyph-name="bullet" unicode="&#x2022;" horiz-adv-x="573" 
d="M289 539q-76 0 -128 52t-52 128q0 74 52 125t128 51q74 0 125 -51t51 -125q0 -76 -51 -128t-125 -52z" />
    <glyph glyph-name="ellipsis" unicode="&#x2026;" horiz-adv-x="1214" 
d="M219 -20q-39 0 -65.5 26.5t-26.5 65.5t26.5 65.5t65.5 26.5t65.5 -26.5t26.5 -65.5t-26.5 -65.5t-65.5 -26.5zM608 -20q-39 0 -65.5 26.5t-26.5 65.5t26.5 65.5t65.5 26.5t65.5 -26.5t26.5 -65.5t-26.5 -65.5t-65.5 -26.5zM997 -20q-39 0 -65.5 26.5t-26.5 65.5
t26.5 65.5t65.5 26.5t66 -26.5t27 -65.5t-27 -65.5t-66 -26.5z" />
    <glyph glyph-name="perthousand" unicode="&#x2030;" horiz-adv-x="2203" 
d="M442 846q-135 0 -224 88t-89 217t89 217t224.5 88t224.5 -88t89 -217t-88.5 -217t-225.5 -88zM442.5 940q92.5 0 152.5 60.5t60 150.5t-60 150.5t-152.5 60.5t-152 -60.5t-59.5 -150.5t59.5 -150.5t152 -60.5zM207 184l973 1094l69 -39l-975 -1094zM1022 -23
q-135 0 -224 88.5t-89 217.5t89 217t224 88t224 -88t89 -217t-89 -217.5t-224 -88.5zM1759 -23q-135 0 -224 88.5t-89 217.5t89 217t224 88t224.5 -88t89.5 -217t-89.5 -217.5t-224.5 -88.5zM1022 72q92 0 152.5 60.5t60.5 150.5t-60.5 150.5t-152.5 60.5t-151.5 -60.5
t-59.5 -150.5t59.5 -150.5t151.5 -60.5zM1759 72q92 0 152.5 60.5t60.5 150.5t-60.5 150.5t-152.5 60.5t-151.5 -60.5t-59.5 -150.5t59.5 -150.5t151.5 -60.5z" />
    <glyph glyph-name="guilsinglleft" unicode="&#x2039;" horiz-adv-x="673" 
d="M510 987l-219 -354l219 -354h-127l-219 354l219 354h127z" />
    <glyph glyph-name="guilsinglright" unicode="&#x203a;" horiz-adv-x="673" 
d="M291 987l219 -354l-219 -354h-127l219 354l-219 354h127z" />
    <glyph glyph-name="fraction" unicode="&#x2044;" horiz-adv-x="464" 
d="M-137 0h-94l831 1434h96z" />
    <glyph glyph-name="Euro" unicode="&#x20ac;" horiz-adv-x="1232" 
d="M752 82q240 0 329 223l90 -51q-53 -131 -161.5 -204t-257.5 -73q-221 0 -361.5 154t-175.5 418h-168v92h160q-2 25 -2 76q0 59 2 88h-160v90h170q35 260 175 410.5t360 150.5q150 0 258 -71.5t161 -202.5l-90 -52q-43 106 -129 164t-200 58q-168 0 -281 -120t-145 -337
h548v-90h-559q-2 -29 -2 -88q0 -51 2 -76h559v-92h-550q33 -223 145.5 -345t282.5 -122z" />
    <glyph glyph-name="uni20BD" unicode="&#x20bd;" horiz-adv-x="1181" 
d="M702 588h-380v-213h544v-90h-544v-285h-111v285h-184v90h184v213h-184v102h184v744h491q174 0 299 -125t125 -299t-125 -298t-299 -124zM322 1331v-641h380q131 0 223.5 93.5t92.5 226.5t-92 227t-224 94h-380z" />
    <glyph glyph-name="uni2116" unicode="&#x2116;" horiz-adv-x="2086" 
d="M1692 856q-131 0 -219.5 87t-88.5 212t88.5 213t219.5 88t219 -88t88 -213q0 -127 -87 -213t-220 -86zM1120 1434h109v-1434h-96l-846 1233v-1233h-109v1434h94l848 -1233v1233zM1692 950q90 0 147 58.5t57 146.5t-58 147.5t-146 59.5t-146.5 -59.5t-58.5 -147.5
q0 -86 58.5 -145.5t146.5 -59.5zM1409 594v100h567v-100h-567z" />
    <glyph glyph-name="trademark" unicode="&#x2122;" horiz-adv-x="978" 
d="M412 1434v-64h-121v-346h-68v346h-121v64h310zM809 1434h68v-410h-68v293l-133 -213h-8l-133 213v-293h-68v410h68l137 -220z" />
    <glyph glyph-name="estimated" unicode="&#x212e;" horiz-adv-x="1705" 
d="M854 1454q334 0 546 -213t212 -524q0 -31 -31 -31h-1147q-31 0 -31 -31v-393q0 -23 15 -39q172 -182 477 -182q297 0 473 199q16 18 37 18h76q20 0 26 -12.5t-8 -26.5q-223 -240 -604 -239q-360 0 -579.5 211.5t-219.5 525.5q0 311 212 524t546 213zM1305 1171
q0 23 -15 39q-172 182 -436 182.5t-436 -182.5q-14 -16 -15 -39v-393q0 -31 31 -30h840q31 0 31 30v393z" />
    <glyph glyph-name="oneeighth" unicode="&#x215b;" horiz-adv-x="1669" 
d="M356 614h-98v709l-205 -68l-26 86l252 93h77v-820zM1104 1434h96l-833 -1434h-95zM1464 430q143 -66 144 -217q0 -109 -80 -173.5t-209 -64.5t-210 64.5t-81 173.5q0 74 39 130t107 87q-119 63 -119 184q0 106 75.5 168t188.5 62q111 0 186.5 -61.5t75.5 -168.5
q0 -121 -117 -184zM1319 752q-76 0 -121 -37t-45 -100.5t46 -101.5t120 -38q72 0 118 38t46 101.5t-45 100.5t-119 37zM1319 70q88 0 139 42t51 113.5t-53 113.5t-137 42q-88 0 -140.5 -42t-52.5 -113.5t52.5 -113.5t140.5 -42z" />
    <glyph glyph-name="threeeighths" unicode="&#x215c;" horiz-adv-x="1880" 
d="M631 850q0 -115 -79 -187.5t-212 -72.5q-207 0 -283 166l82 47q53 -119 201 -119q94 0 143 46t49 120t-51 121t-141 47h-8l-47 72l198 249h-401v95h516v-95l-197 -243q109 -14 169.5 -81t60.5 -165zM1315 1434h96l-833 -1434h-95zM1675 430q143 -66 144 -217
q0 -109 -80 -173.5t-209 -64.5t-210 64.5t-81 173.5q0 74 39 130t106 87q-119 63 -118 184q0 106 75.5 168t188.5 62q111 0 186.5 -61.5t75.5 -168.5q0 -121 -117 -184zM1530 752q-76 0 -121 -37t-45 -100.5t46 -101.5t120 -38q72 0 118 38t46 101.5t-45 100.5t-119 37z
M1530 70q88 0 139 42t51 113.5t-53 113.5t-137 42q-88 0 -140.5 -42t-52.5 -113.5t52.5 -113.5t140.5 -42z" />
    <glyph glyph-name="fiveeighths" unicode="&#x215d;" horiz-adv-x="1859" 
d="M616 850q0 -117 -77.5 -188.5t-208.5 -71.5q-203 0 -279 164l84 47q51 -117 195 -117q88 0 138 45t50 121q0 80 -50 126t-138 46h-242l31 412h465v-93h-381l-15 -225h144q127 0 205.5 -73.5t78.5 -192.5zM1294 1434h97l-834 -1434h-94zM1655 430q143 -66 143 -217
q0 -109 -80 -173.5t-209 -64.5t-209.5 64.5t-80.5 173.5q0 74 38.5 130t106.5 87q-119 63 -119 184q0 106 76 168t188 62q111 0 187 -61.5t76 -168.5q0 -121 -117 -184zM1509 752q-76 0 -121 -37t-45 -100.5t46.5 -101.5t119.5 -38q72 0 118 38t46 101.5t-45 100.5t-119 37z
M1509 70q88 0 139.5 42t51.5 113.5t-53.5 113.5t-137.5 42q-88 0 -140 -42t-52 -113.5t52 -113.5t140 -42z" />
    <glyph glyph-name="seveneighths" unicode="&#x215e;" horiz-adv-x="1798" 
d="M580 1434v-80l-318 -740h-104l313 725h-436v95h545zM1233 1434h96l-833 -1434h-95zM1593 430q143 -66 144 -217q0 -109 -80 -173.5t-209 -64.5t-210 64.5t-81 173.5q0 74 39 130t107 87q-119 63 -119 184q0 106 75.5 168t188.5 62q111 0 186.5 -61.5t75.5 -168.5
q0 -121 -117 -184zM1448 752q-76 0 -121 -37t-45 -100.5t46 -101.5t120 -38q72 0 118 38t46 101.5t-45 100.5t-119 37zM1448 70q88 0 139 42t51 113.5t-53 113.5t-137 42q-88 0 -140.5 -42t-52.5 -113.5t52.5 -113.5t140.5 -42z" />
    <glyph glyph-name="arrowleft" unicode="&#x2190;" horiz-adv-x="1693" 
d="M1563 766v-98h-1244l566 -566h-142l-614 615l614 614h142l-566 -565h1244z" />
    <glyph glyph-name="arrowup" unicode="&#x2191;" horiz-adv-x="1488" 
d="M1358 819v-141l-561 561v-1239h-105v1241l-563 -563v141l614 615z" />
    <glyph glyph-name="arrowright" unicode="&#x2192;" horiz-adv-x="1693" 
d="M948 1331l615 -614l-615 -615h-141l565 566h-1243v98h1243l-565 565h141z" />
    <glyph glyph-name="arrowdown" unicode="&#x2193;" horiz-adv-x="1488" 
d="M797 195l561 561v-142l-615 -614l-614 614v142l563 -563v1241h105v-1239z" />
    <glyph glyph-name="arrowboth" unicode="&#x2194;" horiz-adv-x="2115" 
d="M1483 1223l504 -506l-504 -506h-142l455 457h-1477l455 -457h-141l-504 506l504 506h141l-455 -457h1477l-455 457h142z" />
    <glyph glyph-name="arrowupdn" unicode="&#x2195;" horiz-adv-x="1284" 
d="M1147 999l-453 451v-1466l453 450v-141l-506 -504l-504 504v141l453 -452v1470l-453 -453v142l504 504l506 -504v-142z" />
    <glyph glyph-name="uni2196" unicode="&#x2196;" horiz-adv-x="1308" 
d="M1180 227l-74 -75l-877 876v-792l-100 98v868h868l101 -98h-797z" />
    <glyph glyph-name="uni2197" unicode="&#x2197;" horiz-adv-x="1308" 
d="M311 1202h869v-868l-99 -98v794l-876 -878l-76 75l879 877h-795z" />
    <glyph glyph-name="uni2198" unicode="&#x2198;" horiz-adv-x="1308" 
d="M1081 1149l99 -98v-869h-869l-98 99h795l-879 876l76 76l876 -879v795z" />
    <glyph glyph-name="uni2199" unicode="&#x2199;" horiz-adv-x="1308" 
d="M1180 1157l-879 -876h797l-101 -99h-868v869l100 98v-793l877 877z" />
    <glyph glyph-name="partialdiff" unicode="&#x2202;" horiz-adv-x="1181" 
d="M477 1456q246 0 411 -203.5t165 -535.5q0 -348 -146.5 -544t-378.5 -196q-193 0 -306 123t-113 310q0 211 123.5 341t340.5 130q211 0 375 -115q-10 252 -137 421t-334 169q-143 0 -260 -70v100q110 70 260 70zM528 76q184 0 296 155.5t122 427.5q-162 121 -373 121
q-166 0 -263 -97t-97 -273q0 -147 82.5 -240.5t232.5 -93.5z" />
    <glyph glyph-name="emptyset" unicode="&#x2205;" horiz-adv-x="1673" 
d="M1343 1260q236 -219 236 -543q0 -307 -217 -523.5t-524 -216.5q-244 0 -439 144l-135 -162h-112l180 217q-236 219 -236 541q0 307 217 523t525 216q244 0 438 -143l133 162h113zM190 717q0 -281 201 -471l826 997q-168 123 -379 123q-268 0 -458 -189.5t-190 -459.5z
M838 68q268 0 456.5 189t188.5 460q0 279 -199 471l-827 -998q168 -122 381 -122z" />
    <glyph glyph-name="product" unicode="&#x220f;" horiz-adv-x="1310" 
d="M178 -410v1844h955v-1844h-103v1743h-749v-1743h-103z" />
    <glyph glyph-name="summation" unicode="&#x2211;" horiz-adv-x="1107" 
d="M117 -410v101l518 841l-490 799v103h863v-101h-746l492 -801l-518 -841h802v-101h-921z" />
    <glyph glyph-name="minus" unicode="&#x2212;" horiz-adv-x="1105" 
d="M129 668v98h848v-98h-848z" />
    <glyph glyph-name="radical" unicode="&#x221a;" horiz-adv-x="1308" 
d="M604 0l-303 514h-172v100h231l287 -491l504 1515h111l-547 -1638h-111z" />
    <glyph glyph-name="infinity" unicode="&#x221e;" horiz-adv-x="1650" 
d="M1208 1038q137 0 228.5 -91t91.5 -230t-91 -230.5t-229 -91.5q-119 0 -208 65.5t-175 176.5q-84 -109 -173 -175.5t-210 -66.5q-137 0 -228 91.5t-91 230.5t91 230t228 91q121 0 210 -66.5t173 -174.5q86 111 175 176t208 65zM444 489q94 0 170 61.5t152 166.5
q-76 104 -151.5 165.5t-170.5 61.5q-96 0 -157.5 -63.5t-61.5 -164t61.5 -164t157.5 -63.5zM1208 489q96 0 157.5 63.5t61.5 164t-61 164t-158 63.5q-92 0 -167.5 -60.5t-153.5 -166.5q78 -106 153.5 -167t167.5 -61z" />
    <glyph glyph-name="integral" unicode="&#x222b;" horiz-adv-x="892" 
d="M0 -416v103q106 -43 177 0t91 157l230 1338q29 170 132 236.5t263 19.5v-101q-127 41 -199.5 0t-93.5 -157l-227 -1338q-29 -170 -130.5 -236.5t-242.5 -21.5z" />
    <glyph glyph-name="approxequal" unicode="&#x2248;" horiz-adv-x="1202" 
d="M578 838q-283 184 -355 -82l-94 45q20 70 60 120t99.5 77.5t146.5 10t190 -84.5q285 -186 352 82l94 -45q-20 -70 -58 -120t-97.5 -79t-146.5 -10.5t-191 86.5zM223 428l-94 45q20 70 60 120t99.5 77.5t146.5 10.5t190 -85q285 -186 352 82l94 -45q-20 -70 -58 -120
t-97.5 -78.5t-146.5 -10.5t-191 86q-283 184 -355 -82z" />
    <glyph glyph-name="notequal" unicode="&#x2260;" horiz-adv-x="1099" 
d="M969 872h-305l-140 -311h445v-98h-490l-143 -316h-82l143 316h-268v98h313l140 311h-453v99h498l143 315h82l-143 -315h260v-99z" />
    <glyph glyph-name="lessequal" unicode="&#x2264;" horiz-adv-x="1079" 
d="M950 1214v-114l-692 -260l692 -260v-115l-819 323v103zM131 219v98h819v-98h-819z" />
    <glyph glyph-name="greaterequal" unicode="&#x2265;" horiz-adv-x="1079" 
d="M129 1214l819 -323v-103l-819 -323v115l692 260l-692 260v114zM129 219v98h819v-98h-819z" />
    <glyph glyph-name="lozenge" unicode="&#x25ca;" horiz-adv-x="1101" 
d="M498 0l-381 717l381 717h106l381 -717l-381 -717h-106zM551 113l323 604l-323 604l-324 -604z" />
    <glyph glyph-name="i.loclTRK" horiz-adv-x="417" 
d="M209 1174q-41 0 -68.5 27.5t-27.5 68.5t27.5 68.5t68.5 27.5q39 0 66.5 -27.5t27.5 -68.5t-27.5 -68.5t-66.5 -27.5zM158 0v1024h102v-1024h-102z" />
    <glyph glyph-name="f_f_j" horiz-adv-x="1597" 
d="M1440 1024v-1141q0 -164 -88 -246.5t-252 -68.5v98q238 -25 237 217v1041h-448v-924h-105v924h-448v-924h-105v924h-176v100h176v55q0 193 105.5 292t304.5 85v-98q-305 25 -305 -279v-55h448v76q0 377 410 377q90 0 199 -23v-94q-102 18 -199 18q-160 0 -232.5 -65.5
t-72.5 -212.5v-76h551z" />
    <glyph glyph-name="f_j" horiz-adv-x="1044" 
d="M889 1024v-1141q0 -164 -89 -246.5t-253 -68.5v98q238 -25 237 217v1041h-448v-924h-105v924h-176v100h176v55q0 377 410 377q92 0 199 -22v-95q-100 18 -199 19q-158 0 -231.5 -65.5t-73.5 -213.5v-55h553z" />
    <glyph glyph-name="uni0414.loclBGR" horiz-adv-x="1439" 
d="M1255 102h131v-376h-110v274h-1112v-274h-109v376h131l478 1332h114zM301 102h840l-420 1198z" />
    <glyph glyph-name="uni041B.loclBGR" horiz-adv-x="1239" 
d="M561 1434h115l534 -1434h-116l-476 1292l-473 -1292h-118z" />
    <glyph glyph-name="uni0424.loclBGR" horiz-adv-x="1742" 
d="M1647 716.5q0 -319.5 -200 -520t-521 -216.5v-185h-109v185q-319 16 -520 216.5t-201 520t201 520.5t520 217v184h109v-184q322 -16 521.5 -217t199.5 -520.5zM205 716.5q0 -276.5 166 -449.5t446 -189v1278q-281 -16 -446.5 -189.5t-165.5 -450zM926 78
q281 16 446.5 190t165.5 448.5t-166 448.5t-446 191v-1278z" />
    <glyph glyph-name="uni0414.ss01" horiz-adv-x="1413" 
d="M1184 102h151v-102h-1298v102h115q147 166 147 514v818h885v-1332zM408 614q0 -332 -127 -512h794v1229h-667v-717z" />
    <glyph glyph-name="uni0426.ss01" horiz-adv-x="1413" 
d="M1188 102h149v-102h-1159v1434h109v-1332h792v1332h109v-1332z" />
    <glyph glyph-name="uni0429.ss01" horiz-adv-x="2007" 
d="M1782 102h149v-102h-1753v1434h109v-1332h639v1332h108v-1332h639v1332h109v-1332z" />
    <glyph glyph-name="uni0414.loclBGR.ss01" horiz-adv-x="1439" 
d="M1255 102h131v-102h-1331v102h131l478 1332h114zM301 102h840l-420 1198z" />
    <glyph glyph-name="uni0432.loclBGR" horiz-adv-x="1173" 
d="M797 823q139 -37 213.5 -144.5t74.5 -268.5q0 -205 -122.5 -319t-342 -114t-341 130.5t-121.5 363.5v487q0 233 115.5 365.5t320.5 132.5q166 0 264 -94t98 -238q1 -172 -159 -301zM594 1358q-156 0 -245 -107.5t-89 -292.5v-180l236 47q82 16 172 17q184 119 184 282
q0 98 -69.5 166t-188.5 68zM621 76q170 0 265 88t95 246q0 186 -129 273t-356 42l-236 -47v-207q0 -186 95.5 -290.5t265.5 -104.5z" />
    <glyph glyph-name="uni0433.loclBGR" horiz-adv-x="937" 
d="M768 266l88 -51q-41 -104 -142.5 -171t-248.5 -67q-162 0 -264.5 81t-102.5 208q0 104 62.5 168t152.5 90.5t180.5 48t153 66.5t62.5 121q0 88 -68 138t-162 50q-96 0 -169.5 -44t-106.5 -122l-86 49q43 98 137 157t225 59q145 0 239.5 -82t94.5 -205q0 -88 -45 -146.5
t-112.5 -85t-147.5 -50t-147.5 -42t-112.5 -61.5t-45 -109q0 -92 74.5 -141t187.5 -49t192.5 52t110.5 138z" />
    <glyph glyph-name="uni0434.loclBGR" horiz-adv-x="1327" 
d="M1067 1024h102v-975q0 -223 -145 -352t-365 -129q-176 0 -301 65.5t-182 180.5l90 51q98 -199 393 -199q190 0 299 103.5t109 279.5v189q-63 -121 -179 -191t-261 -70q-221 0 -376 155t-155 380t155 380t376 155q145 0 261 -70t179 -191v238zM633 76q182 0 308 127
t126 309t-126 309t-308 127t-308 -127t-126 -309t126 -309t308 -127z" />
    <glyph glyph-name="uni0436.loclBGR" horiz-adv-x="1357" 
d="M1311 0h-127l-453 502v-502h-104v502l-453 -502h-127l485 532l-464 492h127l432 -463v873h104v-873l432 463h127l-463 -492z" />
    <glyph glyph-name="uni0438.loclBGR" 
d="M895 1024h102v-1024h-102v195q-111 -217 -367 -218q-182 0 -289.5 112t-107.5 298v637h105v-637q0 -143 78.5 -227t222.5 -84q158 0 258 104.5t100 302.5v541z" />
    <glyph glyph-name="uni0439.loclBGR" 
d="M819 1292v-90h-518v90h518zM895 1024h102v-1024h-102v195q-111 -217 -367 -218q-182 0 -289.5 112t-107.5 298v637h105v-637q0 -143 78.5 -227t222.5 -84q158 0 258 104.5t100 302.5v541z" />
    <glyph glyph-name="uni043A.loclBGR" horiz-adv-x="989" 
d="M942 0h-139l-543 504v-504h-102v1434h102v-875l518 465h144l-551 -492z" />
    <glyph glyph-name="uni043B.loclBGR" horiz-adv-x="1046" 
d="M1018 0h-109l-387 918l-385 -918h-110l434 1024h125z" />
    <glyph glyph-name="uni043F.loclBGR" 
d="M627 1047q182 0 289.5 -112t107.5 -298v-637h-104v637q0 143 -79 227t-223 84q-158 0 -258 -104.5t-100 -302.5v-541h-102v1024h102v-195q111 218 367 218z" />
    <glyph glyph-name="uni0442.loclBGR" horiz-adv-x="1755" 
d="M1251 1047q168 0 270.5 -104.5t102.5 -293.5v-649h-102v649q0 143 -75 221t-198 78q-137 0 -222 -94t-85 -283v-571h-102v649q0 143 -71 221t-191 78q-135 0 -226.5 -95t-91.5 -282v-571h-102v1024h102v-176q106 199 330 199q113 0 196.5 -54.5t122.5 -154.5
q53 104 144.5 156.5t197.5 52.5z" />
    <glyph glyph-name="uni0446.loclBGR" horiz-adv-x="1216" 
d="M1081 100h68v-374h-105v276q-70 8 -110.5 57.5t-40.5 124.5v6q-113 -213 -365 -213q-182 0 -289.5 112t-107.5 298v637h102v-637q0 -143 80 -227t224 -84q158 0 257 104.5t99 302.5v541h104v-840q0 -39 22.5 -61.5t61.5 -22.5z" />
    <glyph glyph-name="uni0448.loclBGR" horiz-adv-x="1755" 
d="M1495 1024h102v-1024h-102v176q-106 -199 -330 -199q-113 0 -196.5 54.5t-122.5 154.5q-53 -104 -144.5 -156.5t-197.5 -52.5q-168 0 -270.5 104.5t-102.5 293.5v649h102v-649q0 -143 75 -221t198 -78q137 0 222 94t85 283v571h102v-649q0 -143 71 -221t192 -78
q135 0 226 95t91 282v571z" />
    <glyph glyph-name="uni0449.loclBGR" horiz-adv-x="1818" 
d="M1683 100h66v-374h-102v276q-68 8 -109 54t-43 120q-106 -199 -330 -199q-113 0 -196.5 54.5t-122.5 154.5q-53 -104 -144.5 -156.5t-197.5 -52.5q-168 0 -270.5 104.5t-102.5 293.5v649h102v-649q0 -143 75 -221t198 -78q137 0 222 94t85 283v571h102v-649
q0 -143 71 -221t192 -78q135 0 226 95t91 282v571h102v-840q0 -39 23.5 -61.5t62.5 -22.5z" />
    <glyph glyph-name="uni044C.loclBGR" horiz-adv-x="983" 
d="M522 680q182 0 287.5 -91t105.5 -251q0 -152 -110.5 -256.5t-282.5 -104.5q-184 0 -287.5 101.5t-103.5 259.5v686h102v-344h289zM522 76q127 0 208 77.5t81 184.5q0 113 -78 177.5t-211 64.5h-289v-242q0 -111 77 -186.5t212 -75.5z" />
    <glyph glyph-name="uni044A.loclBGR" horiz-adv-x="1157" 
d="M692 680q182 0 287.5 -91t105.5 -251q0 -152 -110.5 -256.5t-282.5 -104.5q-184 0 -287.5 101.5t-103.5 259.5v586h-301v100h403v-344h289zM692 76q127 0 208 77.5t81 184.5q0 113 -78 177.5t-211 64.5h-289v-242q0 -111 77 -186.5t212 -75.5z" />
    <glyph glyph-name="uni044E.loclBGR" horiz-adv-x="1644" 
d="M1020 1047q223 0 379.5 -155t156.5 -380t-156.5 -380t-379.5 -155q-211 0 -361.5 138.5t-169.5 347.5h-229v-463h-102v1434h102v-873h229q18 209 169 347.5t362 138.5zM1020 76q182 0 307 127t125 309t-125 309t-307 127t-308 -127t-126 -309t126 -309t308 -127z" />
    <glyph glyph-name="zero.sinf" horiz-adv-x="839" 
d="M420 -352q-164 0 -258 118.5t-94 315.5t94 315.5t258 118.5t258 -118.5t94 -315.5t-94 -315.5t-258 -118.5zM420 -258q119 0 186.5 89t67.5 251t-67.5 251t-186.5 89t-186.5 -89t-67.5 -251t67.5 -251t186.5 -89z" />
    <glyph glyph-name="one.sinf" horiz-adv-x="487" 
d="M279 492h77v-820h-98v709l-205 -68l-26 86z" />
    <glyph glyph-name="two.sinf" horiz-adv-x="702" 
d="M70 -328v80l358 334q90 80 90 184q0 66 -45 109t-125 43q-143 0 -194 -135l-82 45q33 86 104.5 135t171.5 49q121 0 194.5 -70.5t73.5 -175.5q0 -135 -120 -247l-281 -256h418v-95h-563z" />
    <glyph glyph-name="three.sinf" horiz-adv-x="706" 
d="M401 154q109 -14 169.5 -81t60.5 -165q0 -115 -79 -187.5t-212 -72.5q-207 0 -283 166l82 47q53 -119 201 -119q94 0 143 46t49 120t-51 121t-141 47h-8l-47 71l198 250h-401v95h516v-95z" />
    <glyph glyph-name="four.sinf" horiz-adv-x="729" 
d="M680 -72v-92h-111v-164h-98v164h-436v92l307 564h107l-308 -564h330v213h98v-213h111z" />
    <glyph glyph-name="five.sinf" horiz-adv-x="665" 
d="M338 174q127 0 206 -73.5t79 -192.5q0 -117 -78 -188.5t-209 -71.5q-203 0 -279 164l84 47q51 -117 195 -117q88 0 138 45t50 121q0 80 -50 126t-138 46h-242l31 412h465v-93h-381l-14 -225h143z" />
    <glyph glyph-name="six.sinf" horiz-adv-x="686" 
d="M342 205q127 0 212 -79t85 -198q0 -121 -85 -200.5t-212 -79.5q-125 0 -210 79.5t-85 200.5q0 76 39 142l272 422h117l-196 -293q30 6 63 6zM342 -258q88 0 143.5 52t55.5 134t-55.5 132.5t-143.5 50.5q-86 0 -141.5 -50.5t-55.5 -132.5t55.5 -134t141.5 -52z" />
    <glyph glyph-name="seven.sinf" horiz-adv-x="632" 
d="M35 492h545v-80l-318 -740h-104l313 725h-436v95z" />
    <glyph glyph-name="eight.sinf" horiz-adv-x="700" 
d="M496 102q143 -66 143 -217q0 -109 -80 -173t-209 -64t-210 64.5t-81 172.5q0 74 39 130.5t107 86.5q-119 63 -119 185q0 106 76 167.5t188 61.5q111 0 186.5 -61.5t75.5 -167.5q1 -122 -116 -185zM350 424q-76 0 -121 -37t-45 -100.5t46 -101.5t120 -38q72 0 118 38
t46 101.5t-45 100.5t-119 37zM350 -258q88 0 139.5 42t51.5 113.5t-53.5 113.5t-137.5 42q-88 0 -140 -42t-52 -113.5t52 -113.5t140 -42z" />
    <glyph glyph-name="nine.sinf" horiz-adv-x="686" 
d="M639 236q0 -76 -39 -142l-272 -422h-117l197 293q-31 -6 -64 -6q-127 0 -212 79t-85 198q0 121 85 200.5t212 79.5q125 0 210 -79.5t85 -200.5zM145 235.5q0 -81.5 55.5 -132t143.5 -50.5q86 0 141.5 50.5t55.5 132t-55.5 134t-141.5 52.5q-88 0 -143.5 -52.5t-55.5 -134
z" />
    <glyph glyph-name="zero.tf" horiz-adv-x="1167" 
d="M584 -23q-254 0 -395.5 201t-141.5 539t141.5 538.5t395.5 200.5t395 -200.5t141 -538.5t-141 -539t-395 -201zM583.5 82q200.5 0 313.5 167t113 468t-113 468t-313.5 167t-313 -167t-112.5 -468t112.5 -468t313 -167z" />
    <glyph glyph-name="one.tf" horiz-adv-x="1167" 
d="M676 104h434v-104h-1024v104h481v1211l-331 -105l-29 95l377 129h92v-1330z" />
    <glyph glyph-name="two.tf" horiz-adv-x="1167" 
d="M102 0v98l547 477q141 123 217 226.5t76 212.5q0 156 -97 247t-263 91q-127 0 -224.5 -65.5t-144.5 -180.5l-90 53q59 139 183 218t276 79q205 0 337 -119.5t132 -322.5q0 -135 -85 -259t-241 -255l-469 -396h829v-104h-983z" />
    <glyph glyph-name="three.tf" horiz-adv-x="1167" 
d="M635 840q201 -18 322.5 -130t121.5 -296q0 -203 -143 -320t-371 -117q-176 0 -310 80t-185 219l92 54q35 -113 143.5 -180.5t259.5 -67.5q188 0 297 88t109 243.5t-108.5 243.5t-297.5 88v3l-2 -3h-28l-48 72l396 514h-772v103h901v-103z" />
    <glyph glyph-name="four.tf" horiz-adv-x="1167" 
d="M1112 403v-102h-184v-301h-109v301h-772v102l545 1031h119l-545 -1031h653v422h109v-422h184z" />
    <glyph glyph-name="five.tf" horiz-adv-x="1167" 
d="M584 850q215 0 356 -117t141 -319.5t-141 -319.5t-356 -117q-174 0 -308.5 81t-183.5 221l90 53q37 -115 143.5 -182.5t258.5 -67.5q176 0 282.5 89t106.5 242.5t-106.5 242.5t-282.5 89h-420l47 689h817v-103h-717l-32 -481h305z" />
    <glyph glyph-name="six.tf" horiz-adv-x="1167" 
d="M569 922q233 0 374.5 -131.5t141.5 -342t-141 -341t-375 -130.5q-231 0 -372.5 130.5t-141.5 341.5q0 174 99 294l497 691h129l-385 -535q84 23 174 23zM569 82q193 0 300.5 101.5t107.5 265.5q0 166 -107.5 267t-300.5 101q-190 0 -297.5 -101.5t-107.5 -266.5
q0 -164 107.5 -265.5t297.5 -101.5z" />
    <glyph glyph-name="seven.tf" horiz-adv-x="1167" 
d="M82 1434h989v-103l-604 -1331h-113l604 1331h-876v103z" />
    <glyph glyph-name="eight.tf" horiz-adv-x="1167" 
d="M827 741q123 -47 193 -141t70 -217q0 -190 -137.5 -298t-369 -108t-368.5 108t-137 298q0 123 69.5 217t192.5 141q-98 47 -155.5 132t-57.5 196q0 182 128 284.5t328.5 102.5t328.5 -102.5t128 -284.5q0 -111 -57.5 -196t-155.5 -132zM236 1069q0 -129 94 -205
t253.5 -76t254 76t94.5 205q0 135 -93.5 209t-255 74t-254.5 -74t-93 -209zM583.5 82q190.5 0 293 80t102.5 221q0 139 -102.5 219t-293 80t-293 -80t-102.5 -219q0 -141 102.5 -221t293 -80z" />
    <glyph glyph-name="nine.tf" horiz-adv-x="1167" 
d="M1112 985q0 -174 -98 -295l-498 -690h-129l385 535q-84 -23 -174 -23q-233 0 -374.5 131t-141.5 342t141.5 341t374.5 130q231 0 372.5 -130t141.5 -341zM190 985q0 -166 108 -267.5t300 -101.5q190 0 298 101.5t108 267.5q0 164 -108 265.5t-298 101.5
q-193 0 -300.5 -101.5t-107.5 -265.5z" />
    <glyph glyph-name="zero.dnom" horiz-adv-x="839" 
d="M420 -25q-164 0 -258 119t-94 315.5t94 315.5t258 119t258 -119t94 -315.5t-94 -315.5t-258 -119zM420 70q119 0 186.5 89t67.5 250.5t-67.5 251t-186.5 89.5t-186.5 -89.5t-67.5 -251t67.5 -250.5t186.5 -89z" />
    <glyph glyph-name="one.dnom" horiz-adv-x="503" 
d="M279 819h77v-819h-98v709l-205 -68l-26 86z" />
    <glyph glyph-name="two.dnom" horiz-adv-x="700" 
d="M70 0v80l358 334q90 80 90 184q0 66 -45 109t-125 43q-143 0 -194 -136l-82 45q33 86 104.5 135.5t171.5 49.5q121 0 194.5 -71t73.5 -175q0 -135 -120 -248l-281 -256h418v-94h-563z" />
    <glyph glyph-name="three.dnom" horiz-adv-x="714" 
d="M401 481q109 -14 169.5 -80.5t60.5 -164.5q0 -115 -79 -188t-212 -73q-207 0 -283 166l82 47q53 -119 201 -118q94 0 143 46t49 119.5t-51 120.5t-141 47h-8l-47 72l198 250h-401v94h516v-94z" />
    <glyph glyph-name="four.dnom" horiz-adv-x="729" 
d="M680 256v-92h-111v-164h-98v164h-436v92l307 563h107l-308 -563h330v213h98v-213h111z" />
    <glyph glyph-name="five.dnom" horiz-adv-x="694" 
d="M332 502q127 0 205.5 -74t78.5 -192q0 -117 -77.5 -189t-208.5 -72q-203 0 -279 164l84 47q51 -117 195 -116q88 0 138 45t50 121q0 80 -50 126t-138 46h-242l31 411h465v-92h-381l-15 -225h144z" />
    <glyph glyph-name="six.dnom" horiz-adv-x="686" 
d="M342 532q127 0 212 -78.5t85 -197.5q0 -121 -85 -201t-212 -80q-125 0 -210 80t-85 201q0 76 39 141l272 422h117l-196 -293q30 6 63 6zM342 70q88 0 143.5 52t55.5 134t-55.5 132t-143.5 50q-86 0 -141.5 -50t-55.5 -132t55.5 -134t141.5 -52z" />
    <glyph glyph-name="seven.dnom" horiz-adv-x="632" 
d="M35 819h545v-80l-318 -739h-104l313 725h-436v94z" />
    <glyph glyph-name="eight.dnom" horiz-adv-x="700" 
d="M496 430q143 -66 143 -217q0 -109 -80 -173.5t-209 -64.5t-210 64.5t-81 173.5q0 74 39 130t107 87q-119 63 -119 184q0 106 76 168t188 62q111 0 186.5 -61.5t75.5 -168.5q1 -121 -116 -184zM350 752q-76 0 -121 -37t-45 -100.5t46 -101.5t120 -38q72 0 118 38t46 101.5
t-45 100.5t-119 37zM350 70q88 0 139.5 42t51.5 113.5t-53.5 113.5t-137.5 42q-88 0 -140 -42t-52 -113.5t52 -113.5t140 -42z" />
    <glyph glyph-name="nine.dnom" horiz-adv-x="686" 
d="M639 563q0 -76 -39 -141l-272 -422h-117l197 293q-31 -6 -64 -6q-127 0 -212 78.5t-85 197.5q0 121 85 201t212 80q125 0 210 -80t85 -201zM145 563q0 -82 55.5 -132t143.5 -50q86 0 141.5 50t55.5 132t-55.5 134.5t-141.5 52.5q-88 0 -143.5 -52.5t-55.5 -134.5z" />
    <glyph glyph-name="zero.numr" horiz-adv-x="839" 
d="M420 590q-164 0 -258 118.5t-94 315.5t94 315.5t258 118.5t258 -118.5t94 -315.5t-94 -315.5t-258 -118.5zM420 684q119 0 186.5 89t67.5 251t-67.5 251t-186.5 89t-186.5 -89t-67.5 -251t67.5 -251t186.5 -89z" />
    <glyph glyph-name="one.numr" horiz-adv-x="503" 
d="M279 1434h77v-820h-98v709l-205 -68l-26 86z" />
    <glyph glyph-name="two.numr" horiz-adv-x="700" 
d="M70 614v80l358 334q90 80 90 184q0 66 -45 109t-125 43q-143 0 -194 -135l-82 45q33 86 104.5 135t171.5 49q121 0 194.5 -70.5t73.5 -175.5q0 -135 -120 -247l-281 -256h418v-95h-563z" />
    <glyph glyph-name="three.numr" horiz-adv-x="714" 
d="M401 1096q109 -14 169.5 -81t60.5 -165q0 -115 -79 -187.5t-212 -72.5q-207 0 -283 166l82 47q53 -119 201 -119q94 0 143 46t49 120t-51 121t-141 47h-8l-47 72l198 249h-401v95h516v-95z" />
    <glyph glyph-name="four.numr" horiz-adv-x="729" 
d="M680 870v-92h-111v-164h-98v164h-436v92l307 564h107l-308 -564h330v213h98v-213h111z" />
    <glyph glyph-name="five.numr" horiz-adv-x="694" 
d="M332 1116q127 0 205.5 -73.5t78.5 -192.5q0 -117 -77.5 -188.5t-208.5 -71.5q-203 0 -279 164l84 47q51 -117 195 -117q88 0 138 45t50 121q0 80 -50 126t-138 46h-242l31 412h465v-93h-381l-15 -225h144z" />
    <glyph glyph-name="six.numr" horiz-adv-x="686" 
d="M342 1147q127 0 212 -79t85 -198q0 -121 -85 -200.5t-212 -79.5q-125 0 -210 80t-85 200q0 76 39 142l272 422h117l-196 -293q30 6 63 6zM342 684q88 0 143.5 52t55.5 134t-55.5 132.5t-143.5 50.5q-86 0 -141.5 -50.5t-55.5 -132.5t55.5 -134t141.5 -52z" />
    <glyph glyph-name="seven.numr" horiz-adv-x="632" 
d="M35 1434h545v-80l-318 -740h-104l313 725h-436v95z" />
    <glyph glyph-name="eight.numr" horiz-adv-x="700" 
d="M496 1044q143 -66 143 -217q0 -109 -80 -173t-209 -64t-210 64.5t-81 172.5q0 74 39 130.5t107 86.5q-119 63 -119 185q0 106 76 167.5t188 61.5q111 0 186.5 -61.5t75.5 -167.5q1 -122 -116 -185zM350 1366q-76 0 -121 -37t-45 -100.5t46 -101t120 -37.5q72 0 118 37.5
t46 101t-45 100.5t-119 37zM350 684q88 0 139.5 42t51.5 113.5t-53.5 113.5t-137.5 42q-88 0 -140 -42t-52 -113.5t52 -113.5t140 -42z" />
    <glyph glyph-name="nine.numr" horiz-adv-x="686" 
d="M639 1178q0 -76 -39 -142l-272 -422h-117l197 293q-31 -6 -64 -6q-127 0 -212 79t-85 198q0 121 85 200.5t212 79.5q125 0 210 -79.5t85 -200.5zM145 1178q0 -82 55.5 -132.5t143.5 -50.5q86 0 141.5 50.5t55.5 132.5t-55.5 134t-141.5 52q-88 0 -143.5 -52t-55.5 -134z
" />
    <glyph glyph-name="zero.sups" horiz-adv-x="839" 
d="M420 918q-164 0 -258 118.5t-94 315t94 315.5t258 119t258 -119t94 -315.5t-94 -315t-258 -118.5zM420 1012q119 0 186.5 89t67.5 250.5t-67.5 251t-186.5 89.5t-186.5 -89.5t-67.5 -251t67.5 -250.5t186.5 -89z" />
    <glyph glyph-name="one.sups" horiz-adv-x="503" 
d="M279 1761h77v-819h-98v709l-205 -68l-26 86z" />
    <glyph glyph-name="two.sups" horiz-adv-x="700" 
d="M70 942v80l358 334q90 80 90 184q0 66 -45 109t-125 43q-143 0 -194 -136l-82 46q33 86 104.5 135t171.5 49q121 0 194.5 -70.5t73.5 -175.5q0 -135 -120 -248l-281 -256h418v-94h-563z" />
    <glyph glyph-name="three.sups" horiz-adv-x="714" 
d="M401 1423q109 -14 169.5 -80.5t60.5 -164.5q0 -115 -79 -187.5t-212 -72.5q-207 0 -283 165l82 47q53 -119 201 -118q94 0 143 46t49 119.5t-51 121t-141 47.5h-8l-47 71l198 250h-401v94h516v-94z" />
    <glyph glyph-name="four.sups" horiz-adv-x="729" 
d="M680 1198v-92h-111v-164h-98v164h-436v92l307 563h107l-308 -563h330v213h98v-213h111z" />
    <glyph glyph-name="five.sups" horiz-adv-x="694" 
d="M332 1444q127 0 205.5 -74t78.5 -192q0 -117 -77.5 -188.5t-208.5 -71.5q-203 0 -279 163l84 47q51 -117 195 -116q88 0 138 45t50 121q0 80 -50 126t-138 46h-242l31 411h465v-92h-381l-15 -225h144z" />
    <glyph glyph-name="six.sups" horiz-adv-x="686" 
d="M342 1475q127 0 212 -79t85 -198q0 -121 -85 -200.5t-212 -79.5q-125 0 -210 79.5t-85 200.5q0 76 39 141l272 422h117l-196 -293q30 7 63 7zM342 1012q88 0 143.5 52t55.5 134t-55.5 132t-143.5 50q-86 0 -141.5 -50t-55.5 -132t55.5 -134t141.5 -52z" />
    <glyph glyph-name="seven.sups" horiz-adv-x="632" 
d="M35 1761h545v-80l-318 -739h-104l313 725h-436v94z" />
    <glyph glyph-name="eight.sups" horiz-adv-x="700" 
d="M496 1372q143 -66 143 -217q0 -109 -80 -173t-209 -64t-210 64.5t-81 172.5q0 74 39 130t107 87q-119 63 -119 184q0 106 76 168t188 62q111 0 186.5 -61.5t75.5 -168.5q1 -121 -116 -184zM350 1694q-76 0 -121 -37t-45 -100.5t46 -101.5t120 -38q72 0 118 38t46 101.5
t-45 100.5t-119 37zM350 1012q88 0 139.5 42t51.5 113.5t-53.5 113.5t-137.5 42q-88 0 -140 -42t-52 -113.5t52 -113.5t140 -42z" />
    <glyph glyph-name="nine.sups" horiz-adv-x="686" 
d="M639 1505q0 -76 -39 -141l-272 -422h-117l197 293q-31 -6 -64 -6q-127 0 -212 78.5t-85 197.5q0 121 85 201t212 80q125 0 210 -80t85 -201zM145 1505q0 -82 55.5 -132t143.5 -50q86 0 141.5 50t55.5 132t-55.5 134.5t-141.5 52.5q-88 0 -143.5 -52.5t-55.5 -134.5z" />
    <glyph glyph-name="cent.tf" horiz-adv-x="1167" 
d="M1008 494l86 -52q-61 -119 -183.5 -189.5t-271.5 -70.5q-82 0 -152 21l-65 -203h-82l74 227q-143 61 -228.5 192.5t-85.5 297.5q0 227 154 380.5t385 153.5q51 0 109 -10l63 193h82l-70 -213q186 -66 262 -232l-84 -49q-59 131 -208 186l-273 -829q59 -16 119 -16
q123 0 220.5 57.5t148.5 155.5zM205 717q0 -129 65.5 -234.5t175.5 -158.5l271 823q-37 6 -78 6q-184 0 -309 -126t-125 -310z" />
    <glyph glyph-name="dollar.tf" horiz-adv-x="1167" 
d="M1077 362q0 -164 -115.5 -267t-304.5 -115v-185h-96v185q-176 8 -297 89t-174 222l94 53q68 -242 377 -260v608q-96 31 -156.5 57.5t-122 71.5t-91 109.5t-29.5 152.5q0 158 111.5 259.5t287.5 111.5v184h96v-184q291 -27 387 -291l-92 -51q-70 213 -295 238v-580
q98 -31 164 -59.5t129.5 -74.5t95 -115t31.5 -159zM270 1083q0 -113 72 -173t219 -109v549q-133 -8 -212 -82t-79 -185zM657 84q147 10 229.5 86t82.5 192q0 121 -77 184.5t-235 115.5v-578z" />
    <glyph glyph-name="Euro.tf" horiz-adv-x="1167" 
d="M1014 334l88 -49q-47 -147 -154.5 -227.5t-253.5 -80.5q-211 0 -342 153t-162 419h-145v92h137q-2 25 -2 76q0 59 2 88h-137v90h145q35 262 165 411.5t339 149.5q143 0 249 -75.5t153 -217.5l-90 -51q-37 117 -120 178.5t-192 61.5q-158 0 -261 -120t-132 -337h520v-90
h-530q-2 -29 -2 -88q0 -51 2 -76h530v-92h-522q29 -223 131 -345t264 -122q111 0 196 64.5t124 187.5z" />
    <glyph glyph-name="florin.tf" horiz-adv-x="1167" 
d="M1100 1337q-121 43 -198 0t-105 -157l-101 -412h316v-100h-338l-201 -826q-41 -170 -145.5 -236.5t-259.5 -21.5v103q121 -43 197.5 0t103.5 157l200 824h-311v100h336l100 414q41 170 145.5 236.5t260.5 21.5v-103z" />
    <glyph glyph-name="uni20BD.tf" horiz-adv-x="1167" 
d="M682 588h-369v-213h533v-90h-533v-285h-108v285h-185v90h185v213h-185v102h185v744h477q174 0 299 -125t125 -299t-125 -298t-299 -124zM313 1331v-641h369q131 0 223 93.5t92 226.5t-92 227t-223 94h-369z" />
    <glyph glyph-name="sterling.tf" horiz-adv-x="1167" 
d="M381 104h772v-104h-1085v104h204v496h-163v96h163v348q0 195 120 303.5t290 108.5q141 0 240.5 -71.5t148.5 -202.5l-90 -52q-72 221 -299 222q-131 0 -216 -80t-85 -228v-348h493v-96h-493v-496z" />
    <glyph glyph-name="yen.tf" horiz-adv-x="1167" 
d="M1141 1434l-479 -729h358v-93h-381v-157h381v-90h-381v-365h-111v365h-376v90h376v157h-376v93h356l-479 729h118l437 -664l436 664h121z" />
    <glyph glyph-name="brevecy" horiz-adv-x="600" 
d="M41 1202v90h518v-90h-518z" />
    </font>
</defs>
</svg>
